<svg version="1.1" id="Layer_1" xmlns="http://www.w3.org/2000/svg" xmlns:xlink="http://www.w3.org/1999/xlink" x="0px" y="0px"
	 width="100%" viewBox="0 0 400 400" enable-background="new 0 0 400 400" xml:space="preserve">
<path fill="none" opacity="1.000000" stroke="#000000" stroke-linecap="round" stroke-linejoin="round" stroke-width="2.000000"
	d="
M400.500000,286.000000 
	C400.500000,223.166672 400.500000,160.333328 400.500000,97.500000 
"/>
<path fill="none" opacity="1.000000" stroke="#000000" stroke-linecap="round" stroke-linejoin="round" stroke-width="4.000000"
	d="
M4.000000,107.500000 
	C2.189253,108.773445 2.501768,110.687363 2.501696,112.500000 
	C2.499601,165.500000 2.499601,218.500000 2.501696,271.500000 
	C2.501768,273.312622 2.189253,275.226562 4.000000,276.500000 
"/>
<path fill="none" opacity="1.000000" stroke="#000000" stroke-linecap="round" stroke-linejoin="round" stroke-width="4.000000"
	d="
M279.500000,193.000000 
	C275.199615,191.976547 270.831757,192.552933 266.499847,192.531677 
	C250.333557,192.452377 234.166672,192.496185 218.000000,192.505005 
	C216.040573,192.506073 213.946411,192.081299 212.500000,194.000000 
"/>
<path fill="none" opacity="1.000000" stroke="#000000" stroke-linecap="round" stroke-linejoin="round" stroke-width="4.000000"
	d="
M123.000000,193.000000 
	C124.037025,191.925858 125.347160,192.535767 126.500053,192.533829 
	C152.666656,192.489853 178.833328,192.497589 205.000000,192.504883 
	C206.959427,192.505432 209.053589,192.081299 210.500000,194.000000 
"/>
<path fill="none" opacity="1.000000" stroke="#000000" stroke-linecap="round" stroke-linejoin="round" stroke-width="4.000000"
	d="
M116.500000,226.500000 
	C98.166664,226.500000 79.833313,226.486755 61.500038,226.520157 
	C59.633766,226.523560 57.612514,225.952164 56.000000,227.500000 
"/>
<path fill="none" opacity="1.000000" stroke="#000000" stroke-linecap="round" stroke-linejoin="round" stroke-width="4.000000"
	d="
M212.500000,195.000000 
	C216.444321,196.960739 220.657440,198.301926 225.002243,198.407333 
	C230.657516,198.544495 236.354507,199.010178 242.004181,198.023956 
	C242.974609,197.854568 244.097244,197.728531 244.983521,198.046005 
	C249.296402,199.590973 253.365555,199.452179 258.045013,198.849472 
	C265.709076,197.862381 273.687225,197.867401 281.500000,199.000000 
"/>
<path fill="none" opacity="1.000000" stroke="#000000" stroke-linecap="round" stroke-linejoin="round" stroke-width="4.000000"
	d="
M161.500000,187.500000 
	C176.647003,185.543671 191.822449,186.639618 207.001663,186.905136 
	C212.491333,187.001160 218.000000,188.548721 223.500000,187.000000 
"/>
<path fill="none" opacity="1.000000" stroke="#000000" stroke-linecap="round" stroke-linejoin="round" stroke-width="8.000000"
	d="
M114.000000,234.000000 
	C109.661613,238.352966 103.877670,237.790421 98.496895,238.475632 
	C88.318367,239.771774 78.131783,240.554962 67.996857,238.012527 
	C65.382881,237.356781 62.809464,236.726288 61.500000,234.000000 
"/>
<path fill="none" opacity="1.000000" stroke="#000000" stroke-linecap="round" stroke-linejoin="round" stroke-width="4.000000"
	d="
M121.500000,231.500000 
	C117.435745,233.113449 113.245285,232.641663 108.998833,232.578445 
	C95.001930,232.370117 80.901825,231.491135 67.033157,232.840744 
	C57.139778,233.803497 54.703850,227.973862 50.853523,221.588318 
	C47.113689,215.386032 46.779171,208.733536 45.969372,202.003693 
	C45.764957,200.304886 46.666706,199.208344 47.500000,198.000000 
"/>
<path fill="none" opacity="1.000000" stroke="#000000" stroke-linecap="round" stroke-linejoin="round" stroke-width="4.000000"
	d="
M349.500000,191.500000 
	C347.639252,192.668915 345.562012,192.506912 343.500000,192.505203 
	C331.000000,192.494781 318.499878,192.476028 306.000153,192.535248 
	C304.678284,192.541519 303.221924,191.941986 302.000000,193.000000 
"/>
<path fill="none" opacity="1.000000" stroke="#000000" stroke-linecap="round" stroke-linejoin="round" stroke-width="4.000000"
	d="
M329.500000,208.500000 
	C324.417938,210.144745 319.176758,209.395737 313.999634,209.475784 
	C307.501190,209.576263 300.998749,209.572006 294.500732,209.457901 
	C292.442963,209.421768 290.654175,209.843124 289.000000,211.000000 
"/>
<path fill="none" opacity="1.000000" stroke="#000000" stroke-linecap="round" stroke-linejoin="round" stroke-width="4.000000"
	d="
M343.500000,196.500000 
	C341.272034,198.186844 338.795746,198.603165 335.999054,198.558258 
	C326.501526,198.405777 316.999969,198.516556 307.500031,198.491562 
	C303.875610,198.482025 301.776306,198.880188 300.969177,193.073792 
	C299.743713,184.258026 298.887726,175.198792 296.542114,166.488663 
	C296.385986,165.908905 296.833344,165.166672 297.000000,164.500000 
"/>
<path fill="none" opacity="1.000000" stroke="#000000" stroke-linecap="round" stroke-linejoin="round" stroke-width="4.000000"
	d="
M209.500000,196.000000 
	C205.558640,197.959854 201.357239,198.666290 197.000320,198.492096 
	C187.168854,198.099045 177.222168,197.643051 167.512924,197.932968 
	C153.003754,198.366211 138.496353,198.008194 124.000000,198.500000 
"/>
<path fill="none" opacity="1.000000" stroke="#000000" stroke-linecap="round" stroke-linejoin="round" stroke-width="4.000000"
	d="
M96.500000,173.000000 
	C91.811050,174.670746 87.131180,175.913483 81.994286,175.590988 
	C75.851837,175.205353 69.666573,175.518692 63.500061,175.487671 
	C61.825279,175.479248 60.103207,175.801270 58.500000,175.000000 
"/>
<path fill="none" opacity="1.000000" stroke="#000000" stroke-linecap="round" stroke-linejoin="round" stroke-width="4.000000"
	d="
M205.500000,181.000000 
	C199.024719,182.130997 192.499054,181.286880 185.999191,181.471710 
	C181.003235,181.613770 175.985214,181.268631 171.005554,181.586914 
	C168.027069,181.777313 166.014053,180.625992 166.168381,178.009933 
	C166.326569,175.328003 163.617340,173.629623 164.500000,171.000000 
"/>
<path fill="none" opacity="1.000000" stroke="#000000" stroke-linecap="round" stroke-linejoin="round" stroke-width="4.000000"
	d="
M99.500000,164.500000 
	C91.501534,164.259888 83.505234,164.666840 75.490128,164.154343 
	C71.526604,163.900925 66.939507,164.000275 64.500000,168.500000 
"/>
<path fill="none" opacity="1.000000" stroke="#000000" stroke-linecap="round" stroke-linejoin="round" stroke-width="4.000000"
	d="
M238.500000,168.500000 
	C239.161942,163.720306 241.987976,164.078461 246.010956,164.308334 
	C256.144531,164.887344 266.333344,164.500000 276.500000,164.500000 
"/>
<path fill="none" opacity="1.000000" stroke="#000000" stroke-linecap="round" stroke-linejoin="round" stroke-width="4.000000"
	d="
M336.500000,202.500000 
	C333.733917,203.405075 331.068359,203.829254 327.991211,203.674133 
	C318.515289,203.196457 309.000000,203.500000 299.500000,203.500000 
"/>
<path fill="none" opacity="1.000000" stroke="#000000" stroke-linecap="round" stroke-linejoin="round" stroke-width="4.000000"
	d="
M65.500000,198.500000 
	C60.833332,198.500000 56.164490,198.588638 51.500641,198.473969 
	C47.213608,198.368546 47.220352,197.372971 47.864094,192.980087 
	C49.102100,184.531921 54.720646,178.651367 59.114849,172.076767 
	C60.462475,170.060455 62.966167,169.216003 66.006630,169.358124 
	C74.654396,169.762405 83.333344,169.493271 91.999992,169.505173 
	C93.959457,169.507858 96.053581,169.081299 97.500000,171.000000 
"/>
<path fill="none" opacity="1.000000" stroke="#000000" stroke-linecap="round" stroke-linejoin="round" stroke-width="6.000000"
	d="
M171.500000,199.000000 
	C173.000000,204.000000 174.411346,209.029205 176.043900,213.985535 
	C176.691391,215.951248 178.041946,217.199722 180.502655,217.041153 
	C187.495087,216.590515 194.500000,216.333328 201.500000,216.000000 
"/>
<path fill="none" opacity="1.000000" stroke="#000000" stroke-linecap="round" stroke-linejoin="round" stroke-width="4.000000"
	d="
M242.500000,163.000000 
	C242.332458,159.054489 243.166031,157.708618 248.028748,158.233856 
	C256.760223,159.176987 265.666656,158.500000 274.500000,158.500000 
"/>
<path fill="none" opacity="1.000000" stroke="#000000" stroke-linecap="round" stroke-linejoin="round" stroke-width="4.000000"
	d="
M175.500000,164.500000 
	C167.500000,164.500000 159.498764,164.584305 151.500473,164.467621 
	C146.878677,164.400192 146.218079,163.118164 148.000000,158.500000 
"/>
<path fill="none" opacity="1.000000" stroke="#000000" stroke-linecap="round" stroke-linejoin="round" stroke-width="4.000000"
	d="
M81.500000,179.500000 
	C72.605354,182.677856 63.565598,181.937820 54.500000,180.500000 
"/>
<path fill="none" opacity="1.000000" stroke="#000000" stroke-linecap="round" stroke-linejoin="round" stroke-width="4.000000"
	d="
M171.000000,146.500000 
	C165.528351,147.602234 159.997314,146.732666 154.499481,146.988907 
	C152.385284,147.087433 149.112946,146.471970 148.764847,148.544479 
	C148.327057,151.150879 147.244003,153.838913 147.591232,156.488037 
	C147.908035,158.904831 150.211578,158.495697 152.000000,158.497543 
	C158.166672,158.503906 164.333420,158.481308 170.499939,158.512329 
	C172.174728,158.520737 173.896790,158.198730 175.500000,159.000000 
"/>
<path fill="none" opacity="1.000000" stroke="#000000" stroke-linecap="round" stroke-linejoin="round" stroke-width="4.000000"
	d="
M152.500000,204.000000 
	C144.666672,203.833344 136.833572,203.653992 128.999863,203.507034 
	C126.328125,203.456894 124.420166,204.688995 125.070786,207.483521 
	C126.601601,214.058731 128.503479,220.547546 130.282150,227.171631 
	C134.842987,226.041855 139.509659,226.486267 143.500000,224.000000 
"/>
<path fill="none" opacity="1.000000" stroke="#000000" stroke-linecap="round" stroke-linejoin="round" stroke-width="4.000000"
	d="
M199.500000,203.500000 
	C192.666672,203.500000 185.833237,203.480392 179.000061,203.513779 
	C177.286362,203.522141 175.441254,203.039612 174.000000,204.500000 
"/>
<path fill="none" opacity="1.000000" stroke="#000000" stroke-linecap="round" stroke-linejoin="round" stroke-width="4.000000"
	d="
M327.500000,186.000000 
	C337.512085,186.559189 347.529144,187.414459 357.500000,185.500000 
"/>
<path fill="none" opacity="1.000000" stroke="#000000" stroke-linecap="round" stroke-linejoin="round" stroke-width="4.000000"
	d="
M76.500000,221.500000 
	C68.166664,220.052032 59.833332,219.788513 51.500000,221.500000 
"/>
<path fill="none" opacity="1.000000" stroke="#000000" stroke-linecap="round" stroke-linejoin="round" stroke-width="4.000000"
	d="
M75.500000,185.500000 
	C72.307404,187.240723 68.837448,186.488159 65.500816,186.441513 
	C60.668747,186.373978 55.801254,187.096985 51.000000,186.000000 
"/>
<path fill="none" opacity="1.000000" stroke="#000000" stroke-linecap="round" stroke-linejoin="round" stroke-width="4.000000"
	d="
M295.500000,204.500000 
	C287.205872,203.186905 278.803650,203.040512 270.514648,203.687561 
	C265.215546,204.101212 260.487244,203.840668 256.000000,201.000000 
"/>
<path fill="none" opacity="1.000000" stroke="#000000" stroke-linecap="round" stroke-linejoin="round" stroke-width="4.000000"
	d="
M150.500000,209.500000 
	C142.669342,209.792282 134.813248,208.889221 127.000000,210.000000 
"/>
<path fill="none" opacity="1.000000" stroke="#000000" stroke-linecap="round" stroke-linejoin="round" stroke-width="4.000000"
	d="
M172.500000,152.500000 
	C164.666672,152.500000 156.833328,152.500000 149.000000,152.500000 
"/>
<path fill="none" opacity="1.000000" stroke="#000000" stroke-linecap="round" stroke-linejoin="round" stroke-width="4.000000"
	d="
M232.500000,180.000000 
	C232.942047,175.637695 236.278427,172.722549 237.392517,169.500000 
	C250.495560,169.500000 262.997772,169.500000 275.500000,169.500000 
"/>
<path fill="none" opacity="1.000000" stroke="#000000" stroke-linecap="round" stroke-linejoin="round" stroke-width="4.000000"
	d="
M198.500000,209.500000 
	C191.003220,209.811569 183.478516,208.866425 176.000000,210.000000 
"/>
<path fill="none" opacity="1.000000" stroke="#000000" stroke-linecap="round" stroke-linejoin="round" stroke-width="4.000000"
	d="
M150.500000,215.500000 
	C143.000000,215.500000 135.500000,215.500000 128.000000,215.500000 
"/>
<path fill="none" opacity="1.000000" stroke="#000000" stroke-linecap="round" stroke-linejoin="round" stroke-width="5.000000"
	d="
M186.000000,144.500000 
	C187.935806,149.393173 186.873093,154.490173 186.976349,159.500488 
	C187.082794,164.666306 187.000000,169.836014 187.000000,175.500000 
	C192.991013,175.500000 198.745499,175.500000 204.500000,175.500000 
"/>
<path fill="none" opacity="1.000000" stroke="#000000" stroke-linecap="round" stroke-linejoin="round" stroke-width="4.000000"
	d="
M322.500000,188.000000 
	C323.812836,187.589142 325.213226,187.285400 325.992859,185.995682 
	C328.951416,181.101303 332.982941,180.255798 338.535431,181.314011 
	C344.039124,182.362930 349.857178,181.022766 355.500000,182.000000 
"/>
<path fill="none" opacity="1.000000" stroke="#000000" stroke-linecap="round" stroke-linejoin="round" stroke-width="4.000000"
	d="
M245.500000,157.000000 
	C245.143066,154.738205 246.611649,153.389160 247.870193,152.129120 
	C255.492706,152.590881 262.996368,153.045441 270.500000,153.500000 
"/>
<path fill="none" opacity="1.000000" stroke="#000000" stroke-linecap="round" stroke-linejoin="round" stroke-width="4.000000"
	d="
M70.500000,216.000000 
	C63.356064,214.855911 56.163181,215.816620 49.000000,215.500000 
"/>
<path fill="none" opacity="1.000000" stroke="#000000" stroke-linecap="round" stroke-linejoin="round" stroke-width="4.000000"
	d="
M319.500000,215.500000 
	C313.345245,216.053543 307.165222,215.521973 300.961487,216.028351 
	C297.449799,216.314987 291.978790,215.597824 289.005188,211.496246 
	C287.607971,209.569046 285.639160,209.449432 283.499695,209.476624 
	C278.000580,209.546524 272.500000,209.500000 267.000000,209.500000 
"/>
<path fill="none" opacity="1.000000" stroke="#000000" stroke-linecap="round" stroke-linejoin="round" stroke-width="4.000000"
	d="
M188.000000,147.500000 
	C194.833328,147.500000 201.666672,147.500000 208.500000,147.500000 
"/>
<path fill="none" opacity="1.000000" stroke="#000000" stroke-linecap="round" stroke-linejoin="round" stroke-width="4.000000"
	d="
M208.500000,152.500000 
	C201.666672,152.500000 194.833328,152.500000 188.000000,152.500000 
"/>
<path fill="none" opacity="1.000000" stroke="#000000" stroke-linecap="round" stroke-linejoin="round" stroke-width="4.000000"
	d="
M255.500000,174.500000 
	C248.875839,176.366684 242.185349,175.580414 235.500000,175.000000 
"/>
<path fill="none" opacity="1.000000" stroke="#000000" stroke-linecap="round" stroke-linejoin="round" stroke-width="4.000000"
	d="
M49.000000,192.000000 
	C55.500000,192.822647 62.000000,192.822830 68.500000,192.000000 
"/>
<path fill="none" opacity="1.000000" stroke="#000000" stroke-linecap="round" stroke-linejoin="round" stroke-width="4.000000"
	d="
M207.500000,158.500000 
	C201.000000,158.500000 194.500000,158.500000 188.000000,158.500000 
"/>
<path fill="none" opacity="1.000000" stroke="#000000" stroke-linecap="round" stroke-linejoin="round" stroke-width="4.000000"
	d="
M65.500000,204.500000 
	C59.382710,202.506409 53.183331,203.550079 47.000000,204.000000 
"/>
<path fill="none" opacity="1.000000" stroke="#000000" stroke-linecap="round" stroke-linejoin="round" stroke-width="4.000000"
	d="
M125.500000,152.000000 
	C121.027916,153.922974 115.852440,151.907013 111.481590,154.828583 
	C113.873650,161.698257 115.579971,169.046021 117.114685,176.476318 
	C118.583199,183.586090 120.789345,190.571167 123.117035,197.460464 
	C123.905945,199.795410 121.893440,203.157104 125.500000,204.500000 
"/>
<path fill="none" opacity="1.000000" stroke="#000000" stroke-linecap="round" stroke-linejoin="round" stroke-width="4.000000"
	d="
M206.500000,164.500000 
	C200.335236,164.262970 194.143372,165.028732 188.000000,164.000000 
"/>
<path fill="none" opacity="1.000000" stroke="#000000" stroke-linecap="round" stroke-linejoin="round" stroke-width="4.000000"
	d="
M228.500000,185.500000 
	C229.242889,181.853027 230.554642,180.399002 235.047607,181.248123 
	C240.360962,182.252289 246.063629,181.883163 251.500000,180.500000 
"/>
<path fill="none" opacity="1.000000" stroke="#000000" stroke-linecap="round" stroke-linejoin="round" stroke-width="4.000000"
	d="
M66.500000,209.500000 
	C60.336861,209.797180 54.141315,208.895355 48.000000,210.000000 
"/>
<path fill="none" opacity="1.000000" stroke="#000000" stroke-linecap="round" stroke-linejoin="round" stroke-width="4.000000"
	d="
M205.500000,169.500000 
	C199.666672,169.500000 193.833328,169.500000 188.000000,169.500000 
"/>
<path fill="none" opacity="1.000000" stroke="#000000" stroke-linecap="round" stroke-linejoin="round" stroke-width="4.000000"
	d="
M299.000000,232.000000 
	C304.833344,232.814453 310.666656,232.817383 316.500000,232.000000 
"/>
<path fill="none" opacity="1.000000" stroke="#000000" stroke-linecap="round" stroke-linejoin="round" stroke-width="4.000000"
	d="
M178.500000,170.000000 
	C177.000000,169.833328 175.500687,169.529984 173.999893,169.522430 
	C165.000122,169.477203 156.000000,169.500000 147.000000,169.500000 
"/>
<path fill="none" opacity="1.000000" stroke="#000000" stroke-linecap="round" stroke-linejoin="round" stroke-width="3.000000"
	d="
M116.500000,221.000000 
	C110.616753,219.045441 105.196014,222.332565 99.500000,222.500000 
"/>
<path fill="none" opacity="1.000000" stroke="#000000" stroke-linecap="round" stroke-linejoin="round" stroke-width="4.000000"
	d="
M319.500000,220.500000 
	C313.833344,220.666672 308.166656,220.833328 302.500000,221.000000 
"/>
<path fill="none" opacity="1.000000" stroke="#000000" stroke-linecap="round" stroke-linejoin="round" stroke-width="2.000000"
	d="
M98.500000,158.499985 
	C93.166664,158.833328 87.833336,159.166656 82.500000,159.499985 
"/>
<path fill="none" opacity="1.000000" stroke="#000000" stroke-linecap="round" stroke-linejoin="round" stroke-width="4.000000"
	d="
M293.500000,154.500000 
	C293.941376,157.130661 296.371979,158.948257 296.121033,162.009918 
	C295.939636,164.223160 298.125732,164.510040 300.000000,164.504395 
	C304.499969,164.490814 309.000000,164.500000 313.500000,164.500000 
"/>
<path fill="none" opacity="1.000000" stroke="#000000" stroke-linecap="round" stroke-linejoin="round" stroke-width="4.000000"
	d="
M224.500000,186.500000 
	C231.166672,186.500000 237.833328,186.500000 244.500000,186.500000 
"/>
<path fill="none" opacity="1.000000" stroke="#000000" stroke-linecap="round" stroke-linejoin="round" stroke-width="4.000000"
	d="
M301.000000,217.000000 
	C303.298645,220.142975 299.683746,222.590240 300.042877,225.902863 
	C305.420441,227.145950 310.997986,226.199875 316.500000,226.500000 
"/>
<path fill="none" opacity="1.000000" stroke="#000000" stroke-linecap="round" stroke-linejoin="round" stroke-width="5.000000"
	d="
M266.000000,205.000000 
	C266.000000,211.000000 266.044098,217.000473 265.978851,222.999771 
	C265.951782,225.489014 267.698669,226.026718 269.504944,226.480347 
	C271.817963,227.061249 274.152588,227.788162 276.504730,227.902985 
	C278.192871,227.985413 278.181305,229.129379 278.750000,230.000000 
"/>
<path fill="none" opacity="1.000000" stroke="#000000" stroke-linecap="round" stroke-linejoin="round" stroke-width="4.000000"
	d="
M154.500000,222.000000 
	C147.890549,222.922836 141.530014,220.587021 134.999817,220.517868 
	C133.287811,220.499725 131.441254,220.039612 130.000000,221.500000 
"/>
<path fill="none" opacity="1.000000" stroke="#000000" stroke-linecap="round" stroke-linejoin="round" stroke-width="4.000000"
	d="
M314.500000,181.000000 
	C309.699249,182.111664 304.829254,181.215027 300.000000,181.500000 
"/>
<path fill="none" opacity="1.000000" stroke="#000000" stroke-linecap="round" stroke-linejoin="round" stroke-width="4.000000"
	d="
M312.500000,169.500000 
	C307.668640,169.723495 302.804138,168.986847 298.000000,170.000000 
"/>
<path fill="none" opacity="1.000000" stroke="#000000" stroke-linecap="round" stroke-linejoin="round" stroke-width="4.000000"
	d="
M281.500000,221.000000 
	C276.666656,220.129852 271.833344,220.263794 267.000000,221.000000 
"/>
<path fill="none" opacity="1.000000" stroke="#000000" stroke-linecap="round" stroke-linejoin="round" stroke-width="4.000000"
	d="
M218.500000,209.000000 
	C223.166672,209.816086 227.833328,209.816086 232.500000,209.000000 
"/>
<path fill="none" opacity="1.000000" stroke="#000000" stroke-linecap="round" stroke-linejoin="round" stroke-width="4.000000"
	d="
M276.500000,175.500000 
	C272.000000,175.500000 267.500000,175.500000 263.000000,175.500000 
"/>
<path fill="none" opacity="1.000000" stroke="#000000" stroke-linecap="round" stroke-linejoin="round" stroke-width="4.000000"
	d="
M312.500000,175.500000 
	C308.000000,175.500000 303.500000,175.500000 299.000000,175.500000 
"/>
<path fill="none" opacity="1.000000" stroke="#000000" stroke-linecap="round" stroke-linejoin="round" stroke-width="4.000000"
	d="
M280.500000,215.500000 
	C276.000000,215.500000 271.500000,215.500000 267.000000,215.500000 
"/>
<path fill="none" opacity="1.000000" stroke="#000000" stroke-linecap="round" stroke-linejoin="round" stroke-width="7.000000"
	d="
M229.500000,215.500000 
	C226.195541,217.368835 222.571533,217.187653 219.002533,216.960236 
	C215.992325,216.768448 214.229431,214.305862 215.695190,212.131577 
	C217.555389,209.372162 217.393005,205.747284 220.000000,203.500000 
"/>
<path fill="none" opacity="1.000000" stroke="#000000" stroke-linecap="round" stroke-linejoin="round" stroke-width="4.000000"
	d="
M262.000000,170.500000 
	C262.413330,175.676407 262.826660,180.852814 263.277588,186.500000 
	C268.154755,186.500000 272.827393,186.500000 277.500000,186.500000 
"/>
<path fill="none" opacity="1.000000" stroke="#000000" stroke-linecap="round" stroke-linejoin="round" stroke-width="4.000000"
	d="
M134.500000,187.000000 
	C129.971619,186.400269 125.438248,185.666061 121.000000,187.500000 
"/>
<path fill="none" opacity="1.000000" stroke="#000000" stroke-linecap="round" stroke-linejoin="round" stroke-width="4.000000"
	d="
M300.000000,226.500000 
	C297.325470,228.742325 299.424652,232.669479 296.184479,234.932404 
	C300.832367,238.170898 304.944916,239.977783 310.013977,238.036484 
	C311.422272,237.497147 313.000000,237.024826 314.500000,238.000000 
"/>
<path fill="none" opacity="1.000000" stroke="#000000" stroke-linecap="round" stroke-linejoin="round" stroke-width="4.000000"
	d="
M276.500000,181.500000 
	C272.333344,181.500000 268.166656,181.500000 264.000000,181.500000 
"/>
<path fill="none" opacity="1.000000" stroke="#000000" stroke-linecap="round" stroke-linejoin="round" stroke-width="4.000000"
	d="
M129.500000,170.000000 
	C125.333336,169.219360 121.166664,169.155731 117.000000,170.000000 
"/>
<path fill="none" opacity="1.000000" stroke="#000000" stroke-linecap="round" stroke-linejoin="round" stroke-width="4.000000"
	d="
M313.500000,186.500000 
	C309.337769,186.777557 305.129791,185.911514 301.000000,187.000000 
"/>
<path fill="none" opacity="1.000000" stroke="#000000" stroke-linecap="round" stroke-linejoin="round" stroke-width="4.000000"
	d="
M125.500000,158.500000 
	C121.671547,158.778976 117.792786,157.900711 114.000000,159.000000 
"/>
<path fill="none" opacity="1.000000" stroke="#000000" stroke-linecap="round" stroke-linejoin="round" stroke-width="4.000000"
	d="
M129.500000,175.500000 
	C125.671547,175.778976 121.792786,174.900711 118.000000,176.000000 
"/>
<path fill="none" opacity="1.000000" stroke="#000000" stroke-linecap="round" stroke-linejoin="round" stroke-width="4.000000"
	d="
M131.500000,181.500000 
	C127.671547,181.778976 123.792786,180.900711 120.000000,182.000000 
"/>
<path fill="none" opacity="1.000000" stroke="#000000" stroke-linecap="round" stroke-linejoin="round" stroke-width="4.000000"
	d="
M178.500000,175.500000 
	C174.671555,175.778976 170.792786,174.900711 167.000000,176.000000 
"/>
<path fill="none" opacity="1.000000" stroke="#000000" stroke-linecap="round" stroke-linejoin="round" stroke-width="4.000000"
	d="
M145.500000,186.500000 
	C148.828842,186.756577 152.211731,185.932022 155.500000,187.000000 
"/>
<path fill="none" opacity="1.000000" stroke="#000000" stroke-linecap="round" stroke-linejoin="round" stroke-width="4.000000"
	d="
M155.500000,181.000000 
	C153.728180,181.843353 151.836823,181.506775 150.000351,181.477768 
	C145.068069,181.399857 144.442123,180.417068 146.000000,175.500000 
"/>
<path fill="none" opacity="1.000000" stroke="#000000" stroke-linecap="round" stroke-linejoin="round" stroke-width="4.000000"
	d="
M147.500000,164.000000 
	C145.489792,166.517212 147.054504,169.774185 145.644211,172.572678 
	C144.823029,174.202179 146.471115,175.516006 148.500015,175.503387 
	C150.833252,175.488876 153.166672,175.500000 155.500000,175.500000 
"/>
<path fill="none" opacity="1.000000" stroke="#000000" stroke-linecap="round" stroke-linejoin="round" stroke-width="4.000000"
	d="
M307.000000,239.500000 
	C308.651825,242.790390 311.956726,243.435913 315.000000,244.500000 
"/>
<path fill="none" opacity="1.000000" stroke="#000000" stroke-linecap="round" stroke-linejoin="round" stroke-width="4.000000"
	d="
M115.500000,165.000000 
	C119.833336,164.205353 124.166664,164.205353 128.500000,165.000000 
"/>
<path fill="none" opacity="1.000000" stroke="#000000" stroke-linecap="round" stroke-linejoin="round" stroke-width="3.000000"
	d="
M333.000000,180.250000 
	C333.864929,176.084976 336.142242,174.258377 340.509521,175.465561 
	C342.453156,176.002808 344.500000,176.166672 346.500000,176.500000 
"/>
<path fill="none" opacity="1.000000" stroke="#000000" stroke-linecap="round" stroke-linejoin="round" stroke-width="3.000000"
	d="
M98.500000,171.500000 
	C100.833336,172.500000 103.166664,173.500000 105.500000,174.500000 
"/>
<path fill="none" opacity="1.000000" stroke="#000000" stroke-linecap="round" stroke-linejoin="round" stroke-width="4.000000"
	d="
M233.500000,203.500000 
	C229.167679,203.306946 224.793961,204.190186 220.095215,202.948471 
	C220.399750,201.451248 220.699890,199.975632 221.000015,198.500000 
"/>
<path fill="none" opacity="1.000000" stroke="#000000" stroke-linecap="round" stroke-linejoin="round" stroke-width="4.000000"
	d="
M145.500000,181.000000 
	C143.979416,184.511414 144.451782,188.385178 143.500000,192.000000 
"/>
<path fill="none" opacity="1.000000" stroke="#000000" stroke-linecap="round" stroke-linejoin="round" stroke-width="2.000000"
	d="
M340.500000,170.000000 
	C338.983368,171.120377 338.541351,172.837784 338.000000,174.500000 
"/>
<path fill="none" opacity="1.000000" stroke="#000000" stroke-linecap="round" stroke-linejoin="round" stroke-width="2.000000"
	d="
M238.500000,202.500000 
	C237.712509,204.455566 236.485352,205.238724 234.500000,204.000000 
"/>
<path fill="none" opacity="1.000000" stroke="#000000" stroke-linecap="round" stroke-linejoin="round" stroke-width="2.000000"
	d="
M300.500000,159.500000 
	C299.166656,159.500000 297.833344,159.500000 296.500000,159.500000 
"/>
</svg>