<?xml version="1.0" standalone="yes"?>
<svg xmlns="http://www.w3.org/2000/svg" width="698" height="698">
<path style="fill:#ffffff; stroke:none;" d="M0 0L0 698L698 698L698 0L0 0z"/>
<path style="fill:#a4e0c2; stroke:none;" d="M163.667 72.3333L164.333 72.6667L163.667 72.3333z"/>
<path style="fill:#04a652; stroke:none;" d="M181 111L181 115L188 115L188 92L169 92L169 100L178 100C169.501 124.4 145.226 82.3121 169 81.257C175.084 80.9869 180.991 86 188 86C186.683 82.2324 185.079 78.9208 181.956 76.2786C153.537 52.2323 130.2 116.642 168 115.981C173.159 115.891 176.713 113.578 181 111z"/>
<path style="fill:#a4e0c2; stroke:none;" d="M173 72L173 73L176 73L173 72M367 72L367 73L370 73L367 72z"/>
<path style="fill:#04a652; stroke:none;" d="M390 101C382.822 101.001 376.119 108.055 370.004 106.551C359.604 103.993 360.04 86.3984 369.015 82.358C374.435 79.9187 383.358 86.9993 390 87C386.347 62.7343 352.422 71.3739 351.094 93C349.605 117.255 384.08 125.913 390 101z"/>
<path style="fill:#a4e0c2; stroke:none;" d="M375 72L375 73L378 73L375 72M471 72L471 73L474 73L471 72z"/>
<path style="fill:#04a652; stroke:none;" d="M494 101C486.822 101.001 480.119 108.055 474.004 106.551C463.604 103.993 464.04 86.3984 473.015 82.358C478.435 79.9187 487.358 86.9993 494 87C490.359 62.8174 456.423 71.3652 455.094 93C453.605 117.255 488.08 125.913 494 101z"/>
<path style="fill:#a4e0c2; stroke:none;" d="M479 72L479 73L482 73L479 72M86 73C86 83.566 81.9554 104.236 86.6034 113.682C88.2298 116.987 95.7703 116.987 97.3966 113.682C99.7091 108.982 98 100.182 98 95L97 95L97 115L87 115C87 103.043 90.6107 83.9877 86 73z"/>
<path style="fill:#04a652; stroke:none;" d="M87 73L87 115L97 115L97 90L98 90C101.945 103.693 108.405 115 123 115L123 73L113 73L113 99C105.677 86.4531 103.303 73 87 73z"/>
<path style="fill:#a4e0c2; stroke:none;" d="M98 73L99 74L98 73M112 73L111 97L112 97C113.86 90.7065 114.563 79.1074 112 73M123 73L123 115L124 115C124 103.043 127.611 83.9877 123 73z"/>
<path style="fill:#04a652; stroke:none;" d="M131 73L131 115L142 115L142 73L131 73z"/>
<path style="fill:#a4e0c2; stroke:none;" d="M160 73L161 74L160 73M177.667 73.3333L178.333 73.6667L177.667 73.3333M195 73L196 74L195 73z"/>
<path style="fill:#04a652; stroke:none;" d="M195 115L228 115L228 107L206 107L206 98L225 98L225 89L206 89L206 82L227 82L227 73C220.177 73 202.003 69.7514 196.603 74.0278C193.927 76.1473 195 82.0196 195 85L195 115z"/>
<path style="fill:#a4e0c2; stroke:none;" d="M227 73L227 82L228 82L227 73M233 73C233 84.8676 229.947 101.497 233.318 112.852C234.421 116.569 241.629 117.355 243.972 114.397C246.431 111.292 245 103.768 245 100L244 100L244 115L234 115C234 103.043 237.611 83.9878 233 73z"/>
<path style="fill:#04a652; stroke:none;" d="M234 73L234 115L244 115L244 100C255.82 100.001 256.628 104.141 258 115L270 115C267.722 108.749 269.429 99.5109 263 96C264.76 94.1381 266.681 92.332 267.826 89.9954C277.471 70.3077 243.848 73 234 73z"/>
<path style="fill:#a4e0c2; stroke:none;" d="M256 73L256 74L260 74L256 73z"/>
<path style="fill:#04a652; stroke:none;" d="M276 73L276 115L287 115L287 73L276 73z"/>
<path style="fill:#a4e0c2; stroke:none;" d="M305 73L306 74L305 73z"/>
<path style="fill:#04a652; stroke:none;" d="M291 115C293.884 115 297.918 115.686 300.582 114.397C302.887 113.281 303.319 110.393 305.418 109.027C311.418 105.123 318.4 108.944 320 115L332 115L321.333 84L314.892 73.3179L305.843 74.6034L300.333 88L291 115z"/>
<path style="fill:#a4e0c2; stroke:none;" d="M317 73L318 74L317 73M363.667 73.3333L364.333 73.6667L363.667 73.3333M380 73L381 74L380 73M395 73C395 84.8675 391.947 101.497 395.318 112.852C396.421 116.569 403.629 117.355 405.972 114.397C408.431 111.292 407 103.768 407 100L406 100L406 115L396 115C396 103.043 399.611 83.9878 395 73z"/>
<path style="fill:#04a652; stroke:none;" d="M396 73L396 115L406 115L406 100C417.135 100.001 419.909 103.973 420 115L432 115C429.68 108.633 431.603 99.5543 425 96C426.76 94.1381 428.681 92.332 429.826 89.9954C439.491 70.2662 405.94 73 396 73z"/>
<path style="fill:#a4e0c2; stroke:none;" d="M418 73L418 74L422 74L418 73z"/>
<path style="fill:#04a652; stroke:none;" d="M438 73L438 115L449 115L449 73L438 73z"/>
<path style="fill:#a4e0c2; stroke:none;" d="M467.667 73.3333L468.333 73.6667L467.667 73.3333M483.667 73.3333L484.333 73.6667L483.667 73.3333M499 73C499 85.4519 497.059 99.6765 499.148 111.941C499.865 116.146 506.15 117.543 509.397 114.972C513.531 111.698 510.015 104.152 515 100L515 99C508.664 102.196 510 108.799 510 115L500 115C500 103.043 503.611 83.9878 499 73z"/>
<path style="fill:#04a652; stroke:none;" d="M500 73L500 115L510 115C510 108.454 509.36 103.297 515 99C519.656 111.104 525.721 115 538 115L523.371 91L538 73C523.224 73 521.276 80.056 510 88L510 73L500 73z"/>
<path style="fill:#a4e0c2; stroke:none;" d="M510 73L512 88L510 73M524 73L525 74L524 73M541 73L541 103C541 106.121 539.954 111.779 542.028 114.397C543.583 116.361 546.791 115.984 549 115.999C554.622 116.038 568.881 118.551 573.397 114.972C582.142 108.042 566.504 106 563 106L553 106L553 98L552 98C552.045 110.627 564.253 107 574 107L574 115L542 115C542 103.043 545.611 83.9876 541 73z"/>
<path style="fill:#04a652; stroke:none;" d="M542 73L542 115L574 115L574 107C564.723 107 552.146 110.345 552 98C556.552 98 566.699 99.9078 570.397 96.9722C572.637 95.1933 572.239 90.8619 569.682 89.6034C565.203 87.3984 556.933 89 552 89L552 82L574 82C573.95 67.7764 552.741 73 542 73z"/>
<path style="fill:#a4e0c2; stroke:none;" d="M573 73L574 74L573 73M576 73L576 82L577 82L576 73z"/>
<path style="fill:#04a652; stroke:none;" d="M577 73L577 82L589 82L589 115L599 115L599 82L611 82L611 73L577 73z"/>
<path style="fill:#a4e0c2; stroke:none;" d="M611 73L611 82L612 82L611 73M99 74L100 75L99 74M158 74L159 75L158 74M262 74L263 75L262 74M361 74L362 75L361 74M382 74L383 75L382 74M424 74L425 75L424 74M465 74L466 75L465 74M486 74L487 75L486 74M523 74L524 75L523 74M537 74L538 75L537 74M181 75L182 76L181 75M264 75L265 76L264 75M304.333 75.6667L304.667 76.3333L304.333 75.6667M318 75L319 76L318 75M426 75L427 76L426 75M536 75L537 76L536 75M100 76L101 77L100 76M155 76L156 77L155 76M182 76L183 77L182 76M358 76L359 77L358 76M385 76L386 77L385 76M428 76L429 77L428 76M462 76L463 77L462 76M489 76L490 77L489 76M535 76L536 77L535 76M154 77L155 78L154 77M183 77L184 78L183 77M357 77L358 78L357 77M386 77L387 78L386 77M461 77L462 78L461 77M490 77L491 78L490 77M534 77L535 78L534 77M101 78L102 79L101 78M153 78L154 79L153 78M184 78L185 79L184 78M267 78L268 79L267 78M303.333 78.6667L303.667 79.3333L303.333 78.6667M319 78L320 79L319 78M356 78L357 79L356 78M460 78L461 79L460 78M533 78L534 79L533 78M152 79L153 80L152 79M185 79L186 80L185 79M355 79L356 80L355 79M430.333 79.6667L430.667 80.3333L430.333 79.6667M459 79L460 80L459 79M519 79L520 80L519 79M532 79L533 80L532 79M268 80L269 81L268 80M388 80L389 81L388 80M492 80L493 81L492 80M518 80L519 81L518 80M531 80L532 81L531 80M103 81L104 82L103 81M165.667 81.3333L166.333 81.6667L165.667 81.3333M172 81L173 82L172 81M186 81L187 82L186 81M302 81L303 82L302 81M320 81L321 82L320 81M354 81L355 82L354 81M370 81L370 82L374 82L370 81M458 81L459 82L458 81M474 81L474 82L478 82L474 81M517 81L518 82L517 81M530 81L531 82L530 81M150 82L151 83L150 82M164 82L165 83L164 82M174 82L175 83L174 82M206 82L206 89L207 89L206 82M244 82L244 91L245 91L244 82z"/>
<path style="fill:#ffffff; stroke:none;" d="M245 82L245 91C259.87 90.9983 259.87 82.0017 245 82z"/>
<path style="fill:#a4e0c2; stroke:none;" d="M255 82L256 83L255 82M353 82L354 83L353 82M367 82L368 83L367 82M376 82L377 83L376 82M389.333 82.6667L389.667 83.3333L389.333 82.6667M406 82L406 91L407 91L406 82z"/>
<path style="fill:#ffffff; stroke:none;" d="M407 82L407 91C421.87 90.9983 421.87 82.0017 407 82z"/>
<path style="fill:#a4e0c2; stroke:none;" d="M417 82L418 83L417 82M457 82L458 83L457 82M471 82L472 83L471 82M480 82L481 83L480 82M493.333 82.6667L493.667 83.3333L493.333 82.6667M516 82L517 83L516 82M529 82L530 83L529 82M552 82L552 89L553 89L552 82M588 82L588 115L589 115L588 82M599 82L599 115L600 115L599 82M104 83L105 84L104 83M175 83L176 84L175 83M257 83L258 84L257 83M366 83L367 84L366 83M377 83L378 84L377 83M419 83L420 84L419 83M431 83L431 87L432 87L431 83M470 83L471 84L470 83M481 83L482 84L481 83M515 83L516 84L515 83M528 83L529 84L528 83M149.333 84.6667L149.667 85.3333L149.333 84.6667M176 84L177 85L176 84M187 84L188 85L187 84M269.333 84.6667L269.667 85.3333L269.333 84.6667M301 84L302 85L301 84M321 84L322 85L321 84M365 84L366 85L365 84M378 84L379 85L378 84M469 84L470 85L469 84M482 84L483 85L482 84M514 84L515 85L514 84M527 84L528 85L527 84M105 85L106 86L105 85M161 85L162 86L161 85M352 85L353 86L352 85M364 85L365 86L364 85M420 85L420 88L421 88L420 85M456 85L457 86L456 85M468 85L469 86L468 85M513 85L514 86L513 85M526 85L527 86L526 85M177 86L177 87L188 87L177 86M311 86L310 88L311 86M322.333 86.6667L322.667 87.3333L322.333 86.6667M379 86L380 87L379 86M390 86L391 87L390 86M483 86L484 87L483 86M494 86L495 87L494 86M512 86L513 87L512 86M525 86L526 87L525 86M148 87L148 90L149 90L148 87M160 87L161 88L160 87M300 87L301 88L300 87z"/>
<path style="fill:#ffffff; stroke:none;" d="M311 87L308 98L315 98L311 87z"/>
<path style="fill:#a4e0c2; stroke:none;" d="M363.333 87.6667L363.667 88.3333L363.333 87.6667M380 87L380 88L390 88L380 87M467.333 87.6667L467.667 88.3333L467.333 87.6667M484 87L484 88L494 88L484 87M524 87L525 88L524 87M107 88L108 89L107 88M312.333 88.6667L312.667 89.3333L312.333 88.6667M351.333 88.6667L351.667 89.3333L351.333 88.6667M455.333 88.6667L455.667 89.3333L455.333 88.6667M159 89L159 93L160 93L159 89M225 89L225 98L226 98L225 89M257 89L258 90L257 89M268 89L269 90L268 89M299.333 89.6667L299.667 90.3333L299.333 89.6667M323.333 89.6667L323.667 90.3333L323.333 89.6667M419 89L420 90L419 89M430 89L431 90L430 89M571 89L572 90L571 89M97 90L98 91L97 90M108 90L109 91L108 90M255 90L256 91L255 90M309.333 90.6667L309.667 91.3333L309.333 90.6667M417 90L418 91L417 90M267 91L268 92L267 91M362 91L362 98L363 98L362 91M429 91L430 92L429 91M466 91L466 98L467 98L466 91M98 92L99 93L98 92M109 92L110 93L109 92M266 92L267 93L266 92M298.333 92.6667L298.667 93.3333L298.333 92.6667M313 92L314 93L313 92M324 92L325 93L324 92M428 92L429 93L428 92M522 92L523 93L522 92M265 93L266 94L265 93M308.333 93.6667L308.667 94.3333L308.333 93.6667M427 93L428 94L427 93M523 93L524 94L523 93M99 94L100 95L99 94M110 94L111 95L110 94M264 94L265 95L264 94M426 94L427 95L426 94M263 95L264 96L263 95M297 95L298 96L297 95M314 95L315 96L314 95M325 95L326 96L325 95M425 95L426 96L425 95M524 95L525 96L524 95M100 96L101 97L100 96z"/>
<path style="fill:#ffffff; stroke:none;" d="M112.333 96.6667L112.667 97.3333L112.333 96.6667z"/>
<path style="fill:#a4e0c2; stroke:none;" d="M159 96L159 99L160 99L159 96M265 96L266 97L265 96M307 96C307.904 100.217 312.356 99 316 99L316 98L307 96M427 96L428 97L427 96M525 96L526 97L525 96M266 97L267 98L266 97M428 97L429 98L428 97M571 97L572 98L571 97M101 98L102 99L101 98M112 98L113 99L112 98M206 98L206 107L228 107L228 106L207 106L206 98M296 98L297 99L296 98M326 98L327 99L326 98M351.333 99.6667L351.667 100.333L351.333 99.6667M429.333 99.6667L429.667 100.333L429.333 99.6667M455.333 99.6667L455.667 100.333L455.333 99.6667M527 99L528 100L527 99M102 100L103 101L102 100M148.333 100.667L148.667 101.333L148.333 100.667M169 100L169 101L178 101L169 100M254 100L255 101L254 100M267.333 100.667L267.667 101.333L267.333 100.667M295.333 100.667L295.667 101.333L295.333 100.667M380 100L380 101L390 101L380 100M416 100L417 101L416 100M484 100L484 101L494 101L484 100M528 100L529 101L528 100M103 101L104 102L103 101M160 101L161 102L160 101M327 101L328 102L327 101M363 101L364 102L363 101M379.333 101.667L379.667 102.333L379.333 101.667M467 101L468 102L467 101M483.333 101.667L483.667 102.333L483.333 101.667M515 101L516 102L515 101M177 102L178 103L177 102M256 102L257 103L256 102M418 102L419 103L418 102M516 102L517 103L516 102M529 102L530 103L529 102M104 103L105 104L104 103M161 103L162 104L161 103M294.333 103.667L294.667 104.333L294.333 103.667M328.333 103.667L328.667 104.333L328.333 103.667M352 103L353 104L352 103M364 103L365 104L364 103M389.333 103.667L389.667 104.333L389.333 103.667M456 103L457 104L456 103M468 103L469 104L468 103M493.333 103.667L493.667 104.333L493.333 103.667M530 103L531 104L530 103M149 104L150 105L149 104M162 104L163 105L162 104M176 104L177 105L176 104M365 104L366 105L365 104M469 104L470 105L469 104M105 105L106 106L105 105M163 105L164 106L163 105M175 105L176 106L175 105M353 105L354 106L353 105M366 105L367 106L366 105M377 105L378 106L377 105M457 105L458 106L457 105M470 105L471 106L470 105M481 105L482 106L481 105M518 105L519 106L518 105M150 106L151 107L150 106M165 106L166 107L165 106M173 106L174 107L173 106M293 106L294 107L293 106M329.333 106.667L329.667 107.333L329.333 106.667M368 106L369 107L368 106M375 106L376 107L375 106M388 106L389 107L388 106M472 106L473 107L472 106M479 106L480 107L479 106M492 106L493 107L492 106M519 106L520 107L519 106M532 106L533 107L532 106M168 107L168 108L171 108L168 107M354 107L355 108L354 107M419 107L419 113L420 113L419 107M458 107L459 108L458 107M533 107L534 108L533 107M107 108L108 109L107 108M151 108L152 109L151 108M387 108L388 109L387 108M430 108L430 112L431 112L430 108M491 108L492 109L491 108M520 108L521 109L520 108M152 109L153 110L152 109M292 109L293 110L292 109M318 109L319 110L318 109M330 109L331 110L330 109M355 109L356 110L355 109M459 109L460 110L459 109M521 109L522 110L521 109M534 109L535 110L534 109M108 110L109 111L108 110M153 110L154 111L153 110M268.333 110.667L268.667 111.333L268.333 110.667M303 110L304 111L303 110M356 110L357 111L356 110M460 110L461 111L460 110M535 110L536 111L535 110M154 111L155 112L154 111M179 111L181 113L181 111L179 111M257 111L257 114L258 114L257 111M357 111L358 112L357 111M385 111L386 112L385 111M461 111L462 112L461 111M489 111L490 112L489 111M522 111L523 112L522 111M109 112L110 113L109 112M155 112L156 113L155 112M178 112L179 113L178 112M291 112L292 113L291 112M319 112L320 113L319 112M331 112L332 113L331 112M358 112L359 113L358 112M384 112L385 113L384 112M462 112L463 113L462 112M488 112L489 113L488 112M523 112L524 113L523 112M110 113L111 114L110 113M156 113L157 114L156 113M177 113L178 114L177 113M269 113L270 114L269 113M302.333 113.667L302.667 114.333L302.333 113.667M360 113L361 114L360 113M382 113L383 114L382 113M431 113L432 114L431 113M464 113L465 114L464 113M486 113L487 114L486 113M537 113L538 114L537 113M158 114L159 115L158 114M175 114L176 115L175 114M290 114L291 115L290 114M362 114L363 115L362 114M381 114L382 115L381 114M466 114L467 115L466 114M485 114L486 115L485 114M538 114L539 115L538 114M111 115L111 116L123 116L111 115M131 115L131 116L142 116L131 115M160.667 115.333L161.333 115.667L160.667 115.333M173 115L174 116L173 115M181 115L181 116L188 116L181 115M195 115L195 116L228 116L195 115M258 115L258 116L270 116L258 115M276 115L276 116L287 116L276 115M291 115L291 116L302 116L291 115M321 115L321 116L332 116L321 115M364 115L365 116L364 115M378 115L379 116L378 115M420 115L420 116L432 116L420 115M438 115L438 116L449 116L438 115M468 115L469 116L468 115M482 115L483 116L482 115M526 115L526 116L538 116L526 115M589 115L589 116L599 116L589 115M164 116L164 117L171 117L164 116M367 116L367 117L376 117L367 116M471 116L471 117L480 117L471 116M194 140L194 141L197 141L194 140M211 140L211 141L214 141L211 140M230.667 140.333L231.333 140.667L230.667 140.333M249 140L249 141L252 141L249 140M449.667 140.333L450.333 140.667L449.667 140.333M498 140L498 141L501 141L498 140M517.667 140.333L518.333 140.667L517.667 140.333z"/>
<path style="fill:#04a652; stroke:none;" d="M171 159L175 159C176.928 155.502 179.122 155.125 183 155L187 159C186.508 155.716 183.28 140.206 178.364 141.752C174.151 143.076 171.886 155.17 171 159z"/>
<path style="fill:#a4e0c2; stroke:none;" d="M181 141L182 142L181 141M191 141L189 144L191 141z"/>
<path style="fill:#04a652; stroke:none;" d="M200 155L189 153C190.932 159.659 203.903 161.589 202.573 153.039C201.851 148.393 195.179 147.991 193 144L202 146C199.788 138.998 187.177 140.453 189.801 147.776C191.03 151.206 197.232 152.882 200 155z"/>
<path style="fill:#a4e0c2; stroke:none;" d="M199 141L200 142L199 141M208 141L206 144L208 141z"/>
<path style="fill:#04a652; stroke:none;" d="M217 155L206 153C207.932 159.659 220.903 161.589 219.573 153.039C218.851 148.393 212.179 147.991 210 144L219 146C216.788 138.998 204.177 140.453 206.801 147.776C208.03 151.206 214.232 152.882 217 155z"/>
<path style="fill:#a4e0c2; stroke:none;" d="M216 141L217 142L216 141M227 141L228 142L227 141z"/>
<path style="fill:#04a652; stroke:none;" d="M228.044 141.743C218.025 145.752 224.041 162.874 234.892 158.258C244.452 154.19 238.199 137.68 228.044 141.743z"/>
<path style="fill:#a4e0c2; stroke:none;" d="M235 141L236 142L235 141M246 141L247 142L246 141z"/>
<path style="fill:#04a652; stroke:none;" d="M258 153C255.574 153.375 252.45 155.553 250.069 155.098C245.606 154.245 245.314 147.112 249.214 145.323C251.789 144.141 255.362 146.594 258 147C254.74 137.935 242.322 140.242 242.199 150C242.074 159.858 254.764 161.998 258 153z"/>
<path style="fill:#a4e0c2; stroke:none;" d="M254 141L255 142L254 141M261 141L261 159L262 159L261 141z"/>
<path style="fill:#04a652; stroke:none;" d="M262 141L262 159L265 159L265 141L262 141z"/>
<path style="fill:#a4e0c2; stroke:none;" d="M265 141L265 159L266 159L265 141M273 141L274 142L273 141z"/>
<path style="fill:#04a652; stroke:none;" d="M268 159L272 155C275.878 155.125 278.072 155.502 280 159L284 159C283.114 155.17 280.849 143.076 276.636 141.752C271.72 140.206 268.492 155.716 268 159M284 141L284 144L289 144L289 159L293 159L293 144L298 144L298 141L284 141z"/>
<path style="fill:#a4e0c2; stroke:none;" d="M300 141L301 142L300 141z"/>
<path style="fill:#04a652; stroke:none;" d="M300 159L314 159L314 156L304 156L304 151L312 151L312 148L304 148L304 144L313 144L313 141C298.707 141 300 146.086 300 159z"/>
<path style="fill:#a4e0c2; stroke:none;" d="M313 141L313 144L314 144L313 141M323 141L323 159L324 159L323 141z"/>
<path style="fill:#04a652; stroke:none;" d="M324 141L324 159L327 159L327 147L328 147C329.027 151.973 329.242 158.001 335 159L337 147L338 147L338 159L341 159L341 141L336 141L333 153C330.642 147.52 331.002 141.545 324 141z"/>
<path style="fill:#a4e0c2; stroke:none;" d="M329 141L330 142L329 141M341 141L341 159L342 159L341 141M345 141L345 159L346 159L345 141z"/>
<path style="fill:#04a652; stroke:none;" d="M346 141L346 159L359 159L359 156L349 156L349 151L357 151L357 148L349 148L349 144L358 144L358 141L346 141z"/>
<path style="fill:#a4e0c2; stroke:none;" d="M358 141L358 144L359 144L358 141M361 141L361 159L362 159L361 141z"/>
<path style="fill:#04a652; stroke:none;" d="M362 141L362 159L365 159L365 147L366 147C367.719 159.762 373.281 159.762 375 147L376 147L376 159L379 159L379 141C372.382 141.528 372.153 147.412 371 153C368.386 147.793 368.841 141.545 362 141z"/>
<path style="fill:#a4e0c2; stroke:none;" d="M367.333 141.667L367.667 142.333L367.333 141.667M373.333 141.667L373.667 142.333L373.333 141.667M379 141L379 159L380 159L379 141M383 141L384 142L383 141z"/>
<path style="fill:#04a652; stroke:none;" d="M383 159C385.928 159 389.096 159.315 391.985 158.772C407.863 155.782 389.339 131.662 383.603 143.318C381.616 147.356 383 154.565 383 159z"/>
<path style="fill:#a4e0c2; stroke:none;" d="M393.667 141.333L394.333 141.667L393.667 141.333M400 141L400 159L401 159L400 141z"/>
<path style="fill:#04a652; stroke:none;" d="M401 141L401 159L414 159L414 156C409.217 155.983 405.547 156.098 404 151L413 151L413 148L404 148C406.289 143.849 409.579 144.016 414 144C411.261 139.776 405.57 141 401 141z"/>
<path style="fill:#a4e0c2; stroke:none;" d="M413 141L414 142L413 141z"/>
<path style="fill:#04a652; stroke:none;" d="M417 141L417 159L421 159L421 152C425.444 152.709 426.665 154.606 427 159L432 159L429 151C434.186 141.226 424.256 141.001 417 141z"/>
<path style="fill:#a4e0c2; stroke:none;" d="M427.667 141.333L428.333 141.667L427.667 141.333M442 145L447 142L442 145z"/>
<path style="fill:#04a652; stroke:none;" d="M447.019 141.746C436.695 145.698 442.098 162.53 452.981 158.396C462.525 154.77 457.408 137.769 447.019 141.746z"/>
<path style="fill:#a4e0c2; stroke:none;" d="M453 141L454 142L453 141M461 141L461 159L462 159L461 141z"/>
<path style="fill:#04a652; stroke:none;" d="M462 141L462 159L465 159L465 151L473 151L473 148L465 148L465 144L474 144L474 141L462 141M484 141L484 159L488 159C488 153.487 490.317 143.097 484 141z"/>
<path style="fill:#a4e0c2; stroke:none;" d="M487 141L488 142L487 141M495 141L496 142L495 141z"/>
<path style="fill:#04a652; stroke:none;" d="M507 153C504.539 153.38 501.442 155.548 499.019 155.098C494.519 154.262 493.988 146.954 498.133 145.252C500.685 144.204 504.369 146.629 507 147C503.493 137.25 490.528 140.868 491.149 151C491.735 160.577 503.984 161.386 507 153z"/>
<path style="fill:#a4e0c2; stroke:none;" d="M503 141L504 142L503 141M513 141L510 145L513 141z"/>
<path style="fill:#04a652; stroke:none;" d="M525 153C522.661 153.572 519.471 155.453 517.059 154.674C513.052 153.378 512.783 147.85 516.229 145.747C518.82 144.166 522.376 146.358 525 147C522.433 138.355 510.723 139.987 510.062 149C509.329 159.007 522.031 163.234 525 153z"/>
<path style="fill:#a4e0c2; stroke:none;" d="M521.667 141.333L522.333 141.667L521.667 141.333M176 142L177 143L176 142M201 142L202 143L201 142M218 142L219 143L218 142M225 142L226 143L225 142M236 142L237 143L236 142M244 142L245 143L244 142M256 142L257 143L256 142M278 142L279 143L278 142M335.333 142.667L335.667 143.333L335.333 142.667M455 142L456 143L455 142M493 142L494 143L493 142M505 142L506 143L505 142M523 142L524 143L523 142M224 143L225 144L224 143M237 143L238 144L237 143M396 143L397 144L396 143M456 143L457 144L456 143M492 143L493 144L492 143M524 143L525 144L524 143M175.333 144.667L175.667 145.333L175.333 144.667M182 144L183 145L182 144M193 144L194 145L193 144M197 144L198 145L197 144M202 144L199 146L199 147C201.348 146.706 202.951 146.507 202 144M210 144L211 145L210 144M214 144L215 145L214 144M219 144L216 146L216 147C218.348 146.706 219.951 146.507 219 144M229 144L229 145L233 145L229 144M238 144L239 145L238 144M243 144L244 145L243 144M249 144L249 145L253 145L249 144M257 144L258 145L257 144M272 144L273 145L272 144M279.333 144.667L279.667 145.333L279.333 144.667M284 144L284 145L289 145L284 144M293 144L293 145L298 145L293 144M304 144L304 145L313 145L304 144M330.333 144.667L330.667 145.333L330.333 144.667M349 144L349 148L350 148L350 145L358 145L349 144M387 144L387 145L392 145L387 144M405 144L405 145L414 145L405 144M421 144L421 145L426 145L421 144M448 144L448 145L452 145L448 144M465 144L465 148L466 148L466 145L474 145L465 144M497 144L497 145L501 145L497 144M506 144L507 145L506 144M516 144L516 145L520 145L516 144M198 145L199 146L198 145M215 145L216 146L215 145M223 145L224 146L223 145z"/>
<path style="fill:#ffffff; stroke:none;" d="M228.742 146.032C224.789 149.145 228.569 158.224 233.483 154.214C237.64 150.822 233.545 142.25 228.742 146.032z"/>
<path style="fill:#a4e0c2; stroke:none;" d="M234 145L235 146L234 145M247 145L248 146L247 145M253 145L254 146L253 145M368.333 145.667L368.667 146.333L368.333 145.667M372.333 145.667L372.667 146.333L372.333 145.667z"/>
<path style="fill:#ffffff; stroke:none;" d="M387 145L387 148L393 145L387 145z"/>
<path style="fill:#a4e0c2; stroke:none;" d="M397.333 145.667L397.667 146.333L397.333 145.667M404 145L404 148L405 148L404 145z"/>
<path style="fill:#ffffff; stroke:none;" d="M421 145L421 148L427 148L427 145L421 145z"/>
<path style="fill:#a4e0c2; stroke:none;" d="M431 145L431 148L432 148L431 145M446 145L447 146L446 145z"/>
<path style="fill:#ffffff; stroke:none;" d="M447.603 146.032C443.675 149.061 447.755 158.346 452.397 154.214C456.067 150.947 452.555 142.213 447.603 146.032z"/>
<path style="fill:#a4e0c2; stroke:none;" d="M457 145L458 146L457 145M491.333 145.667L491.667 146.333L491.333 145.667M496 145L497 146L496 145M502 145L503 146L502 145M525.333 145.667L525.667 146.333L525.333 145.667M179 146L178 148L180 148L179 146M183.333 146.667L183.667 147.333L183.333 146.667M227 146L228 147L227 146M239.333 146.667L239.667 147.333L239.333 146.667M242 146L243 147L242 146M258 146L259 147L258 146M271.333 146.667L271.667 147.333L271.333 146.667M275 146L275 148L277 148L275 146M334.333 146.667L334.667 147.333L334.333 146.667M427.333 146.667L427.667 147.333L427.333 146.667M441.333 146.667L441.667 147.333L441.333 146.667M495.333 146.667L495.667 147.333L495.333 146.667M521 146L522 147L521 146M174.333 147.667L174.667 148.333L174.333 147.667M194.667 147.333L195.333 147.667L194.667 147.333M211.667 147.333L212.333 147.667L211.667 147.333M222 147L222 153L223 153L222 147M235.333 147.667L235.667 148.333L235.333 147.667M246.333 147.667L246.667 148.333L246.333 147.667M255 147L255 148L258 148L255 147M280.333 147.667L280.667 148.333L280.333 147.667M327 147L327 159L328 159L327 147M337.333 147.667L337.667 148.333L337.333 147.667M365 147L365 159L366 159L365 147M375 147L375 159L376 159L375 147M392 147L393 148L392 147M445 147L445 153L446 153L445 147M458 147L458 153L459 153L458 147M503 147L503 148L507 148L503 147M509 147L509 154L510 154L509 147M522 147L522 148L525 148L522 147z"/>
<path style="fill:#ffffff; stroke:none;" d="M178 148L177 152L181 152L178 148z"/>
<path style="fill:#a4e0c2; stroke:none;" d="M189 148L190 149L189 148M198 148L199 149L198 148M206 148L207 149L206 148M215 148L216 149L215 148M226 148L226 152L227 152L226 148z"/>
<path style="fill:#ffffff; stroke:none;" d="M275 148L274 152L278 152L275 148z"/>
<path style="fill:#a4e0c2; stroke:none;" d="M312 148L312 151L313 151L312 148M331.333 148.667L331.667 149.333L331.333 148.667M357 148L357 151L358 151L357 148M396 148L397 149L396 148M421 148L421 149L427 149L421 148M454 148L454 152L455 152L454 148M513 148L513 153L514 153L513 148M180.333 149.667L180.667 150.333L180.333 149.667M184.333 149.667L184.667 150.333L184.333 149.667M201 149L202 150L201 149M218 149L219 150L218 149M270.333 149.667L270.667 150.333L270.333 149.667M274.333 149.667L274.667 150.333L274.333 149.667M369.333 149.667L369.667 150.333L369.333 149.667M371.333 149.667L371.667 150.333L371.333 149.667M430 149L431 150L430 149M173 150L174 151L173 150M177 150L178 151L177 150M191 150L192 151L191 150M202 150L203 151L202 150M208 150L209 151L208 150M219 150L220 151L219 150M277 150L278 151L277 150M281 150L282 151L281 150M333.333 150.667L333.667 151.333L333.333 150.667M429 150L430 151L429 150M193.667 151.333L194.333 151.667L193.667 151.333M210.667 151.333L211.333 151.667L210.667 151.333M235.333 151.667L235.667 152.333L235.333 151.667M304 151L304 152L312 152L304 151M336.333 151.667L336.667 152.333L336.333 151.667M349 151L349 156L359 156L359 155L350 155L350 152L357 152L349 151M387 151L387 152L393 155C393.867 151.14 390.061 151.1 387 151M397 151L398 152L397 151M404 151L404 155L405 155L405 152L413 152L404 151M430 151L431 152L430 151M465 151L465 159L466 159L466 152L473 152L465 151M185 152L186 153L185 152M197 152L198 153L197 152M214 152L215 153L214 152M220 152L220 155L221 155L220 152M239.333 152.667L239.667 153.333L239.333 152.667M246 152L247 153L246 152M255 152L255 153L258 153L255 152M269 152L270 153L269 152M332 152L333 153L332 152M370 152L371 153L370 152z"/>
<path style="fill:#ffffff; stroke:none;" d="M387 152L387 155L393 155L393 152L387 152z"/>
<path style="fill:#a4e0c2; stroke:none;" d="M421 152L421 153L426 153L421 152M441.333 152.667L441.667 153.333L441.333 152.667M495.333 152.667L495.667 153.333L495.333 152.667M503 152L503 153L507 153L503 152M522 152L522 153L525 153L522 152M172 153L173 154L172 153M188 153L189 154L188 153M192 153L193 154L192 153M203.333 153.667L203.667 154.333L203.333 153.667M209 153L210 154L209 153M242.333 153.667L242.667 154.333L242.333 153.667M258 153L259 154L258 153M282 153L283 154L282 153M329.333 153.667L329.667 154.333L329.333 153.667M426 153L427 154L426 153M521 153L522 154L521 153M525.333 153.667L525.667 154.333L525.333 153.667M199 154L200 155L199 154M216 154L217 155L216 154M234 154L235 155L234 154M247 154L248 155L247 154M253 154L254 155L253 154M367.333 154.667L367.667 155.333L367.333 154.667M373.333 154.667L373.667 155.333L373.333 154.667M446 154L447 155L446 154M491 154L492 155L491 154M496 154L497 155L496 154M502 154L503 155L502 154M176 155L176 156L183 157L176 155M186 155L187 156L186 155M194 155L195 156L194 155M198 155L199 156L198 155M211 155L212 156L211 155M215 155L216 156L215 155M223 155L224 156L223 155M229 155L230 156L229 155M232.667 155.333L233.333 155.667L232.667 155.333M238 155L239 156L238 155M248.667 155.333L249.333 155.667L248.667 155.333M251.667 155.333L252.333 155.667L251.667 155.333M257 155L258 156L257 155M268 155L269 156L268 155M272 157L279 156L272 157M304 155L304 156L314 156L304 155M335.333 155.667L335.667 156.333L335.333 155.667M387 155L387 156L392 156L387 155M397 155L398 156L397 155M405 155L405 156L414 156L405 155M442 155L443 156L442 155M448 155L449 156L448 155M451 155L452 156L451 155M457 155L458 156L457 155M497.667 155.333L498.333 155.667L497.667 155.333M500.667 155.333L501.333 155.667L500.667 155.333M506 155L507 156L506 155M510 155L511 156L510 155M516 155L517 156L516 155M518.667 155.333L519.333 155.667L518.667 155.333M171 156L172 157L171 156M175.333 156.667L175.667 157.333L175.333 156.667M189 156L190 157L189 156M202 156L203 157L202 156M206 156L207 157L206 156M219 156L220 157L219 156M224 156L225 157L224 156M243 156L244 157L243 156M279 156L280 157L279 156M283 156L284 157L283 156M456 156L457 157L456 156M492 156L493 157L492 156M524 156L525 157L524 156M190 157L191 158L190 157M207 157L208 158L207 157M225 157L226 158L225 157M244 157L245 158L244 157M256 157L257 158L256 157M330.333 157.667L330.667 158.333L330.333 157.667M396 157L397 158L396 157M455 157L456 158L455 157M493 157L494 158L493 157M523 157L524 158L523 157M170 158L171 159L170 158M183 158L184 159L183 158M187 158L188 159L187 158M191 158L192 159L191 158M200 158L201 159L200 158M208 158L209 159L208 158M217 158L218 159L217 158M226 158L227 159L226 158M235 158L236 159L235 158M246 158L247 159L246 158M254 158L255 159L254 158M267 158L268 159L267 158M271 158L272 159L271 158M284 158L285 159L284 158M368 158L369 159L368 158M372 158L373 159L372 158M394 158L395 159L394 158M445 158L446 159L445 158M454 158L455 159L454 158M494 158L495 159L494 158M503 158L504 159L503 158M513 158L514 159L513 158M522 158L523 159L522 158M194 159L194 160L199 160L194 159M211 159L211 160L216 160L211 159M229 159L229 160L234 160L229 159M248 159L248 160L253 160L248 159M448 159L448 160L452 160L448 159M497 159L497 160L502 160L497 159M515 159L515 160L520 160L515 159z"/>
<path style="fill:#fff102; stroke:none;" d="M527 169L263 169L195 169C189.343 169 175.15 166.427 170.603 170.028C166.594 173.204 168.002 192.831 168 198C167.989 225.687 167.199 253.457 169.83 281C179.18 378.854 208.945 475.737 291 537.373C306.768 549.218 325.977 563.974 345 570.019C353.194 572.622 366.07 563.004 373 559.138C399.098 544.579 423.779 525.73 443.271 503C502.447 433.991 524.063 344.007 527.961 255C529.216 226.339 527 197.588 527 169z"/>
<path style="fill:#9fd51f; stroke:none;" d="M204 177L205 178L204 177z"/>
<path style="fill:#04a652; stroke:none;" d="M205 177L205 178C233.35 187.654 245.038 215.73 268 232.254C294.998 251.681 327.843 255.764 353 279C373.557 252.037 408.75 251.368 435 233.64C458.361 217.864 470.148 190.551 497 178L470 177L411 177L205 177z"/>
<path style="fill:#9fd51f; stroke:none;" d="M497 177L498 178L497 177M206 178L207 179L206 178M495 178L496 179L495 178M209 179L210 180L209 179M493 179L494 180L493 179M211 180L212 181L211 180M213 181L214 182L213 181M490 181L491 182L490 181M215 182L216 183L215 182M488 182L489 183L488 182M217 183L218 184L217 183M218 184L219 185L218 184M485 184L486 185L485 184M220 185L221 186L220 185M482 186L483 187L482 186M223 187L224 188L223 187M224 188L225 189L224 188M478 189L479 190L478 189M227 190L228 191L227 190M477 190L478 191L477 190M228 191L229 192L228 191M229 192L230 193L229 192M472 194L473 195L472 194z"/>
<path style="fill:#ffffff; stroke:none;" d="M328 195L328 241L339 241L339 213L340 213C342.118 220.351 348.706 235.802 355.379 239.972C358.664 242.025 364.279 241 368 241L368 195L357 195L357 224C352.777 216.765 347.496 199.232 339.621 195.603C336.404 194.121 331.472 195 328 195z"/>
<path style="fill:#a4e0c2; stroke:none;" d="M356 195L356 214L357 214L356 195z"/>
<path style="fill:#9fd51f; stroke:none;" d="M471 195L472 196L471 195z"/>
<path style="fill:#a4e0c2; stroke:none;" d="M341 196L342 197L341 196z"/>
<path style="fill:#9fd51f; stroke:none;" d="M470 196L471 197L470 196M469 197L470 198L469 197z"/>
<path style="fill:#a4e0c2; stroke:none;" d="M342 198L343 199L342 198z"/>
<path style="fill:#9fd51f; stroke:none;" d="M468 198L469 199L468 198z"/>
<path style="fill:#a4e0c2; stroke:none;" d="M343 199L344 200L343 199z"/>
<path style="fill:#9fd51f; stroke:none;" d="M467 199L468 200L467 199M466 200L467 201L466 200z"/>
<path style="fill:#a4e0c2; stroke:none;" d="M344 201L345 202L344 201z"/>
<path style="fill:#9fd51f; stroke:none;" d="M465 201L466 202L465 201M464 202L465 203L464 202z"/>
<path style="fill:#a4e0c2; stroke:none;" d="M345 203L346 204L345 203z"/>
<path style="fill:#9fd51f; stroke:none;" d="M463 203L464 204L463 203M241 204L242 205L241 204M462 204L463 205L462 204M242 205L243 206L242 205M461 205L462 206L461 205M243 206L244 207L243 206z"/>
<path style="fill:#a4e0c2; stroke:none;" d="M347 206L348 207L347 206z"/>
<path style="fill:#9fd51f; stroke:none;" d="M460 206L461 207L460 206M459 207L460 208L459 207z"/>
<path style="fill:#a4e0c2; stroke:none;" d="M348 208L349 209L348 208z"/>
<path style="fill:#9fd51f; stroke:none;" d="M246 210L247 211L246 210z"/>
<path style="fill:#a4e0c2; stroke:none;" d="M349 210L350 211L349 210z"/>
<path style="fill:#9fd51f; stroke:none;" d="M247 211L248 212L247 211M248 212L249 213L248 212M455 212L456 213L455 212z"/>
<path style="fill:#a4e0c2; stroke:none;" d="M339 213L340 214L339 213M351 213L352 214L351 213z"/>
<path style="fill:#9fd51f; stroke:none;" d="M454 213L455 214L454 213M453 214L454 215L453 214z"/>
<path style="fill:#a4e0c2; stroke:none;" d="M340 215L341 216L340 215M352 215L353 216L352 215z"/>
<path style="fill:#9fd51f; stroke:none;" d="M452 215L453 216L452 215M252 217L253 218L252 217z"/>
<path style="fill:#a4e0c2; stroke:none;" d="M341 217L342 218L341 217M353 217L354 218L353 217z"/>
<path style="fill:#9fd51f; stroke:none;" d="M253 218L254 219L253 218M254 219L255 220L254 219z"/>
<path style="fill:#a4e0c2; stroke:none;" d="M342 219L343 220L342 219M354 219L355 220L354 219z"/>
<path style="fill:#9fd51f; stroke:none;" d="M449 219L450 220L449 219M175 220L176 221L175 220M255 220L256 221L255 220M448 220L449 221L448 220z"/>
<path style="fill:#04a652; stroke:none;" d="M175 221C175 311.195 186.79 407.234 243.651 481C256.247 497.34 270.981 512.391 287 525.389C293.615 530.757 300.782 537.381 309 540C311.961 527.533 321.838 518.309 321.996 505C322.205 487.42 311.132 473.028 314.464 455C317.59 438.082 332.327 423.655 330.907 406C329.975 394.413 319.99 385.724 318.3 374C315.485 354.461 324.974 336.518 311.471 319C291.94 293.662 257.239 292.303 233 273.764C212.407 258.014 204.116 225.361 175 221z"/>
<path style="fill:#9fd51f; stroke:none;" d="M178.667 221.333L179.333 221.667L178.667 221.333M256 221L257 222L256 221z"/>
<path style="fill:#a4e0c2; stroke:none;" d="M339 221L339 241L328 241L328 242L340 242L339 221M343 221L344 222L343 221M355 221L356 222L355 221z"/>
<path style="fill:#9fd51f; stroke:none;" d="M447 221L448 222L447 221M181 222L182 223L181 222M257 222L258 223L257 222M446 222L447 223L446 222M183.667 223.333L184.333 223.667L183.667 223.333M258 223L259 224L258 223z"/>
<path style="fill:#a4e0c2; stroke:none;" d="M344 223L345 224L344 223M356 223L357 224L356 223M345 224L346 225L345 224z"/>
<path style="fill:#9fd51f; stroke:none;" d="M187 225L188 226L187 225M189 226L190 227L189 226z"/>
<path style="fill:#a4e0c2; stroke:none;" d="M346 226L347 227L346 226z"/>
<path style="fill:#9fd51f; stroke:none;" d="M443 226L444 227L443 226M442 227L443 228L442 227M520 227L521 228L520 227M192 228L193 229L192 228M263 228L264 229L263 228z"/>
<path style="fill:#a4e0c2; stroke:none;" d="M347 228L348 229L347 228z"/>
<path style="fill:#9fd51f; stroke:none;" d="M441 228L442 229L441 228z"/>
<path style="fill:#04a652; stroke:none;" d="M380 546C403.715 534.781 425.241 513.624 442.13 494C504.587 421.432 521 320.77 521 228C514.224 231.16 510.007 237.697 504.961 243C495.428 253.021 486.039 263.321 475 271.764C450.066 290.834 406.951 293.507 390.349 322C374.852 348.595 387.514 375.993 387.139 404C386.921 420.322 375.842 431.655 374.174 447C372.545 461.977 378.899 475.312 379.91 490C381.219 508.998 377.571 526.884 380 546z"/>
<path style="fill:#9fd51f; stroke:none;" d="M193 229L194 230L193 229M264 229L265 230L264 229M440 229L441 230L440 229M265 230L266 231L265 230M439 230L440 231L439 230M196 231L197 232L196 231z"/>
<path style="fill:#a4e0c2; stroke:none;" d="M349 231L350 232L349 231z"/>
<path style="fill:#9fd51f; stroke:none;" d="M197 232L198 233L197 232M268 232L269 233L268 232M436 232L437 233L436 232M198 233L199 234L198 233M269 233L270 234L269 233z"/>
<path style="fill:#a4e0c2; stroke:none;" d="M350 233L351 234L350 233z"/>
<path style="fill:#9fd51f; stroke:none;" d="M435 233L436 234L435 233M199 234L200 235L199 234M271 234L272 235L271 234M433 234L434 235L433 234M200 235L201 236L200 235z"/>
<path style="fill:#a4e0c2; stroke:none;" d="M351 235L352 236L351 235z"/>
<path style="fill:#9fd51f; stroke:none;" d="M432 235L433 236L432 235M201 236L202 237L201 236M274 236L275 237L274 236z"/>
<path style="fill:#a4e0c2; stroke:none;" d="M352 236L353 237L352 236z"/>
<path style="fill:#9fd51f; stroke:none;" d="M430 236L431 237L430 236M202 237L203 238L202 237M276 237L277 238L276 237M428 237L429 238L428 237M203 238L204 239L203 238M278 238L279 239L278 238z"/>
<path style="fill:#a4e0c2; stroke:none;" d="M353 238L354 239L353 238z"/>
<path style="fill:#9fd51f; stroke:none;" d="M426 238L427 239L426 238M204 239L205 240L204 239M280 239L281 240L280 239M424 239L425 240L424 239M508 239L509 240L508 239M205 240L206 241L205 240M282 240L283 241L282 240z"/>
<path style="fill:#a4e0c2; stroke:none;" d="M354 240L355 241L354 240z"/>
<path style="fill:#9fd51f; stroke:none;" d="M421 240L422 241L421 240M507 240L508 241L507 240M206 241L207 242L206 241M284 241L285 242L284 241z"/>
<path style="fill:#a4e0c2; stroke:none;" d="M355 241L355 242L368 242L355 241z"/>
<path style="fill:#9fd51f; stroke:none;" d="M419 241L420 242L419 241M506 241L507 242L506 241M286 242L287 243L286 242M416 242L417 243L416 242M505 242L506 243L505 242M288 243L289 244L288 243M414 243L415 244L414 243M504 243L505 244L504 243M291 244L292 245L291 244M411 244L412 245L411 244M209 245L210 246L209 245M293 245L294 246L293 245M408.667 245.333L409.333 245.667L408.667 245.333M210 246L211 247L210 246M295.667 246.333L296.333 246.667L295.667 246.333M406 246L407 247L406 246M298 247L299 248L298 247M403 247L404 248L403 247M300.667 248.333L301.333 248.667L300.667 248.333M400 248L401 249L400 248M303 249L304 250L303 249M398 249L399 250L398 249M213 250L214 251L213 250M305.667 250.333L306.333 250.667L305.667 250.333M395 250L396 251L395 250M308 251L309 252L308 251M393 251L394 252L393 251M497 251L498 252L497 251M520 251L520 263L521 263L520 251M310.667 252.333L311.333 252.667L310.667 252.333M390 252L391 253L390 252M496 252L497 253L496 252M215 253L216 254L215 253M313 253L314 254L313 253M388 253L389 254L388 253M495 253L496 254L495 253M175 254L175 267L176 267L175 254M315 254L316 255L315 254M386 254L387 255L386 254M494 254L495 255L494 254M318 255L319 256L318 255M384 255L385 256L384 255M493 255L494 256L493 255M217 256L218 257L217 256M320 256L321 257L320 256M382 256L383 257L382 256M492 256L493 257L492 256M322 257L323 258L322 257M380 257L381 258L380 257M491 257L492 258L491 257M324 258L325 259L324 258M378 258L379 259L378 258M219 259L220 260L219 259M326 259L327 260L326 259M376 259L377 260L376 259M328 260L329 261L328 260M374 260L375 261L374 260M330 261L331 262L330 261M486 261L487 262L486 261M221 262L222 263L221 262M332 262L333 263L332 262M371 262L372 263L371 262M485 262L486 263L485 262M484 263L485 264L484 263M335 264L336 265L335 264M368 264L369 265L368 264M483 264L484 265L483 264M482 265L483 266L482 265M224 266L225 267L224 266M338 266L339 267L338 266M365 266L366 267L365 266M481 266L482 267L481 266M225 267L226 268L225 267M364 267L365 268L364 267M480 267L481 268L480 267M226 268L227 269L226 268M341 268L342 269L341 268M479 268L480 269L479 268M227 269L228 270L227 269M228 270L229 271L228 270M360 270L361 271L360 270M345 271L346 272L345 271M359 271L360 272L359 271M475 271L476 272L475 271M346 272L347 273L346 272M358 272L359 273L358 272M474 272L475 273L474 272M519 272L519 279L520 279L519 272M232 273L233 274L232 273M347 273L348 274L347 273M357 273L358 274L357 273M233 274L234 275L233 274M348 274L349 275L348 274M356 274L357 275L356 274M471 274L472 275L471 274M349 275L350 276L349 275M355 275L356 276L355 275M176 276L176 283L177 283L176 276M236 276L237 277L236 276M350 276L351 277L350 276M354 276L355 277L354 276M468 276L469 277L468 276M238 277L239 278L238 277M351 277L352 278L351 277M239 278L240 279L239 278M465 278L466 279L465 278M241 279L242 280L241 279M463 279L464 280L463 279M243 280L244 281L243 280M462 280L463 281L462 280M245 281L246 282L245 281M460 281L461 282L460 281M247 282L248 283L247 282M458 282L459 283L458 282M249 283L250 284L249 283M456 283L457 284L456 283M251 284L252 285L251 284M454 284L455 285L454 284M253 285L254 286L253 285M452 285L453 286L452 285M255 286L256 287L255 286M450 286L451 287L450 286M518 286L518 291L519 291L518 286M257 287L258 288L257 287M447 287L448 288L447 287M260 288L261 289L260 288M445 288L446 289L445 288M177 289L177 294L178 294L177 289M262 289L263 290L262 289M442.667 289.333L443.333 289.667L442.667 289.333M265 290L266 291L265 290M440 290L441 291L440 290M267.667 291.333L268.333 291.667L267.667 291.333M437 291L438 292L437 291M270 292L271 293L270 292M435 292L436 293L435 292M273 293L274 294L273 293M432 293L433 294L432 293M276 294L277 295L276 294M429.667 294.333L430.333 294.667L429.667 294.333M278 295L279 296L278 295M427 295L428 296L427 295M281 296L282 297L281 296M424 296L425 297L424 296M517 296L517 301L518 301L517 296M283 297L284 298L283 297M422 297L423 298L422 297M285 298L286 299L285 298M419 298L420 299L419 298M178 299L178 304L179 304L178 299M287 299L288 300L287 299M417 299L418 300L417 299M288 300L289 301L288 300M415 300L416 301L415 300M413 301L414 302L413 301M291 302L292 303L291 302M293 303L294 304L293 303M410 303L411 304L410 303M296 305L297 306L296 305M516 305L516 309L517 309L516 305M297 306L298 307L297 306M406 306L407 307L406 306M404 307L405 308L404 307M179 308L179 312L180 312L179 308M300 308L301 309L300 308M301 309L302 310L301 309M401 309L402 310L401 309M400 310L401 311L400 310M305 312L306 313L305 312M306 313L307 314L306 313M515 313L515 317L516 317L515 313M307 314L308 315L307 314M308 315L309 316L308 315M180 316L180 319L181 319L180 316M394 316L395 317L394 316M393 317L394 318L393 317M392 318L393 319L392 318M312 320L313 321L312 320M514 320L514 323L515 323L514 320M390 321L391 322L390 321M181 323L181 326L182 326L181 323M314 323L315 324L314 323M389 323L390 324L389 323M315 325L316 326L315 325M388 325L389 326L388 325M316 327L317 328L316 327M387 327L388 328L387 327M513.333 327.667L513.667 328.333L513.333 327.667M182 329L182 332L183 332L182 329M317 329L318 330L317 329M386.333 329.667L386.667 330.333L386.333 329.667M318.333 332.667L318.667 333.333L318.333 332.667M385.333 332.667L385.667 333.333L385.333 332.667M512.333 333.667L512.667 334.333L512.333 333.667M183 335L183 338L184 338L183 335M384.333 335.667L384.667 336.333L384.333 335.667M319 336L319 339L320 339L319 336M511 338L511 341L512 341L511 338M383.333 340.667L383.667 341.333L383.333 340.667M184.333 341.667L184.667 342.333L184.333 341.667M510 343L510 346L511 346L510 343M185.333 346.667L185.667 347.333L185.333 346.667M382 346L382 350L383 350L382 346M319 348L319 351L320 351L319 348M509.333 348.667L509.667 349.333L509.333 348.667M186 350L186 353L187 353L186 350M508.333 353.667L508.667 354.333L508.333 353.667M318 354L318 358L319 358L318 354M187.333 355.667L187.667 356.333L187.333 355.667M507.333 357.667L507.667 358.333L507.333 357.667M188.333 359.667L188.667 360.333L188.333 359.667M506 362L507 363L506 362M189.333 363.667L189.667 364.333L189.333 363.667M382 364L382 370L383 370L382 364z"/>
<path style="fill:#a4e0c2; stroke:none;" d="M257 366L257 367L266 367L257 366z"/>
<path style="fill:#9fd51f; stroke:none;" d="M505 366L506 367L505 366M190.333 367.667L190.667 368.333L190.333 367.667z"/>
<path style="fill:#a4e0c2; stroke:none;" d="M253.667 367.333L254.333 367.667L253.667 367.333z"/>
<path style="fill:#ffffff; stroke:none;" d="M281 398L270 398C261.293 422.995 235.223 378.254 261 376.533C265.992 376.2 267.475 380.661 271.375 382.397C274.141 383.629 278.04 383 281 383C278.823 358.83 240.94 363.498 239.093 386C238.334 395.251 239.282 404.429 247.015 410.606C259.63 420.684 278.626 413.839 281 398z"/>
<path style="fill:#a4e0c2; stroke:none;" d="M268.667 367.333L269.333 367.667L268.667 367.333M438 414L439 414L439 368L472 368L459 367L439.603 368.028L438 380L438 414M250.667 368.333L251.333 368.667L250.667 368.333M271 368L272 369L271 368z"/>
<path style="fill:#ffffff; stroke:none;" d="M439 368L439 414L450 414L450 396L469 396L469 387L450 387L450 377L472 377L472 368L439 368z"/>
<path style="fill:#a4e0c2; stroke:none;" d="M249 369L250 370L249 369M273 369L274 370L273 369z"/>
<path style="fill:#9fd51f; stroke:none;" d="M504.333 369.667L504.667 370.333L504.333 369.667z"/>
<path style="fill:#a4e0c2; stroke:none;" d="M247 370L248 371L247 370z"/>
<path style="fill:#9fd51f; stroke:none;" d="M191.333 371.667L191.667 372.333L191.333 371.667z"/>
<path style="fill:#a4e0c2; stroke:none;" d="M246 371L247 372L246 371M276 371L277 372L276 371M245 372L246 373L245 372M244 373L245 374L244 373z"/>
<path style="fill:#9fd51f; stroke:none;" d="M383.333 373.667L383.667 374.333L383.333 373.667M503.333 373.667L503.667 374.333L503.333 373.667z"/>
<path style="fill:#a4e0c2; stroke:none;" d="M243 374L244 375L243 374M278 374L279 375L278 374z"/>
<path style="fill:#9fd51f; stroke:none;" d="M318.333 374.667L318.667 375.333L318.333 374.667M192 375L193 376L192 375z"/>
<path style="fill:#a4e0c2; stroke:none;" d="M242 375L243 376L242 375M279 375L280 376L279 375M259 376L259 377L264 377L259 376M241 377L242 378L241 377M256 377L257 378L256 377M266 377L267 378L266 377M280.333 377.667L280.667 378.333L280.333 377.667M450 377L450 387L451 387L451 378L472 378L450 377z"/>
<path style="fill:#9fd51f; stroke:none;" d="M502 377L503 378L502 377M193.333 378.667L193.667 379.333L193.333 378.667z"/>
<path style="fill:#a4e0c2; stroke:none;" d="M255 378L256 379L255 378M267 378L268 379L267 378z"/>
<path style="fill:#9fd51f; stroke:none;" d="M384.333 378.667L384.667 379.333L384.333 378.667z"/>
<path style="fill:#a4e0c2; stroke:none;" d="M240 379L241 380L240 379M268 379L269 380L268 379z"/>
<path style="fill:#9fd51f; stroke:none;" d="M319 379L320 380L319 379z"/>
<path style="fill:#a4e0c2; stroke:none;" d="M253 380L254 381L253 380z"/>
<path style="fill:#9fd51f; stroke:none;" d="M501.333 380.667L501.667 381.333L501.333 380.667z"/>
<path style="fill:#a4e0c2; stroke:none;" d="M239.333 381.667L239.667 382.333L239.333 381.667M252 381L253 382L252 381M269 381L270 382L269 381M281.333 381.667L281.667 382.333L281.333 381.667z"/>
<path style="fill:#9fd51f; stroke:none;" d="M194 382L195 383L194 382M320 382L321 383L320 382M385 383L385 386L386 386L385 383z"/>
<path style="fill:#a4e0c2; stroke:none;" d="M251 384L252 385L251 384z"/>
<path style="fill:#9fd51f; stroke:none;" d="M500 384L501 385L500 384M195 385L196 386L195 385z"/>
<path style="fill:#a4e0c2; stroke:none;" d="M238 385L238 397L239 397L238 385z"/>
<path style="fill:#9fd51f; stroke:none;" d="M321 385L322 386L321 385z"/>
<path style="fill:#a4e0c2; stroke:none;" d="M250 387L250 395L251 395L250 387z"/>
<path style="fill:#9fd51f; stroke:none;" d="M322 387L323 388L322 387M499 387L500 388L499 387M196.333 388.667L196.667 389.333L196.333 388.667M386 389L386 393L387 393L386 389M324 390L325 391L324 390M498 390L499 391L498 390M197.333 391.667L197.667 392.333L197.333 391.667M325 392L326 393L325 392M497 393L498 394L497 393M198.333 394.667L198.667 395.333L198.333 394.667M327 395L328 396L327 395z"/>
<path style="fill:#a4e0c2; stroke:none;" d="M450 396L450 414L451 414L451 397L469 397L450 396z"/>
<path style="fill:#9fd51f; stroke:none;" d="M496 396L497 397L496 396M199 397L200 398L199 397z"/>
<path style="fill:#a4e0c2; stroke:none;" d="M251.333 397.667L251.667 398.333L251.333 397.667z"/>
<path style="fill:#9fd51f; stroke:none;" d="M328 397L329 398L328 397z"/>
<path style="fill:#a4e0c2; stroke:none;" d="M281 398L282 399L281 398M239.333 399.667L239.667 400.333L239.333 399.667z"/>
<path style="fill:#9fd51f; stroke:none;" d="M329 399L330 400L329 399M495 399L496 400L495 399M200 400L201 401L200 400z"/>
<path style="fill:#a4e0c2; stroke:none;" d="M252 400L253 401L252 400M269 400L270 401L269 400M280.333 401.667L280.667 402.333L280.333 401.667z"/>
<path style="fill:#9fd51f; stroke:none;" d="M330.333 401.667L330.667 402.333L330.333 401.667z"/>
<path style="fill:#a4e0c2; stroke:none;" d="M240 402L241 403L240 402M268 402L269 403L268 402z"/>
<path style="fill:#9fd51f; stroke:none;" d="M387.333 402.667L387.667 403.333L387.333 402.667M494 402L495 403L494 402M201 403L202 404L201 403z"/>
<path style="fill:#a4e0c2; stroke:none;" d="M255 403L256 404L255 403M267 403L268 404L267 403M241 404L242 405L241 404M256 404L257 405L256 404M265 404L266 405L265 404M279 404L280 405L279 404z"/>
<path style="fill:#9fd51f; stroke:none;" d="M493.333 404.667L493.667 405.333L493.333 404.667M202.333 405.667L202.667 406.333L202.333 405.667z"/>
<path style="fill:#a4e0c2; stroke:none;" d="M259 405L259 406L263 406L259 405z"/>
<path style="fill:#9fd51f; stroke:none;" d="M331 405L331 411L332 411L331 405z"/>
<path style="fill:#a4e0c2; stroke:none;" d="M242 406L243 407L242 406M278 406L279 407L278 406M243 407L244 408L243 407z"/>
<path style="fill:#9fd51f; stroke:none;" d="M492 407L493 408L492 407M203 408L204 409L203 408z"/>
<path style="fill:#a4e0c2; stroke:none;" d="M244 408L245 409L244 408M245 409L246 410L245 409M276 409L277 410L276 409M246 410L247 411L246 410M275 410L276 411L275 410z"/>
<path style="fill:#9fd51f; stroke:none;" d="M491 410L492 411L491 410M204 411L205 412L204 411z"/>
<path style="fill:#a4e0c2; stroke:none;" d="M247 411L248 412L247 411M249 412L250 413L249 412M272 412L273 413L272 412z"/>
<path style="fill:#9fd51f; stroke:none;" d="M386 412L386 415L387 415L386 412M490 412L491 413L490 412M205 413L206 414L205 413z"/>
<path style="fill:#a4e0c2; stroke:none;" d="M251 413L252 414L251 413M270 413L271 414L270 413M253.667 414.333L254.333 414.667L253.667 414.333M267.667 414.333L268.333 414.667L267.667 414.333z"/>
<path style="fill:#9fd51f; stroke:none;" d="M330.333 414.667L330.667 415.333L330.333 414.667z"/>
<path style="fill:#a4e0c2; stroke:none;" d="M258 415L258 416L263 416L258 415z"/>
<path style="fill:#9fd51f; stroke:none;" d="M489 415L490 416L489 415M206 416L207 417L206 416M385.333 417.667L385.667 418.333L385.333 417.667M488 417L489 418L488 417M207 418L208 419L207 418M329 418L330 419L329 418M208 420L209 421L208 420M487 420L488 421L487 420M328 421L329 422L328 421M384 421L385 422L384 421M486 422L487 423L486 422M209 423L210 424L209 423M327 423L328 424L327 423M383 424L384 425L383 424M485 424L486 425L485 424M210 425L211 426L210 425M326 425L327 426L326 425M382 426L383 427L382 426M484 426L485 427L484 426M211 427L212 428L211 427M325 427L326 428L325 427M381 428L382 429L381 428M212 429L213 430L212 429M324 429L325 430L324 429M483 429L484 430L483 429M380 430L381 431L380 430M213 431L214 432L213 431M323 431L324 432L323 431M482 431L483 432L482 431M379 432L380 433L379 432M214 433L215 434L214 433M322 433L323 434L322 433M481 433L482 434L481 433M378 434L379 435L378 434M215 435L216 436L215 435M321 435L322 436L321 435M480 435L481 436L480 435M377 436L378 437L377 436M216 437L217 438L216 437M320 437L321 438L320 437M479 437L480 438L479 437M376 438L377 439L376 438M217 439L218 440L217 439M319 439L320 440L319 439M478 439L479 440L478 439M375 440L376 441L375 440M218 441L219 442L218 441M477 441L478 442L477 441M318 442L319 443L318 442M219 443L220 444L219 443M374.333 443.667L374.667 444.333L374.333 443.667M476 443L477 444L476 443M317 444L318 445L317 444M220 445L221 446L220 445M475 445L476 446L475 445M474 446L475 447L474 446M221 447L222 448L221 447M316 447L317 448L316 447M222 448L223 449L222 448M373 448L373 459L374 459L373 448M473 448L474 449L473 448M223 450L224 451L223 450M315.333 450.667L315.667 451.333L315.333 450.667M472 450L473 451L472 450M224 452L225 453L224 452M471 452L472 453L471 452M314 454L314 457L315 457L314 454M226 455L227 456L226 455M469 455L470 456L469 455M227 457L228 458L227 457M468 457L469 458L468 457M229 460L230 461L229 460M466 460L467 461L466 460M313 462L313 467L314 467L313 462M465 462L466 463L465 462M231 463L232 464L231 463M374.333 463.667L374.667 464.333L374.333 463.667M464 463L465 464L464 463M232 465L233 466L232 465M463 465L464 466L463 465M233 466L234 467L233 466M375.333 467.667L375.667 468.333L375.333 467.667M234 468L235 469L234 468M461 468L462 469L461 468M235 469L236 470L235 469M376.333 471.667L376.667 472.333L376.333 471.667M459 471L460 472L459 471M237 472L238 473L237 472M314.333 472.667L314.667 473.333L314.333 472.667M458 472L459 473L458 472M239 475L240 476L239 475M377.333 475.667L377.667 476.333L377.333 475.667M456 475L457 476L456 475M240 476L241 477L240 476M315.333 476.667L315.667 477.333L315.333 476.667M454 478L455 479L454 478M242 479L243 480L242 479M316.333 479.667L316.667 480.333L316.333 479.667M453 479L454 480L453 479M243 480L244 481L243 480M378.333 480.667L378.667 481.333L378.333 480.667M317 482L318 483L317 482M451 482L452 483L451 482M450 483L451 484L450 483M246 484L247 485L246 484M247 485L248 486L247 485M318 485L319 486L318 485M379 486L379 489L380 489L379 486M319.333 487.667L319.667 488.333L319.333 487.667M447 487L448 488L447 487M446 488L447 489L446 488M250 489L251 490L250 489M251 490L252 491L251 490M320.333 490.667L320.667 491.333L320.333 490.667M252 491L253 492L252 491M321.333 493.667L321.667 494.333L321.333 493.667M442 493L443 494L442 493M441 494L442 495L441 494M440 495L441 496L440 495M256 496L257 497L256 496M257 497L258 498L257 497M258 498L259 499L258 498M322 498L322 507L323 507L322 498M259 499L260 500L259 499M260 500L261 501L260 500M261 501L262 502L261 501M262 502L263 503L262 502M434 502L435 503L434 502M263 503L264 504L263 503M433 503L434 504L433 503M264 504L265 505L264 504M432 504L433 505L432 504M431 505L432 506L431 505M379 506L379 510L380 510L379 506M430 506L431 507L430 506M267 507L268 508L267 507M429 507L430 508L429 507M268 508L269 509L268 508M428 508L429 509L428 508M269 509L270 510L269 509M427 509L428 510L427 509M270 510L271 511L270 510M426 510L427 511L426 510M271 511L272 512L271 511M321.333 511.667L321.667 512.333L321.333 511.667M425 511L426 512L425 511M272 512L273 513L272 512M424 512L425 513L424 512M273 513L274 514L273 513M378 513L378 516L379 516L378 513M423 513L424 514L423 513M274 514L275 515L274 514M275 515L276 516L275 515M320 515L321 516L320 515M319 517L320 518L319 517M318 519L319 520L318 519M416 519L417 520L416 519M281 520L282 521L281 520M415 520L416 521L415 520M282 521L283 522L282 521M317 521L318 522L317 521M377 521L377 531L378 531L377 521M414 521L415 522L414 521M283 522L284 523L283 522M316 523L317 524L316 523M287 525L288 526L287 525M409 525L410 526L409 525M288 526L289 527L288 526M314 526L315 527L314 526M408 526L409 527L408 526M313 528L314 529L313 528M292 529L293 530L292 529M404 529L405 530L404 529M293 530L294 531L293 530M312 530L313 531L312 530M403 530L404 531L403 530M296 532L297 533L296 532M311 532L312 533L311 532M400 532L401 533L400 532M297 533L298 534L297 533M399 533L400 534L399 533M310.333 534.667L310.667 535.333L310.333 534.667M300 535L301 536L300 535M396 535L397 536L396 535M378 536L378 539L379 539L378 536M303 537L304 538L303 537M309.333 537.667L309.667 538.333L309.333 537.667M393 537L394 538L393 537M304 538L305 539L304 538M392 538L393 539L392 538M306 539L307 540L306 539M390 539L391 540L390 539M307.667 540.333L308.333 540.667L307.667 540.333M389 540L390 541L389 540M387 541L388 542L387 541M379.333 542.667L379.667 543.333L379.333 542.667M386 542L387 543L386 542M384 543L385 544L384 543M381 545L382 546L381 545z"/>
<path style="fill:#a4e0c2; stroke:none;" d="M467 595L467 596L474 596L467 595M161 596L161 597L191 597L191 606C197.234 591.138 169.285 596 161 596M195 639L196 639L196 597L228 597L204 596L196.028 597.603L195 609L195 639M234 596L234 597L255 597L234 596M277 596L277 597L309 597L309 605L288 605L288 613L307 613L307 621L288 621L288 630L289 630L289 622C293.685 622 301.423 623.493 305.682 621.397C308.429 620.045 308.77 614.908 306.397 613.028C302.84 610.21 293.362 612 289 612L289 606C294.182 606 302.983 607.709 307.682 605.397C310.737 603.893 310.737 598.107 307.682 596.603C300.385 593.013 285.125 596 277 596M315 639L316 639L316 597L339 597C335.025 595.332 318.995 593.857 316.028 597.603C313.954 600.221 315 605.878 315 609L315 639M368 597L368 598L381 597L368 597M393 596L393 597L428 597L393 596M432 596L432 597L443 597L443 639L444 608L442.972 597.603L432 596M462.667 596.333L463.333 596.667L462.667 596.333z"/>
<path style="fill:#04a652; stroke:none;" d="M464 596.529C438.131 602.509 448.742 645.764 476 639.1C502.679 632.578 491.822 590.098 464 596.529z"/>
<path style="fill:#a4e0c2; stroke:none;" d="M477 596L478 597L477 596M497 596L497 597L510 598L497 596M523 596L523 597L534 597L523 596z"/>
<path style="fill:#04a652; stroke:none;" d="M161 597L161 639C173.205 638.999 172 633.773 172 623L188 623L188 614L172 614L172 606L191 606L191 597L161 597M196 597L196 639L228 639L228 630L207 630L207 621L226 621L226 613L207 613L207 605L228 605L228 597L196 597M234 597L234 626C234 629.122 232.954 634.779 235.028 637.397C237.434 640.434 245.567 639.07 249 638.985C255.591 638.823 263.174 637.572 267.351 631.956C275.221 621.375 272.004 600.87 258 597.532C250.536 595.754 241.645 597 234 597z"/>
<path style="fill:#a4e0c2; stroke:none;" d="M258.667 597.333L259.333 597.667L258.667 597.333z"/>
<path style="fill:#04a652; stroke:none;" d="M277 597L277 627C277 629.98 275.927 635.853 278.603 637.972C284.141 642.358 302.991 639 310 639L310 630L288 630L288 621L307 621L307 613L288 613L288 605L309 605L309 597L277 597M316 597L316 639L326 639L326 623C329.645 623 334.753 622.189 337.397 625.318C343.387 632.409 337.843 642.185 352 638C349.276 631.572 351.474 623.164 345 619C351.872 613.388 353.964 602.106 343.996 598.148C336.016 594.979 324.478 597 316 597z"/>
<path style="fill:#a4e0c2; stroke:none;" d="M342.667 597.333L343.333 597.667L342.667 597.333z"/>
<path style="fill:#04a652; stroke:none;" d="M354 639C361.372 639 365.745 639.305 367 631L378.867 631.603L384.509 637.972L395 639L381 597L369.499 598.028L363.997 610L354 639M393 597L393 605L405 605L405 629L406.603 637.972L416 639L416 605L428 605L428 597L393 597M432 597L432 626L433.028 637.397L443 639L443 597L432 597z"/>
<path style="fill:#a4e0c2; stroke:none;" d="M460 597L461 598L460 597M480 597L481 598L480 597z"/>
<path style="fill:#04a652; stroke:none;" d="M497 597C497 607.322 493.061 627.451 497.603 636.682C499.394 640.32 506.546 639.68 507.682 635.852C509.676 629.137 507.293 620.815 507 614L508 614C510.954 621.057 515.704 632.387 521.61 637.397C524.008 639.431 530.794 640.147 532.972 637.397C535.046 634.779 534 629.122 534 626L534 597L523 597L524 622C515.017 609.635 514.11 597 497 597z"/>
<path style="fill:#a4e0c2; stroke:none;" d="M261 598L262 599L261 598M345 598L346 599L345 598M381.333 598.667L381.667 599.333L381.333 598.667M458 598L459 599L458 598M263 599L264 600L263 599M347 599L348 600L347 599M367.333 599.667L367.667 600.333L367.333 599.667M483 599L484 600L483 599M510 599L511 600L510 599M264 600L265 601L264 600M348 600L349 601L348 600M455 600L456 601L455 600M484 600L485 601L484 600M349 601L350 602L349 601M382 601L383 602L382 601M454 601L455 602L454 601M485 601L486 602L485 601M366 602L367 603L366 602M486 602L487 603L486 602M512 602L513 603L512 602M267 603L268 604L267 603M350 603L351 604L350 603M487 603L488 604L487 603M268 604L269 605L268 604M383 604L384 605L383 604M452 604L453 605L452 604M513 604L514 605L513 604M207 605L207 606L228 606L207 605M326 605L326 615L337 615L337 614L327 614L327 606L337 606L326 605M365 605L366 606L365 605M393 605L393 606L405 606L393 605M416 605L416 606L428 606L416 605M466 605L467 606L466 605z"/>
<path style="fill:#ffffff; stroke:none;" d="M467.019 605.746C455.901 610.006 459.804 634.826 473.981 629.397C485.063 625.152 480.414 600.613 467.019 605.746z"/>
<path style="fill:#a4e0c2; stroke:none;" d="M473.667 605.333L474.333 605.667L473.667 605.333M488 605L489 606L488 605M245 606L245 630L254 630L254 629L246 629L245 606z"/>
<path style="fill:#ffffff; stroke:none;" d="M246 606L246 629C249.478 628.998 253.793 629.54 256.721 627.258C267.765 618.652 255.973 606.029 246 606z"/>
<path style="fill:#a4e0c2; stroke:none;" d="M254 606L255 607L254 606M269 606L270 607L269 606z"/>
<path style="fill:#ffffff; stroke:none;" d="M327 606L327 614C341.515 614 341.515 606 327 606z"/>
<path style="fill:#a4e0c2; stroke:none;" d="M338 606L339 607L338 606M451 606L452 607L451 606M464 606L465 607L464 606M475 606L476 607L475 606M514 606L515 607L514 606M256 607L257 608L256 607M339 607L340 608L339 607M351 607L351 610L352 610L351 607M384 607L385 608L384 607M463 607L464 608L463 607M489 607L490 608L489 607M257 608L258 609L257 608M364 608L365 609L364 608M450.333 608.667L450.667 609.333L450.333 608.667M258 609L259 610L258 609M270 609L271 610L270 609M340.333 609.667L340.667 610.333L340.333 609.667M374 609L375 610L374 609M478 609L479 610L478 609M490.333 609.667L490.667 610.333L490.333 609.667M516 609L517 610L516 609M363.333 610.667L363.667 611.333L363.333 610.667z"/>
<path style="fill:#ffffff; stroke:none;" d="M374 610L371 622L378 622L374 610z"/>
<path style="fill:#a4e0c2; stroke:none;" d="M385 610L386 611L385 610M461.333 610.667L461.667 611.333L461.333 610.667M259.333 611.667L259.667 612.333L259.333 611.667M373 611L374 612L373 611M479.333 611.667L479.667 612.333L479.333 611.667M517 611L518 612L517 611M207 612L207 613L226 613L207 612M339 612L340 613L339 612M350.333 612.667L350.667 613.333L350.333 612.667M375 612L376 613L375 612M386.333 612.667L386.667 613.333L386.333 612.667M449 612L449 615L450 615L449 612M271 613L271 623L272 623L271 613M338 613L339 614L338 613M362.333 613.667L362.667 614.333L362.333 613.667M491 613L491 622L492 622L491 613M518 613L519 614L518 613M188 614L188 623L189 623L188 614M372 614L373 615L372 614M460 614L460 621L461 621L460 614M507 614L507 620L508 620L507 614M376 615L377 616L376 615M387.333 615.667L387.667 616.333L387.333 615.667M519 615L520 616L519 615M348 616L349 617L348 616M361 616L362 617L361 616M520 616L521 617L520 616M371.333 617.667L371.667 618.333L371.333 617.667M509 617L510 618L509 617M345 618L346 619L345 618M377 618L378 619L377 618M388 618L389 619L388 618M521 618L522 619L521 618M346 619L347 620L346 619M360 619L361 620L360 619M510 619L511 620L510 619M370.333 620.667L370.667 621.333L370.333 620.667M449 620L449 624L450 624L449 620M522 620L524 622L524 620L522 620M207 621L207 622L226 622L207 621M348 621L349 622L348 621M359.333 621.667L359.667 622.333L359.333 621.667M378 621L379 622L378 621M389 621L390 622L389 621M479.333 622.667L479.667 623.333L479.333 622.667M512 622L513 623L512 622M259 623L260 624L259 623M326 623L326 639L327 639L327 624L337 624L326 623M349.333 623.667L349.667 624.333L349.333 623.667M337 624L338 625L337 624M358.333 624.667L358.667 625.333L358.333 624.667M390 624L391 625L390 624M461 624L462 625L461 624M513 624L514 625L513 624M270.333 625.667L270.667 626.333L270.333 625.667M338 625L339 626L338 625M490.333 625.667L490.667 626.333L490.333 625.667M450 626L451 627L450 626M462 626L463 627L462 626M514 626L515 627L514 626M257 627L258 628L257 627M357 627L358 628L357 627M391 627L392 628L391 627M477 627L478 628L477 627M255 628L256 629L255 628M269 628L270 629L269 628M476 628L477 629L476 628M489 628L490 629L489 628M392.333 629.667L392.667 630.333L392.333 629.667M451 629L452 630L451 629M465 629L466 630L465 629M475 629L476 630L475 629M516 629L517 630L516 629M228 630L228 639L229 639L228 630M268 630L269 631L268 630M356 630L357 631L356 630M467 630L467 631L474 631L467 630M488 630L489 631L488 630M367 631L368 632L367 631M517 631L518 632L517 631M267 632L268 633L267 632M381 632L382 633L381 632M393.333 632.667L393.667 633.333L393.333 632.667M453 632L454 633L453 632M266 633L267 634L266 633M339 633L339 637L340 637L339 633M350 633L350 636L351 636L350 633M355 633L356 634L355 633M454 633L455 634L454 633M486 633L487 634L486 633M518 633L519 634L518 633M265 634L266 635L265 634M366 634L367 635L366 634M455 634L456 635L455 634M485 634L486 635L485 634M519 634L520 635L519 634M264 635L265 636L264 635M354.333 635.667L354.667 636.333L354.333 635.667M382 635L383 636L382 635M394 635L395 636L394 635M456 635L457 636L456 635M484 635L485 636L484 635M262 636L263 637L262 636M351 636L352 637L351 636M457 636L458 637L457 636M520 636L521 637L520 636M259.667 637.333L260.333 637.667L259.667 637.333M365 637L366 638L365 637M459 637L460 638L459 637M481 637L482 638L481 637M171 638L172 639L171 638M234 638L235 639L234 638M254 638L254 639L257 639L254 638M277 638L278 639L277 638M340 638L341 639L340 638M351 638L352 639L351 638M353 638L354 639L353 638M383 638L384 639L383 638M395 638L396 639L395 638M405 638L406 639L405 638M432 638L433 639L432 638M461 638L462 639L461 638M478.667 638.333L479.333 638.667L478.667 638.333M497 638L498 639L497 638M507 638L508 639L507 638M521 638L522 639L521 638M533 638L534 639L533 638M464.667 639.333L465.333 639.667L464.667 639.333M474 639L474 640L477 640L474 639z"/>
</svg>
