<?xml version="1.0" standalone="no"?>
<!DOCTYPE svg PUBLIC "-//W3C//DTD SVG 20010904//EN"
 "http://www.w3.org/TR/2001/REC-SVG-20010904/DTD/svg10.dtd">
<svg version="1.0" xmlns="http://www.w3.org/2000/svg"
 width="640.000000pt" height="640.000000pt" viewBox="0 0 640.000000 640.000000"
 preserveAspectRatio="xMidYMid meet">
<metadata>
Created by potrace 1.16, written by Peter Selinger 2001-2019
</metadata>
<g transform="translate(0.000000,640.000000) scale(0.100000,-0.100000)"
fill="#000000" stroke="none">
<path d="M295 6329 c-4 -38 -4 -73 -1 -76 3 -4 21 7 39 24 18 17 47 33 65 35
17 3 32 3 32 1 0 -1 -25 -27 -56 -57 -51 -50 -55 -56 -41 -70 9 -10 23 -13 33
-9 13 5 15 3 9 -7 -6 -10 0 -12 26 -8 23 4 37 0 45 -10 16 -21 37 -6 24 17 -7
14 -5 23 10 36 25 23 90 13 97 -15 3 -11 14 -22 24 -25 22 -7 71 -68 67 -83
-2 -5 9 -23 23 -39 35 -40 75 -131 94 -216 8 -38 15 -70 15 -73 0 -12 -35 -1
-70 21 -109 69 -147 80 -271 80 -76 0 -127 -5 -145 -14 -114 -52 -161 -82
-181 -112 -12 -19 -34 -47 -48 -64 -31 -36 -65 -87 -65 -97 0 -15 19 -8 63 22
52 35 57 36 57 12 0 -9 -10 -22 -22 -27 -30 -13 -39 -50 -10 -40 12 3 30 0 41
-7 17 -10 25 -10 50 5 16 9 35 17 43 17 7 0 21 14 30 30 16 28 21 30 78 30 55
0 61 -2 70 -24 13 -36 26 -39 75 -20 42 16 47 16 63 0 10 -9 30 -16 44 -16 28
0 53 -23 43 -40 -3 -5 -32 -10 -63 -10 -72 -1 -209 -25 -227 -40 -8 -6 -29
-14 -47 -17 -42 -6 -80 -42 -114 -108 -26 -50 -27 -55 -14 -94 7 -22 19 -41
26 -41 8 0 24 21 36 48 16 32 29 47 43 48 11 0 28 4 38 8 10 5 23 4 30 -3 10
-8 22 -4 47 14 37 27 60 31 91 14 16 -8 26 -7 44 5 36 24 60 20 100 -18 62
-59 61 -58 84 -44 25 15 54 2 59 -28 2 -13 -11 -27 -43 -46 -25 -16 -52 -28
-59 -28 -36 0 -164 -111 -295 -255 -41 -45 -64 -122 -64 -210 1 -102 53 -211
70 -145 3 13 14 20 29 20 25 0 33 19 54 129 5 29 12 57 16 62 3 6 9 31 13 57
3 26 11 47 16 46 16 -1 18 -34 5 -74 -9 -28 -9 -42 -1 -59 19 -34 39 -26 43
16 2 31 7 39 28 43 39 8 87 49 94 80 8 44 83 114 110 104 20 -8 21 -61 2 -86
-16 -22 -20 -276 -5 -345 6 -27 14 -68 19 -93 20 -102 28 -130 60 -196 41 -87
75 -124 111 -124 39 0 42 11 15 51 -12 19 -25 44 -29 57 -4 19 -2 22 11 16 9
-4 30 -9 46 -12 26 -4 28 -2 21 14 -5 11 -7 36 -6 58 1 25 -4 45 -15 57 -19
21 -42 192 -31 223 4 9 20 22 37 27 36 13 37 23 7 63 -31 40 -41 84 -26 102 7
8 9 17 6 21 -8 8 11 43 23 43 6 0 10 -14 10 -30 0 -30 37 -80 59 -80 21 0 37
-88 65 -350 8 -74 19 -171 25 -215 12 -88 34 -582 33 -740 -1 -152 -22 -572
-33 -640 -5 -33 -13 -107 -18 -165 -5 -58 -14 -127 -19 -155 -6 -27 -16 -81
-22 -120 -18 -113 -30 -176 -45 -235 -7 -30 -19 -82 -25 -115 -16 -81 -39
-145 -55 -151 -18 -7 -63 23 -70 47 -4 10 -14 19 -24 19 -19 0 -33 -22 -55
-85 -10 -30 -18 -39 -32 -37 -59 11 -69 8 -79 -25 -11 -40 -27 -42 -54 -7 -13
17 -28 24 -43 22 -20 -3 -23 -9 -26 -59 -4 -68 -30 -102 -62 -81 -25 15 -23
16 -54 -13 -15 -14 -36 -25 -47 -25 -13 0 -25 -11 -34 -34 -13 -30 -19 -34
-67 -40 -91 -12 -126 -27 -168 -72 -35 -38 -40 -50 -40 -90 0 -27 10 -70 24
-103 14 -31 36 -94 51 -141 32 -101 130 -306 179 -372 34 -45 61 -62 199 -123
93 -41 314 -105 452 -131 147 -28 157 -29 495 -29 363 1 474 10 804 66 65 11
122 16 127 12 4 -4 17 -42 29 -83 25 -87 59 -151 92 -172 56 -36 176 -48 496
-48 328 0 410 8 575 56 20 6 66 92 92 174 10 30 19 56 20 58 2 2 40 -2 86 -7
889 -110 1252 -108 1679 10 58 16 140 44 184 61 l78 31 66 101 c84 129 222
400 251 494 56 175 -18 285 -201 299 -53 4 -86 1 -121 -11 -26 -9 -49 -16 -51
-16 -1 0 -20 16 -42 36 -32 29 -45 34 -71 30 -42 -6 -57 12 -43 50 13 34 5 74
-15 74 -8 0 -31 -9 -51 -20 l-36 -21 -5 22 c-6 22 -25 22 -90 3 -21 -6 -21 -5
-9 37 8 25 10 58 6 81 -4 21 -3 41 1 44 12 7 49 -5 49 -17 0 -5 15 -9 34 -9
33 0 34 -1 34 -40 1 -55 6 -60 61 -60 57 0 63 -5 49 -36 -9 -19 -8 -28 7 -44
22 -24 38 -25 56 -4 7 9 22 14 36 11 13 -2 23 0 23 5 0 16 -31 21 -57 9 -33
-15 -49 -1 -32 27 20 32 -11 60 -70 64 -42 3 -46 5 -46 28 0 41 -23 73 -48 66
-12 -3 -28 1 -37 9 -8 7 -35 15 -60 17 -40 3 -45 6 -48 29 -3 29 -48 57 -64
41 -11 -11 -48 -4 -48 9 0 16 -44 27 -62 17 -14 -7 -22 -2 -38 24 -11 18 -20
40 -20 48 0 13 -21 90 -51 186 -5 18 -12 49 -15 70 -2 22 -11 82 -20 134 -8
52 -19 124 -24 160 -5 36 -14 97 -20 135 -5 39 -12 104 -15 145 -3 41 -10 125
-16 185 -14 141 -13 683 1 874 6 80 17 178 25 216 8 39 17 106 20 150 4 44 11
94 16 110 4 17 9 48 10 70 1 22 12 76 25 121 13 44 24 87 24 96 0 9 9 37 20
62 23 56 45 62 36 11 -6 -31 -4 -36 16 -44 21 -8 22 -13 19 -83 -1 -47 1 -78
8 -82 17 -11 13 -48 -9 -81 -17 -26 -18 -31 -4 -46 12 -13 13 -25 6 -51 -5
-18 -7 -48 -5 -65 3 -19 -2 -41 -12 -56 -13 -20 -14 -30 -6 -46 6 -11 11 -29
11 -40 0 -38 28 -22 74 44 60 86 76 118 76 152 0 15 9 43 20 61 13 20 20 50
20 80 0 48 -14 144 -24 172 -3 8 -1 22 4 30 9 13 12 13 20 -2 6 -10 18 -14 30
-11 18 5 20 0 20 -35 0 -31 9 -52 43 -98 60 -81 79 -122 67 -143 -6 -13 -4
-22 11 -34 11 -10 19 -29 19 -47 0 -37 12 -38 35 -4 12 19 15 38 11 63 -5 36
7 72 20 58 4 -3 8 -35 9 -69 4 -80 3 -78 14 -78 17 0 33 70 27 113 -4 23 -10
69 -15 102 -20 147 -54 257 -93 300 -15 17 -37 46 -51 66 l-24 35 34 1 c29 1
36 -4 53 -38 11 -21 20 -49 20 -62 0 -33 9 -39 33 -22 19 13 24 12 49 -12 15
-15 31 -41 34 -59 3 -18 15 -40 25 -50 14 -13 19 -31 19 -71 0 -53 13 -71 25
-34 3 11 13 25 22 32 14 12 15 8 8 -39 -4 -29 -16 -71 -27 -93 -22 -47 -17
-61 12 -34 19 17 60 131 60 171 1 10 7 36 15 57 12 35 11 45 -7 100 -11 34
-23 67 -28 72 -4 6 -11 21 -15 35 -25 81 -126 185 -209 215 -53 19 -61 25 -64
50 -3 24 -1 27 18 22 16 -4 24 -1 27 14 7 25 11 24 53 -11 43 -37 50 -37 50 0
0 32 9 37 28 18 9 -9 12 -9 12 2 0 7 3 11 6 8 3 -4 0 -16 -6 -28 -10 -18 -9
-30 4 -59 8 -20 17 -47 18 -61 4 -31 33 -38 59 -14 26 23 46 6 29 -25 -18 -35
-1 -44 32 -16 36 30 58 32 58 5 0 -11 7 -20 15 -20 22 0 47 45 51 91 4 49 -45
204 -74 234 -93 94 -141 122 -230 131 -56 6 -62 9 -62 30 0 12 -12 36 -26 53
-22 27 -24 32 -9 37 9 4 21 2 28 -5 6 -6 21 -11 34 -11 26 0 31 27 11 60 -7
10 -9 22 -6 26 8 7 98 -47 98 -58 0 -18 80 -48 109 -42 28 6 32 3 42 -25 16
-45 33 -33 37 25 2 40 -3 57 -25 92 -23 36 -44 52 -119 88 -78 38 -102 45
-155 46 -57 1 -74 -4 -154 -45 -50 -25 -111 -62 -135 -82 -43 -36 -45 -37 -48
-15 -5 30 50 136 96 186 21 23 54 49 74 58 28 13 36 23 36 44 2 59 3 63 20 60
9 -2 18 -12 21 -23 2 -11 12 -31 22 -44 11 -13 19 -32 19 -42 0 -23 16 -25 24
-4 3 8 17 20 30 25 16 6 28 20 31 37 4 15 13 41 22 56 32 59 -8 73 -92 32 -59
-29 -65 -30 -65 -10 0 8 -4 15 -10 15 -5 0 -10 5 -10 11 0 5 5 7 10 4 16 -10
20 13 22 157 l3 137 -32 15 c-81 38 -212 -30 -286 -150 -13 -22 -43 -59 -66
-83 -22 -23 -41 -50 -41 -59 0 -35 -22 8 -45 89 -44 156 -68 210 -109 248 -22
20 -26 22 -32 8 -3 -8 0 -25 6 -37 9 -16 9 -25 0 -36 -7 -8 -10 -26 -6 -44 3
-16 9 -45 12 -62 4 -18 11 -38 16 -45 6 -7 5 -19 -3 -31 -10 -16 -9 -28 8 -68
16 -37 19 -53 11 -70 -13 -27 -32 -21 -23 6 9 30 -12 32 -39 5 -14 -14 -30
-25 -36 -25 -23 0 -48 20 -54 43 -11 43 -98 78 -238 94 -55 6 -133 -25 -143
-57 -3 -11 -14 -22 -24 -25 -10 -3 -28 -16 -40 -29 -18 -19 -21 -30 -15 -65 4
-22 10 -41 15 -41 5 0 18 14 31 30 25 35 48 39 48 10 0 -18 5 -20 43 -14 23 3
58 10 77 15 56 14 61 13 49 -15 -7 -15 -17 -22 -26 -19 -14 5 -32 -12 -33 -29
0 -21 69 0 95 28 20 22 44 24 55 4 6 -11 23 -26 39 -34 23 -12 27 -20 23 -42
l-5 -27 -90 7 c-100 8 -150 -1 -262 -44 -64 -24 -72 -31 -101 -81 -44 -75 -49
-106 -24 -147 24 -38 39 -38 59 2 12 26 17 28 52 22 37 -6 52 5 28 20 -18 11
6 20 61 23 35 1 62 -5 98 -23 32 -16 53 -22 63 -15 26 16 51 9 79 -21 22 -24
34 -29 53 -25 20 5 29 0 46 -23 40 -56 21 -64 -83 -37 -45 12 -90 14 -185 10
-69 -3 -139 -5 -155 -5 -17 0 -37 -7 -45 -14 -9 -7 -30 -21 -47 -29 -32 -16
-114 -96 -114 -110 0 -5 24 -6 53 -3 105 13 122 13 145 3 16 -7 41 -7 84 1 54
10 64 10 71 -4 7 -12 18 -14 45 -9 41 7 106 -19 99 -38 -7 -21 -57 -25 -358
-26 -338 -1 -326 -4 -284 79 14 27 25 52 25 55 0 14 -177 -9 -213 -27 -27 -13
-49 -17 -75 -13 l-37 6 28 -21 c34 -27 37 -55 5 -45 -13 4 -41 10 -63 14 -23
4 -46 11 -53 15 -7 4 -19 2 -27 -4 -12 -10 -18 -10 -30 0 -19 16 -19 63 -1
115 8 23 15 68 16 100 2 55 -3 71 -58 185 -74 153 -115 270 -142 402 -34 164
-50 176 -212 158 -109 -12 -244 -10 -438 6 -58 5 -78 3 -87 -7 -6 -8 -48 -117
-92 -243 -45 -126 -104 -282 -131 -346 -57 -132 -61 -174 -30 -265 24 -70 36
-85 66 -85 26 0 59 -29 47 -41 -5 -5 -36 -4 -70 1 -34 6 -68 9 -75 8 -8 -2
-12 6 -10 21 2 18 -1 22 -15 16 -10 -3 -30 -9 -45 -12 -36 -7 -35 -18 2 -32
17 -5 30 -17 30 -27 0 -12 -5 -14 -17 -9 -10 5 -46 10 -80 13 -63 4 -76 15
-52 39 9 9 5 13 -17 18 -16 4 -51 17 -79 30 -27 13 -74 27 -102 30 -65 8 -67
0 -18 -84 19 -32 35 -62 35 -66 0 -3 -30 -5 -67 -3 l-68 3 3 31 c3 34 -3 41
-98 118 -37 29 -69 46 -97 51 -24 4 -45 11 -48 15 -3 5 -30 14 -59 21 -61 13
-71 26 -81 101 -7 52 3 65 36 47 18 -9 25 -8 42 9 l20 20 -22 30 -21 30 24 4
c13 3 32 -1 42 -9 10 -7 23 -13 30 -13 20 0 83 44 84 58 0 23 39 12 69 -20 34
-37 46 -32 43 17 -3 41 11 45 45 13 18 -17 26 -19 35 -10 20 20 -15 76 -74
121 -61 46 -81 48 -263 34 -97 -8 -103 -10 -200 -65 -55 -31 -117 -68 -139
-83 -46 -31 -56 -27 -26 12 21 28 38 42 163 134 51 38 67 55 67 74 0 20 -5 25
-25 25 -14 0 -37 -7 -51 -16 -36 -24 -41 -10 -8 21 81 76 101 93 129 110 17
10 38 29 48 42 10 13 29 23 42 23 23 0 35 17 35 51 0 14 7 19 28 19 29 1 62
20 62 37 0 15 -80 43 -122 43 -66 0 -160 -37 -248 -99 -110 -76 -136 -99 -156
-136 -9 -16 -25 -39 -35 -50 -10 -11 -31 -33 -46 -50 l-28 -30 -5 75 c-6 75
-1 95 31 135 23 30 56 87 64 113 5 18 2 22 -14 22 -19 0 -32 30 -13 30 4 0 22
18 40 40 l33 40 -53 0 c-49 0 -55 -3 -75 -34 -24 -38 -90 -92 -100 -83 -3 4
-13 30 -23 59 -14 45 -21 53 -44 56 l-27 3 7 -68 c4 -37 10 -75 14 -83 4 -8
11 -69 15 -135 8 -120 7 -120 -13 -102 -11 10 -22 30 -25 45 -9 45 -78 184
-116 233 -20 26 -44 61 -53 78 -16 28 -21 31 -68 31 -65 0 -112 -23 -108 -52
4 -28 53 -46 80 -29 25 16 55 14 62 -5 10 -26 8 -27 -35 -21 -40 5 -41 5 -36
-22 10 -50 58 -110 115 -142 29 -16 51 -35 49 -42 -12 -34 -127 20 -127 59 0
12 -7 27 -15 34 -8 7 -15 16 -15 21 0 33 -111 116 -161 121 -51 5 -42 28 21
54 l55 23 -146 1 -147 0 -7 -71z m465 -85 c0 -8 -4 -12 -10 -9 -5 3 -10 10
-10 16 0 5 5 9 10 9 6 0 10 -7 10 -16z m400 8 c0 -5 -9 -19 -20 -32 l-20 -24
4 25 c3 13 5 27 5 32 1 10 31 9 31 -1z m1750 -42 c105 -12 299 -7 390 10 48 9
74 1 89 -29 9 -15 -9 -45 -104 -172 -63 -85 -135 -184 -160 -221 -46 -65 -72
-95 -79 -87 -8 9 -255 358 -284 401 -18 26 -32 54 -32 62 0 24 38 58 58 52 9
-3 64 -10 122 -16z m-1480 -40 c0 -5 -4 -10 -9 -10 -6 0 -13 5 -16 10 -3 6 1
10 9 10 9 0 16 -4 16 -10z m1365 -170 c122 -171 215 -309 215 -317 0 -4 -16
-24 -35 -43 -19 -19 -35 -37 -35 -40 0 -3 -84 -6 -187 -6 -104 1 -201 -3 -217
-7 -22 -6 -27 -5 -23 5 39 90 112 276 142 363 20 61 42 121 47 135 l9 25 22
-29 c12 -16 40 -55 62 -86z m639 31 c29 -138 75 -264 153 -421 2 -3 -91 -5
-207 -5 l-209 1 -36 41 c-19 23 -35 44 -35 47 0 10 302 416 310 416 3 0 14
-36 24 -79z m1916 -15 c0 -8 -6 -19 -14 -25 -8 -7 -18 -26 -21 -42 -8 -36 -35
-39 -35 -4 0 14 4 25 10 25 5 0 16 16 25 36 14 33 35 39 35 10z m-4506 2 c50
-14 50 -14 41 -28 -4 -7 -11 -8 -18 -1 -7 5 -27 11 -46 13 -19 2 -36 9 -39 16
-5 15 9 15 62 0z m4656 -86 c0 -13 -12 -22 -22 -16 -10 6 -1 24 13 24 5 0 9
-4 9 -8z m-90 -39 c0 -5 -22 -30 -50 -57 -40 -40 -48 -44 -43 -25 9 35 93 109
93 82z m-129 -21 c-5 -10 -17 -25 -26 -32 -13 -11 -15 -10 -9 6 9 25 24 44 36
44 5 0 5 -8 -1 -18z m-3593 -60 c3 -9 -2 -13 -14 -10 -9 1 -19 9 -22 16 -3 9
2 13 14 10 9 -1 19 -9 22 -16z m-1281 -23 c35 -12 63 -26 63 -30 0 -11 -169
-9 -176 2 -7 12 19 49 35 49 8 0 43 -10 78 -21z m4477 6 c22 -10 41 -26 47
-42 12 -33 6 -39 -19 -16 -25 24 -59 43 -77 43 -16 0 -20 12 -8 23 9 10 16 9
57 -8z m-3304 -2 c0 -5 -12 -16 -26 -27 -28 -20 -51 -10 -41 18 6 16 67 24 67
9z m-1037 -60 c-7 -2 -19 -2 -25 0 -7 3 -2 5 12 5 14 0 19 -2 13 -5z m4677
-25 c0 -16 -3 -19 -11 -11 -6 6 -8 16 -5 22 11 17 16 13 16 -11z m-4748 -8
c-12 -11 -27 -20 -33 -20 -7 0 -5 8 6 20 10 11 25 20 33 20 12 0 11 -5 -6 -20z
m-191 -21 c-26 -21 -90 -41 -103 -33 -5 3 -2 14 7 24 14 15 21 17 36 7 15 -9
22 -8 39 11 12 12 26 19 32 16 7 -5 3 -14 -11 -25z m4324 -9 c10 -11 16 -22
13 -25 -10 -10 -58 15 -58 30 0 21 24 19 45 -5z m-4045 -10 c0 -5 -10 -10 -22
-10 -12 0 -29 -7 -39 -16 -10 -9 -23 -14 -30 -12 -21 7 32 48 63 48 15 0 28
-4 28 -10z m2549 -35 c52 -59 54 -120 5 -152 -74 -48 -170 10 -150 91 7 29 75
96 97 96 9 0 31 -16 48 -35z m509 -67 c17 -14 15 -64 -4 -129 -23 -77 -25 -78
-86 -63 -68 18 -107 18 -162 -1 -42 -14 -49 -14 -77 0 -53 28 -129 31 -184 6
-44 -20 -50 -20 -92 -6 -55 19 -80 19 -134 0 -36 -13 -52 -14 -92 -4 -52 12
-126 5 -167 -16 -16 -9 -38 -11 -60 -6 -31 6 -37 12 -52 56 -9 28 -17 71 -18
96 0 59 1 59 197 66 202 7 217 4 242 -52 34 -76 129 -107 199 -65 32 20 68 82
57 99 -9 16 21 30 75 34 88 7 344 -4 358 -15z m-2668 -48 c11 -6 24 -19 30
-30 21 -40 -27 -78 -50 -40 -7 11 -11 11 -24 1 -33 -27 -49 16 -20 57 17 24
35 27 64 12z m208 -32 c7 -7 12 -22 12 -35 0 -18 -6 -23 -26 -23 -15 0 -33 -8
-40 -17 -12 -16 -15 -16 -24 -3 -15 23 -12 61 8 76 21 17 54 18 70 2z m3259
-44 c-3 -3 -12 -4 -19 -1 -8 3 -5 6 6 6 11 1 17 -2 13 -5z m1096 -11 c11 -10
-13 -33 -34 -33 -22 0 -24 11 -7 28 13 13 31 16 41 5z m-4202 -23 c11 -6 19
-21 19 -35 0 -26 -18 -33 -36 -15 -8 8 -15 6 -24 -5 -18 -22 -40 -19 -40 7 0
25 27 58 47 58 8 0 23 -5 34 -10z m1966 -67 c42 -19 64 -45 54 -62 -7 -11 -19
-9 -65 8 -31 11 -81 24 -111 27 -56 7 -65 13 -42 32 29 24 107 22 164 -5z
m777 8 c9 -14 -26 -68 -55 -85 -22 -13 -33 -14 -55 -5 -27 10 -43 25 -44 40 0
19 66 46 142 58 4 1 9 -3 12 -8z m-1239 -26 c26 -16 58 -72 46 -79 -5 -3 -20
3 -34 14 -17 14 -40 20 -69 20 -59 -1 -127 10 -134 22 -25 39 135 59 191 23z
m201 15 c26 -10 53 -36 54 -53 0 -4 -8 -4 -17 1 -10 5 -49 12 -86 15 -73 5
-104 20 -77 37 20 13 92 13 126 0z m533 -3 c42 -15 61 -41 43 -59 -10 -10 -19
-9 -45 4 -17 9 -61 19 -96 21 -68 6 -97 21 -71 37 21 13 128 11 169 -3z
m-2539 -17 c25 -25 26 -50 1 -50 -12 0 -23 -11 -30 -31 -11 -31 -18 -32 -53
-1 -24 20 -23 51 4 79 26 28 52 29 78 3z m1103 9 c20 -9 24 -18 24 -50 0 -32
-2 -37 -16 -29 -34 20 -71 64 -71 85 0 9 38 5 63 -6z m2998 -49 c23 -13 26
-42 4 -34 -8 4 -15 12 -15 19 0 8 -14 15 -32 18 -31 4 -31 4 -5 5 16 1 37 -3
48 -8z m-3967 -23 c7 -10 7 -25 0 -44 -7 -22 -17 -29 -43 -31 -18 -2 -31 0
-29 5 16 33 27 61 32 76 7 21 25 19 40 -6z m728 6 c33 -29 22 -43 -32 -43 -58
0 -68 20 -22 43 36 19 33 19 54 0z m-297 -9 c44 29 135 12 135 -26 0 -4 -52
-8 -116 -8 -102 0 -115 2 -110 16 3 9 6 20 6 25 0 5 14 2 31 -6 28 -15 33 -15
54 -1z m3450 6 c-3 -5 -10 -10 -16 -10 -5 0 -9 5 -9 10 0 6 7 10 16 10 8 0 12
-4 9 -10z m-3255 -34 c-13 -13 -35 7 -25 24 5 8 11 8 21 -1 10 -8 12 -15 4
-23z m3061 -3 c9 -25 7 -31 -25 -58 -42 -35 -45 -51 -11 -67 28 -12 33 -33 11
-45 -18 -11 -26 -109 -8 -105 17 3 15 -47 -4 -133 -9 -38 -19 -94 -22 -123 -7
-56 -25 -71 -29 -25 -1 16 -4 144 -6 286 l-4 257 26 20 c37 27 60 25 72 -7z
m-771 -9 c0 -12 44 -14 311 -14 171 1 313 -1 316 -3 6 -7 51 -2090 55 -2547 1
-183 -2 -230 -19 -315 -66 -318 -188 -552 -392 -756 -107 -106 -248 -209 -367
-268 -165 -81 -406 -157 -523 -165 -65 -5 -65 -5 -21 6 249 61 318 81 402 116
130 56 196 93 308 172 143 102 308 278 382 409 17 31 36 63 43 71 32 41 120
336 140 467 15 105 15 177 0 995 -8 486 -20 1074 -25 1308 -5 234 -10 436 -10
449 l0 24 -317 -6 c-275 -6 -320 -9 -330 -23 -10 -14 -12 -14 -22 4 -21 38 27
112 62 95 4 -2 7 -11 7 -19z m-1752 -21 c2 -7 -7 -17 -21 -22 -13 -5 -32 -17
-41 -27 -14 -13 -22 -15 -35 -7 -10 6 -130 8 -341 4 l-325 -6 -6 -445 c-3
-245 -8 -839 -9 -1320 -4 -959 -8 -891 56 -1115 34 -122 148 -347 239 -475 41
-58 79 -111 85 -117 6 -7 7 -13 2 -13 -13 0 -55 48 -117 135 -143 200 -221
375 -278 625 -22 95 -22 98 -25 1433 l-2 1337 380 0 c335 0 381 2 387 16 6 17
44 15 51 -3z m2816 2 c-6 -16 -24 -21 -24 -7 0 11 11 22 21 22 5 0 6 -7 3 -15z
m168 -2 c21 -24 30 -77 15 -92 -16 -16 -27 -14 -27 8 0 12 -11 23 -29 29 -31
11 -41 5 -54 -31 -8 -22 -31 -17 -35 7 -7 33 8 65 36 80 37 20 76 20 94 -1z
m-1959 -39 c42 -10 65 -54 60 -112 -3 -26 -5 -62 -5 -79 0 -39 -5 -40 -88 -9
-99 36 -123 48 -152 75 -34 30 -36 56 -5 72 29 16 38 30 31 52 -5 14 -2 18 13
15 14 -3 17 -11 15 -38 -1 -19 -7 -39 -12 -44 -13 -13 -13 -36 0 -36 6 0 10 9
10 20 0 11 7 23 16 27 8 3 13 12 10 20 -3 8 6 27 22 43 23 23 29 26 42 15 8
-8 28 -17 43 -21z m501 -24 c23 -28 25 -38 23 -107 -2 -48 -7 -78 -15 -81 -17
-5 -107 48 -123 72 -7 12 -16 41 -20 66 -4 25 -10 53 -14 63 -11 26 13 21 40
-10 14 -16 25 -41 25 -59 0 -31 52 -95 63 -77 7 12 -24 83 -36 83 -4 0 -5 9
-2 20 4 13 -1 30 -14 46 -46 59 22 43 73 -16z m1256 46 c0 -3 -4 -8 -10 -11
-5 -3 -10 -1 -10 4 0 6 5 11 10 11 6 0 10 -2 10 -4z m-1585 -51 c26 -23 40
-43 41 -62 1 -15 2 -33 3 -39 0 -6 12 -16 25 -22 19 -9 27 -8 37 4 10 12 8 20
-9 44 -24 32 -30 100 -9 100 33 -1 56 -54 54 -130 0 -25 1 -52 4 -60 3 -11 -4
-14 -26 -13 -38 3 -69 18 -122 60 -34 27 -43 42 -52 83 -6 28 -11 55 -11 60 0
20 27 9 65 -25z m1502 -32 c-19 -19 -36 -9 -41 23 -5 29 16 36 39 14 18 -19
18 -21 2 -37z m-1046 21 c11 -31 8 -37 -14 -29 -16 7 -29 40 -19 49 12 12 23
5 33 -20z m-1633 7 c12 -7 12 -12 0 -32 -7 -13 -20 -29 -28 -36 -13 -11 -13
-12 1 -13 9 0 19 7 23 15 3 8 12 12 21 9 8 -4 17 1 21 10 3 9 10 16 16 16 5 0
16 7 25 15 18 18 37 15 39 -6 1 -8 2 -18 3 -24 0 -5 15 6 32 25 20 23 28 28
24 15 -4 -11 -10 -33 -14 -50 -6 -26 -12 -31 -53 -36 -25 -4 -54 -12 -64 -17
-11 -6 -42 -12 -69 -13 -56 -3 -56 -2 -36 75 12 49 32 65 59 47z m680 -22 c2
-13 10 -28 18 -32 22 -13 16 -29 -27 -74 -57 -61 -104 -53 -79 13 8 19 16 25
30 21 22 -6 47 17 30 28 -11 7 -14 58 -3 69 12 12 28 0 31 -25z m1612 -81 c0
-57 4 -276 10 -488 15 -601 31 -1512 27 -1516 -2 -2 -80 33 -173 79 -93 46
-198 96 -234 113 -35 16 -148 70 -250 120 -102 50 -212 103 -245 118 -33 15
-177 85 -320 155 -143 71 -268 131 -277 134 -24 8 -26 34 -33 422 -3 193 -8
457 -12 588 -6 236 -6 237 15 237 12 0 25 -7 30 -16 5 -8 24 -19 43 -24 64
-16 121 -41 165 -70 69 -48 75 -44 70 50 -2 44 -1 80 3 80 4 0 20 -13 37 -28
16 -16 40 -35 53 -41 44 -24 176 -68 189 -64 15 6 15 28 0 53 -7 10 -10 22 -7
25 5 4 96 -32 166 -67 11 -6 25 -8 30 -5 6 4 8 42 5 87 l-5 81 29 -7 c16 -4
45 -8 64 -8 29 0 36 4 38 23 2 13 -1 28 -7 34 -6 6 -11 14 -11 19 0 8 116 12
428 16 l172 2 0 -102z m-3177 61 c-17 -17 -37 -1 -22 17 8 10 15 12 23 4 7 -7
7 -13 -1 -21z m1337 19 c0 -7 -7 -22 -15 -32 -8 -11 -13 -28 -9 -38 5 -18 -49
-77 -72 -78 -7 0 -25 -7 -40 -15 -16 -8 -42 -15 -58 -15 -28 0 -28 0 -21 48 4
26 10 48 15 50 5 2 20 14 35 28 27 25 50 28 50 5 0 -6 -11 -17 -24 -24 -13 -7
-24 -16 -24 -22 -1 -17 36 -18 45 -1 5 8 15 13 23 10 9 -4 19 7 30 32 8 21 20
43 26 51 14 17 39 17 39 1z m130 -58 c0 -5 -2 -10 -4 -10 -3 0 -8 5 -11 10 -3
6 -1 10 4 10 6 0 11 -4 11 -10z m2254 -20 c33 -12 34 -30 1 -30 -21 0 -25 -5
-25 -30 0 -36 -22 -40 -44 -8 -39 56 0 94 68 68z m-4582 -27 c-7 -12 -7 -25 0
-37 15 -27 0 -32 -24 -8 -13 12 -17 22 -10 22 7 0 12 6 12 13 0 14 21 39 28
33 2 -2 -1 -13 -6 -23z m2286 -11 c2 -13 10 -26 18 -29 8 -3 14 -8 14 -12 0
-12 -71 -42 -82 -35 -10 6 -4 76 8 96 11 17 39 3 42 -20z m2830 -64 c2 -10 19
-26 38 -37 19 -11 34 -28 34 -37 0 -9 11 -29 25 -46 18 -22 25 -41 25 -74 0
-24 -4 -44 -10 -44 -5 0 -10 9 -10 20 0 12 -7 35 -16 52 -24 47 -87 128 -99
128 -11 0 -65 63 -84 97 -10 20 -6 19 40 -10 29 -17 54 -40 57 -49z m-4458 42
c0 -5 11 -12 25 -16 25 -6 28 -12 40 -86 3 -21 18 -60 33 -88 15 -28 37 -69
48 -93 l22 -42 12 28 c7 15 17 27 22 27 4 0 8 -235 8 -522 0 -287 -2 -519 -5
-517 -5 6 -21 110 -35 229 -5 47 -14 112 -20 145 -5 33 -17 107 -26 165 -21
141 -74 402 -105 515 -19 74 -37 160 -42 213 -5 41 -3 52 8 52 8 0 15 -4 15
-10z m-800 -117 c-1 -18 -18 -35 -24 -24 -4 6 -4 16 -1 21 7 12 25 13 25 3z
m4549 -47 c12 -14 5 -73 -10 -82 -5 -3 -9 -17 -9 -32 0 -15 -9 -40 -20 -57
-11 -16 -20 -42 -20 -57 0 -16 -3 -28 -7 -28 -5 0 -14 -4 -22 -9 -11 -7 -10
-13 4 -35 13 -19 15 -30 7 -38 -18 -18 -43 -1 -37 25 4 16 0 29 -14 41 -23 21
-19 36 8 36 21 0 51 63 58 123 3 23 11 48 16 55 6 8 10 27 9 43 -3 31 17 39
37 15z m-4096 -32 c-4 -12 -8 -13 -14 -3 -9 15 -2 32 11 24 5 -3 6 -13 3 -21z
m4593 14 c4 -6 10 -25 14 -42 3 -17 12 -31 20 -31 8 0 17 -14 21 -32 3 -17 16
-43 28 -58 21 -28 28 -69 12 -79 -5 -3 -11 7 -14 22 -3 15 -17 43 -31 62 -39
53 -76 127 -76 150 0 22 15 27 26 8z m-4287 -35 c3 -70 6 -99 13 -108 3 -5 9
-37 13 -70 4 -33 11 -65 16 -71 5 -6 9 -22 8 -35 -3 -66 4 -194 11 -208 25
-53 38 -115 27 -131 -8 -14 -7 -24 7 -45 10 -15 15 -34 11 -43 -13 -32 -13
-71 1 -83 16 -13 19 -69 4 -69 -5 0 -10 -7 -10 -15 0 -18 21 -20 38 -3 27 27
11 -25 -19 -63 -31 -39 -31 -59 -1 -59 12 0 9 -7 -13 -24 -21 -17 -32 -21 -37
-13 -3 7 -11 91 -17 187 -6 96 -13 209 -16 250 -2 41 -9 120 -14 175 -6 55
-15 150 -21 210 -6 61 -15 137 -19 170 -5 33 -6 63 -4 68 9 16 20 6 22 -20z
m-303 -70 c-12 -12 -29 15 -21 34 7 17 8 16 18 -5 5 -12 7 -25 3 -29z m-496
28 c0 -24 -14 -71 -21 -71 -14 0 -20 39 -9 60 11 20 30 28 30 11z m4463 -311
c-3 -25 -14 -81 -24 -125 -10 -44 -19 -105 -19 -135 0 -30 -7 -104 -15 -165
-8 -60 -15 -137 -16 -170 0 -33 -4 -69 -8 -79 -7 -19 -8 -19 -14 -1 -10 25
-22 745 -13 745 4 0 16 -10 25 -22 23 -27 41 -16 41 25 l0 32 24 -30 c21 -25
24 -37 19 -75z m-2736 84 c-3 -3 -12 -4 -19 -1 -8 3 -5 6 6 6 11 1 17 -2 13
-5z m3146 -28 c7 -16 -1 -26 -20 -26 -7 0 -13 9 -13 20 0 23 25 27 33 6z
m-2879 -180 c85 -50 126 -161 92 -250 -22 -57 -91 -121 -148 -136 -106 -29
-213 16 -261 110 -25 47 -28 63 -24 114 7 78 43 130 117 169 48 25 63 28 117
24 43 -3 76 -13 107 -31z m2554 -68 c16 -16 15 -38 0 -38 -21 1 -51 28 -43 39
8 14 28 14 43 -1z m-24 -172 c15 -35 9 -97 -9 -97 -14 0 -26 63 -15 76 5 6 7
21 3 33 -8 34 5 26 21 -12z m3 -538 c0 -200 3 -402 7 -450 l8 -88 -36 0 c-29
0 -39 5 -48 25 -10 21 -8 28 8 40 18 14 18 14 -3 15 -32 0 -38 18 -10 31 27
12 41 53 27 79 -4 8 -6 34 -4 57 2 23 -1 45 -6 48 -6 4 -4 16 6 30 13 20 14
33 5 72 -14 62 -16 94 -7 114 4 9 2 36 -3 60 -9 40 -8 46 16 71 l25 27 -19 24
c-27 35 -26 156 2 187 10 11 21 20 25 20 4 0 7 -163 7 -362z m-3579 180 c-6
-18 -28 -21 -28 -4 0 9 7 16 16 16 9 0 14 -5 12 -12z m1829 -24 c14 -13 14
-17 2 -25 -10 -6 -15 -3 -18 9 -2 9 -8 20 -15 24 -8 5 -7 8 2 8 7 0 21 -7 29
-16z m-44 -19 c-3 -13 -53 -20 -53 -7 0 15 13 23 35 20 11 -2 19 -7 18 -13z
m-1819 -14 c17 -11 33 -18 37 -15 4 2 10 0 14 -6 3 -5 -2 -10 -12 -10 -11 0
-24 -5 -31 -12 -15 -15 -16 -60 0 -76 9 -9 8 -18 -2 -37 -10 -19 -11 -28 -3
-33 6 -4 12 -16 14 -27 3 -13 15 -22 34 -25 41 -7 40 -34 -1 -38 -28 -3 -32
-7 -38 -44 -4 -24 -2 -46 4 -53 8 -10 6 -15 -9 -20 -33 -10 -24 -25 13 -25 19
0 38 -5 41 -10 7 -12 -3 -50 -13 -49 -25 4 -31 -3 -26 -31 4 -18 1 -36 -6 -45
-10 -13 -9 -15 9 -15 18 0 20 -4 15 -26 -5 -18 -3 -25 3 -21 11 7 23 -13 23
-38 0 -7 -13 -15 -30 -18 -16 -4 -30 -11 -30 -17 0 -5 14 -10 30 -10 36 0 39
-16 6 -31 -17 -8 -25 -21 -28 -48 -3 -20 -8 -44 -12 -53 -6 -13 -2 -19 18 -24
44 -11 31 -29 -16 -25 -24 3 -23 -4 7 -33 24 -24 25 -27 11 -55 -9 -16 -21
-31 -28 -34 -10 -4 -11 -7 0 -18 21 -23 15 -49 -13 -49 -35 0 -31 -23 8 -40
l32 -14 -40 -3 c-48 -5 -63 -17 -46 -37 9 -10 9 -16 1 -21 -6 -4 -10 -14 -8
-23 1 -10 -1 -23 -6 -30 -4 -7 -2 -19 5 -28 10 -12 8 -17 -7 -29 -15 -11 -17
-16 -6 -26 18 -19 15 -39 -8 -39 -24 0 -25 -13 -4 -45 15 -23 15 -24 -10 -31
-14 -3 -26 -12 -26 -20 0 -15 10 -17 48 -14 23 2 52 -15 52 -31 0 -5 -22 -9
-50 -9 -38 0 -50 -4 -50 -15 0 -11 11 -15 39 -15 24 0 41 -5 44 -14 9 -22 -1
-25 -60 -19 -50 6 -55 4 -51 -13 2 -14 14 -20 43 -24 61 -8 53 -33 -10 -34
-39 -1 -49 -4 -46 -16 12 -50 11 -81 -4 -87 -11 -4 -15 -13 -11 -28 4 -14 0
-28 -9 -35 -8 -7 -15 -20 -15 -29 0 -9 -5 -22 -11 -28 -7 -7 -8 -19 -4 -30 5
-10 7 -24 6 -30 -3 -19 54 -16 69 2 20 24 23 10 5 -24 -12 -24 -23 -31 -48
-33 -17 -1 -45 -3 -62 -4 -52 -3 -55 -4 -55 -20 0 -15 11 -32 66 -101 14 -17
26 -24 37 -20 23 9 22 47 -1 47 -21 0 -42 18 -42 37 0 17 25 17 39 -1 7 -8 20
-12 30 -9 9 2 23 -3 30 -11 19 -23 46 -20 63 6 13 20 18 21 40 11 30 -14 48
-1 48 33 0 29 20 84 31 84 5 0 6 -18 3 -41 -6 -33 -2 -52 16 -88 13 -25 26
-53 30 -61 5 -10 -4 -29 -26 -55 -18 -22 -34 -37 -36 -35 -2 3 -11 22 -21 43
-19 42 -27 45 -51 18 -17 -18 -17 -19 2 -25 11 -4 22 -21 28 -44 13 -53 46
-56 75 -8 24 41 34 44 48 17 11 -20 43 -32 58 -22 6 3 15 16 22 29 16 30 37
28 58 -8 9 -17 25 -33 35 -36 22 -7 58 4 58 17 0 6 14 31 31 56 l31 45 35 -36
c20 -20 39 -36 44 -36 20 0 56 23 64 43 16 34 32 31 60 -12 27 -44 49 -50 81
-26 10 8 27 15 36 15 22 0 88 -39 88 -52 0 -6 6 -8 14 -5 8 3 17 -2 21 -11 3
-9 1 -18 -5 -20 -6 -2 -17 -10 -24 -18 -22 -21 -51 -17 -66 11 -13 25 -44 41
-69 36 -14 -3 -65 -36 -89 -59 -12 -11 -18 -10 -34 5 -42 38 -118 11 -160 -58
-21 -34 -31 -31 -99 22 -20 16 -47 29 -60 29 -13 0 -32 7 -43 15 -10 8 -38 17
-62 21 -59 9 -95 -18 -117 -87 -25 -75 -22 -131 8 -175 14 -20 23 -40 20 -44
-8 -13 43 -53 59 -47 20 8 21 36 1 42 -51 16 -50 16 -35 25 8 6 33 10 56 10
38 0 43 -3 72 -50 26 -41 36 -50 60 -50 37 0 75 40 99 105 10 28 25 50 33 50
8 0 23 -17 34 -37 21 -40 45 -48 66 -23 18 22 29 19 36 -10 3 -14 12 -25 20
-25 9 0 14 -11 14 -33 0 -18 5 -38 11 -44 18 -18 -107 -26 -306 -20 -156 5
-301 20 -313 32 -2 2 0 9 4 17 7 11 9 39 5 64 -1 4 -8 1 -16 -6 -12 -10 -16
-10 -19 1 -2 8 -11 41 -21 74 -9 33 -19 66 -21 73 -2 8 -13 16 -24 19 -15 4
-17 9 -10 23 16 30 12 65 -10 88 -12 12 -25 22 -29 22 -16 0 -20 28 -7 46 12
16 14 15 27 -11 27 -54 78 -59 88 -9 2 10 8 22 14 25 6 4 7 15 2 25 -8 18 -9
17 -12 -3 -9 -49 -63 -56 -63 -9 0 19 -7 27 -27 32 -27 7 -49 -10 -79 -62 -10
-17 -14 -18 -37 -5 -40 21 -86 16 -116 -13 -17 -16 -39 -26 -56 -26 -20 0 -36
-9 -51 -27 -21 -27 -23 -27 -41 -11 -15 14 -22 15 -31 6 -9 -9 -17 1 -35 43
-14 30 -27 64 -31 75 -11 35 -68 87 -132 119 -32 16 -61 31 -63 32 -11 7 25
33 45 33 13 0 28 9 34 21 9 16 17 19 41 14 18 -4 29 -3 29 4 0 6 7 11 15 11
22 0 33 30 29 83 -3 52 16 65 37 25 19 -36 37 -50 61 -46 18 2 24 12 31 45 l8
43 28 -15 c26 -13 30 -13 45 4 9 10 16 23 16 29 0 7 5 12 10 12 6 0 10 9 10
19 0 33 11 51 31 51 10 0 19 -7 19 -15 0 -8 9 -19 20 -25 21 -11 28 -54 10
-65 -5 -3 -10 -18 -10 -33 0 -35 -26 -72 -49 -72 -11 0 -21 -7 -25 -15 -7 -19
-52 -19 -60 0 -3 8 -13 15 -22 15 -22 0 -75 -59 -78 -87 -4 -40 -20 -46 -46
-18 -13 14 -31 25 -39 25 -20 0 -56 -63 -48 -84 9 -22 28 -20 34 4 7 26 25 25
48 0 21 -23 56 -23 61 0 13 61 33 115 43 118 7 2 25 -8 41 -23 l27 -26 21 25
c11 14 25 26 31 26 15 0 14 -5 -5 -41 -8 -17 -13 -37 -10 -46 9 -22 49 -12 63
17 53 106 131 319 149 410 35 179 54 271 68 337 29 127 43 240 67 543 21 268
27 388 28 573 1 103 4 187 9 187 4 0 20 -9 36 -19z m2021 -42 c-6 -9 -55 10
-55 22 0 4 13 3 30 -2 16 -6 28 -15 25 -20z m-398 15 c-3 -3 -12 -4 -19 -1 -8
3 -5 6 6 6 11 1 17 -2 13 -5z m28 -45 c-5 -7 -55 0 -55 7 0 3 10 8 23 13 21 8
41 -4 32 -20z m425 6 c0 -8 -4 -15 -10 -15 -5 0 -7 7 -4 15 4 8 8 15 10 15 2
0 4 -7 4 -15z m-50 -5 c0 -5 -5 -10 -11 -10 -5 0 -7 5 -4 10 3 6 8 10 11 10 2
0 4 -4 4 -10z m-585 -49 c-3 -6 -11 -11 -17 -11 -6 0 -6 6 2 15 14 17 26 13
15 -4z m42 -9 c-2 -22 -6 -28 -19 -24 -22 5 -24 22 -3 22 8 0 15 7 15 15 0 8
2 15 5 15 2 0 3 -13 2 -28z m703 24 c0 -11 -19 -15 -25 -6 -3 5 1 10 9 10 9 0
16 -2 16 -4z m73 -33 c29 -9 19 -19 -19 -19 -21 0 -32 2 -25 4 6 2 11 8 11 14
0 6 -7 7 -16 4 -9 -3 -12 -2 -9 5 4 6 14 7 24 4 9 -4 24 -10 34 -12z m-738 -3
c-3 -5 -10 -10 -16 -10 -5 0 -9 5 -9 10 0 6 7 10 16 10 8 0 12 -4 9 -10z
m-135 -5 c0 -2 -25 -17 -55 -31 -30 -15 -55 -31 -55 -36 0 -4 -4 -8 -10 -8
-19 0 -10 17 18 31 15 8 29 17 32 20 16 18 70 37 70 24z m47 -11 c-3 -3 -12
-4 -19 -1 -8 3 -5 6 6 6 11 1 17 -2 13 -5z m933 -33 c25 -13 56 -31 70 -38 24
-12 23 -13 -17 -10 -23 1 -41 6 -40 11 2 11 -53 44 -75 45 -10 1 -18 8 -18 16
0 17 15 13 80 -24z m-960 11 c0 -8 -35 -33 -62 -44 -31 -13 -19 10 12 24 17 7
30 16 30 20 0 5 5 8 10 8 6 0 10 -3 10 -8z m825 -2 c3 -5 2 -10 -4 -10 -5 0
-13 5 -16 10 -3 6 -2 10 4 10 5 0 13 -4 16 -10z m57 -7 c20 -18 25 -57 6 -51
-19 7 -53 68 -37 68 7 0 21 -7 31 -17z m-1039 -36 c3 -9 -6 -13 -32 -14 l-36
-1 30 13 c17 7 31 14 31 14 1 1 4 -5 7 -12z m1094 -3 c-3 -3 -12 -4 -19 -1 -8
3 -5 6 6 6 11 1 17 -2 13 -5z m-784 -11 c-7 -2 -19 -2 -25 0 -7 3 -2 5 12 5
14 0 19 -2 13 -5z m-406 -38 c-9 -8 -22 -15 -29 -15 -7 0 -2 9 12 20 28 21 40
19 17 -5z m1364 15 c10 -6 19 -16 19 -22 0 -7 -4 -7 -12 0 -7 6 -29 15 -48 20
-33 10 -34 10 -7 11 16 1 37 -4 48 -9z m-1250 -25 c-1 -15 -24 -12 -29 3 -3 9
2 13 12 10 10 -1 17 -7 17 -13z m142 -11 c-4 -10 -9 -12 -15 -6 -12 12 -1 35
12 27 5 -3 6 -13 3 -21z m-1343 -9 c0 -8 -7 -15 -15 -15 -16 0 -20 12 -8 23
11 12 23 8 23 -8z m1110 0 c7 -9 8 -15 2 -15 -5 0 -12 7 -16 15 -3 8 -4 15 -2
15 2 0 9 -7 16 -15z m1410 0 c7 -8 16 -13 20 -10 5 3 11 1 15 -5 11 -18 -25
-10 -45 10 -11 11 -16 20 -11 20 5 0 14 -7 21 -15z m-113 -11 c-3 -3 -12 -4
-19 -1 -8 3 -5 6 6 6 11 1 17 -2 13 -5z m-1219 -11 c-10 -2 -28 -2 -40 0 -13
2 -5 4 17 4 22 1 32 -1 23 -4z m212 -3 c0 -5 -2 -10 -4 -10 -3 0 -8 5 -11 10
-3 6 -1 10 4 10 6 0 11 -4 11 -10z m-488 -42 c-6 -6 -15 -8 -19 -4 -4 4 -1 11
7 16 19 12 27 3 12 -12z m108 7 c0 -8 -4 -15 -10 -15 -5 0 -10 7 -10 15 0 8 5
15 10 15 6 0 10 -7 10 -15z m1287 -7 c-3 -8 -6 -5 -6 6 -1 11 2 17 5 13 3 -3
4 -12 1 -19z m73 13 c0 -11 -40 -22 -53 -14 -5 3 -3 9 4 14 18 11 49 11 49 0z
m271 -10 c-20 -13 -3 -33 22 -25 21 6 21 5 -2 -11 -19 -15 -25 -15 -32 -4 -10
17 -11 33 -2 42 3 4 11 7 17 7 6 0 5 -4 -3 -9z m-31 -11 c0 -5 -7 -10 -16 -10
-8 0 -12 5 -9 10 3 6 10 10 16 10 5 0 9 -4 9 -10z m-210 -10 c0 -5 -5 -10 -11
-10 -5 0 -7 5 -4 10 3 6 8 10 11 10 2 0 4 -4 4 -10z m297 -32 c-3 -7 -5 -2 -5
12 0 14 2 19 5 13 2 -7 2 -19 0 -25z m-1870 16 c-3 -3 -12 -4 -19 -1 -8 3 -5
6 6 6 11 1 17 -2 13 -5z m103 -4 c0 -12 -8 -12 -35 0 -18 8 -17 9 8 9 15 1 27
-3 27 -9z m1810 0 c0 -5 -2 -10 -4 -10 -3 0 -8 5 -11 10 -3 6 -1 10 4 10 6 0
11 -4 11 -10z m-380 -10 c0 -16 -38 -32 -46 -18 -4 7 -3 8 4 4 7 -4 12 -1 12
8 0 9 7 16 15 16 8 0 15 -4 15 -10z m-1575 -10 c3 -5 -3 -10 -15 -10 -12 0
-18 5 -15 10 3 6 10 10 15 10 5 0 12 -4 15 -10z m2048 -31 c14 -14 12 -17 -20
-28 -29 -11 -37 -11 -44 0 -6 10 -9 6 -9 -14 0 -16 -4 -26 -10 -22 -18 11 -11
44 12 56 16 9 23 9 26 0 2 -6 11 -11 20 -11 12 0 10 5 -8 17 -14 10 -28 18
-32 19 -5 1 -11 2 -15 3 -5 1 -2 5 6 10 14 9 48 -4 74 -30z m-433 21 c0 -5 -2
-10 -4 -10 -3 0 -8 5 -11 10 -3 6 -1 10 4 10 6 0 11 -4 11 -10z m-1672 -20
c-7 -11 -20 -20 -28 -20 -10 0 -7 7 10 20 31 25 33 25 18 0z m112 -1 c0 -5 -9
-9 -20 -9 -22 0 -27 16 -7 23 15 5 27 -1 27 -14z m1780 -14 c0 -5 -5 -3 -10 5
-5 8 -10 20 -10 25 0 6 5 3 10 -5 5 -8 10 -19 10 -25z m-1830 -1 c0 -2 -7 -4
-15 -4 -8 0 -15 4 -15 10 0 5 7 7 15 4 8 -4 15 -8 15 -10z m140 6 c0 -5 -10
-10 -22 -10 -19 0 -20 2 -8 10 19 13 30 13 30 0z m1380 -19 c0 -6 -4 -13 -10
-16 -5 -3 -10 1 -10 9 0 9 5 16 10 16 6 0 10 -4 10 -9z m-1293 -33 c-3 -7 -5
-2 -5 12 0 14 2 19 5 13 2 -7 2 -19 0 -25z m486 25 c-7 -2 -21 -2 -30 0 -10 3
-4 5 12 5 17 0 24 -2 18 -5z m100 0 c-7 -2 -19 -2 -25 0 -7 3 -2 5 12 5 14 0
19 -2 13 -5z m-973 -7 c0 -11 -19 -15 -25 -6 -3 5 1 10 9 10 9 0 16 -2 16 -4z
m770 -6 c12 -8 9 -10 -12 -10 -16 0 -28 5 -28 10 0 13 20 13 40 0z m-710 -10
c0 -5 -4 -10 -10 -10 -5 0 -10 5 -10 10 0 6 5 10 10 10 6 0 10 -4 10 -10z
m1117 -22 c-3 -8 -6 -5 -6 6 -1 11 2 17 5 13 3 -3 4 -12 1 -19z m1183 6 c0 -2
-7 -4 -15 -4 -8 0 -15 4 -15 10 0 5 7 7 15 4 8 -4 15 -8 15 -10z m-1200 -36
c0 -6 -7 -5 -15 2 -8 7 -15 17 -15 22 0 6 7 5 15 -2 8 -7 15 -17 15 -22z
m1105 22 c3 -5 -1 -10 -9 -10 -9 0 -16 5 -16 10 0 6 4 10 9 10 6 0 13 -4 16
-10z m-1945 -14 c0 -3 -4 -8 -10 -11 -5 -3 -10 -1 -10 4 0 6 5 11 10 11 6 0
10 -2 10 -4z m-420 -49 c0 -20 -5 -23 -45 -22 -25 0 -45 3 -45 8 0 4 8 7 18 7
10 0 27 7 38 15 27 20 34 19 34 -8z m2232 -32 c-8 -15 -10 -15 -22 0 -11 13
-10 15 4 9 12 -5 16 0 17 22 1 24 3 25 6 7 2 -12 0 -30 -5 -38z m378 45 c0 -5
-7 -7 -15 -4 -8 4 -15 8 -15 10 0 2 7 4 15 4 8 0 15 -4 15 -10z m-1333 -32
c-3 -7 -5 -2 -5 12 0 14 2 19 5 13 2 -7 2 -19 0 -25z m1303 12 c0 -5 10 -10
22 -10 12 0 19 -3 15 -6 -9 -9 -57 5 -57 16 0 6 5 10 10 10 6 0 10 -4 10 -10z
m-50 -10 c0 -5 -7 -10 -16 -10 -8 0 -12 5 -9 10 3 6 10 10 16 10 5 0 9 -4 9
-10z m135 0 c3 -5 2 -10 -4 -10 -5 0 -13 5 -16 10 -3 6 -2 10 4 10 5 0 13 -4
16 -10z m-2358 -72 c-2 -13 -4 -3 -4 22 0 25 2 35 4 23 2 -13 2 -33 0 -45z
m1483 58 c0 -3 -4 -8 -10 -11 -5 -3 -10 -1 -10 4 0 6 5 11 10 11 6 0 10 -2 10
-4z m930 -118 c0 -153 -17 -146 -22 10 -2 85 0 112 9 112 10 0 13 -30 13 -122z
m-2915 92 c-3 -5 -10 -10 -16 -10 -5 0 -9 5 -9 10 0 6 7 10 16 10 8 0 12 -4 9
-10z m602 -12 c-3 -8 -6 -5 -6 6 -1 11 2 17 5 13 3 -3 4 -12 1 -19z m523 12
c0 -5 -2 -10 -4 -10 -3 0 -8 5 -11 10 -3 6 -1 10 4 10 6 0 11 -4 11 -10z
m1296 -27 c-10 -10 -19 5 -10 18 6 11 8 11 12 0 2 -7 1 -15 -2 -18z m804 -36
c1 -111 64 -534 101 -674 30 -116 100 -337 144 -458 15 -38 30 -83 36 -100 5
-16 13 -39 18 -50 5 -11 22 -53 37 -92 20 -53 32 -73 45 -73 26 0 30 12 17 53
-10 33 -9 38 13 56 29 25 54 23 54 -4 0 -11 4 -26 8 -33 5 -7 6 -19 3 -27 -17
-45 27 -58 76 -24 34 25 25 49 -11 29 -31 -16 -44 -3 -37 36 12 60 -45 93 -99
58 -30 -19 -41 -13 -50 28 -4 17 -15 45 -25 62 -19 36 -17 46 22 100 36 50 36
62 -2 39 -16 -9 -30 -21 -30 -25 0 -4 -7 -8 -15 -8 -17 0 -42 53 -57 123 -13
64 0 79 36 41 26 -28 26 -28 56 -11 l29 18 16 -38 c9 -21 14 -48 12 -60 -3
-15 2 -23 16 -27 17 -4 19 -10 12 -48 -4 -24 -8 -59 -9 -78 -1 -32 2 -35 28
-38 21 -3 34 3 46 19 l17 22 11 -30 c15 -43 46 -48 76 -12 14 16 27 29 30 29
3 0 6 -18 6 -39 0 -22 5 -52 10 -67 10 -25 14 -26 56 -21 33 3 47 1 51 -9 3
-8 14 -14 24 -14 33 0 20 -24 -30 -56 l-48 -30 -16 28 c-22 38 -52 38 -42 1 3
-16 13 -35 22 -45 13 -14 13 -19 0 -40 -8 -12 -20 -40 -27 -60 -7 -23 -18 -38
-28 -39 -11 0 -12 -2 -4 -6 6 -2 12 -11 12 -20 0 -22 -41 -156 -51 -167 -5 -6
-9 -21 -9 -34 0 -31 -17 -62 -35 -62 -8 0 -15 5 -15 10 0 6 -15 10 -33 10 -23
0 -40 9 -60 30 l-28 30 33 20 c18 11 38 20 45 20 23 0 55 59 48 88 -8 31 -43
72 -62 72 -15 0 -17 16 -3 25 6 3 10 10 10 16 0 13 -38 11 -42 -3 -3 -8 -16
-7 -48 6 -48 19 -100 15 -120 -9 -30 -36 -70 -6 -70 52 0 15 -7 37 -15 47 -17
22 -11 36 15 36 10 0 21 4 24 9 9 15 -24 71 -43 71 -24 0 -41 20 -41 47 0 30
28 30 32 1 2 -18 9 -22 28 -20 14 1 31 9 38 16 11 11 8 14 -17 19 -43 9 -39
30 9 52 22 10 40 22 40 27 0 18 -50 7 -76 -17 -29 -27 -84 -35 -84 -11 0 18
27 39 51 41 26 2 35 13 21 27 -7 7 -12 21 -12 32 0 11 -8 28 -17 38 -15 17
-15 20 5 39 30 27 28 39 -8 39 -16 0 -30 -4 -30 -10 0 -5 -7 -7 -17 -3 -13 5
-9 12 20 36 25 19 37 37 37 54 l0 24 -26 -20 c-46 -36 -74 -20 -37 21 16 18
16 19 -5 25 -26 6 -28 25 -7 47 21 21 19 26 -11 26 -24 0 -25 2 -19 33 4 17
16 41 26 53 25 27 24 36 -5 28 -33 -8 -41 11 -17 43 l21 26 -26 44 -25 44 22
18 22 18 -26 7 c-15 3 -27 11 -27 16 0 6 -6 10 -14 10 -7 0 -19 7 -27 16 -11
13 -8 19 19 41 18 13 32 32 32 41 -1 14 -3 14 -12 -3 -6 -11 -12 -21 -13 -23
-2 -2 -14 0 -29 4 -30 7 -34 28 -8 43 15 9 15 13 4 32 -17 26 -3 38 34 31 35
-6 30 12 -8 29 -38 16 -48 47 -22 66 16 11 14 14 -20 28 -36 15 -37 17 -23 38
8 12 24 23 36 25 29 5 27 20 -5 32 -32 13 -27 34 10 38 36 4 28 26 -11 30 -39
4 -70 34 -51 50 13 10 95 21 111 14 4 -2 7 -27 7 -55z m-3234 37 c35 -9 29
-21 -10 -20 -19 1 -32 5 -29 10 3 4 -1 13 -8 18 -11 8 -10 8 4 4 11 -3 30 -9
43 -12z m1054 7 c0 -4 -13 -8 -30 -7 -39 1 -39 16 0 16 17 0 30 -4 30 -9z
m260 -1 c0 -5 -7 -10 -16 -10 -8 0 -12 5 -9 10 3 6 10 10 16 10 5 0 9 -4 9
-10z m-170 -16 c0 -8 -4 -12 -10 -9 -5 3 -10 10 -10 16 0 5 5 9 10 9 6 0 10
-7 10 -16z m-1220 -4 c0 -5 -7 -10 -16 -10 -8 0 -12 5 -9 10 3 6 10 10 16 10
5 0 9 -4 9 -10z m1190 0 c0 -5 -4 -10 -10 -10 -5 0 -10 5 -10 10 0 6 5 10 10
10 6 0 10 -4 10 -10z m-1233 -32 c-3 -7 -5 -2 -5 12 0 14 2 19 5 13 2 -7 2
-19 0 -25z m1150 26 c-3 -3 -12 -4 -19 -1 -8 3 -5 6 6 6 11 1 17 -2 13 -5z
m1407 -9 c-4 -8 -11 -12 -16 -9 -6 4 -5 10 3 15 19 12 19 11 13 -6z m-1357 -1
c-3 -3 -12 -4 -19 -1 -8 3 -5 6 6 6 11 1 17 -2 13 -5z m1310 -16 c-3 -8 -6 -5
-6 6 -1 11 2 17 5 13 3 -3 4 -12 1 -19z m-1252 -58 c-4 -11 -11 -20 -17 -20
-5 0 -7 7 -4 16 3 9 6 25 6 37 1 20 2 20 11 4 6 -9 7 -26 4 -37z m1303 27 c2
-12 -1 -15 -12 -11 -19 7 -22 38 -3 32 6 -3 13 -12 15 -21z m-1258 -18 c0 -6
-4 -7 -10 -4 -5 3 -10 11 -10 16 0 6 5 7 10 4 6 -3 10 -11 10 -16z m-640 -13
c0 -3 -4 -8 -10 -11 -5 -3 -10 -1 -10 4 0 6 5 11 10 11 6 0 10 -2 10 -4z m934
-12 c10 -25 -1 -29 -14 -5 -6 12 -7 21 -1 21 5 0 12 -7 15 -16z m1375 -61 c0
-43 -3 -72 -6 -65 -2 6 -13 12 -22 12 -24 0 -30 8 -24 31 3 10 14 19 24 19 15
0 19 7 19 40 0 22 2 40 5 40 3 0 5 -35 4 -77z m-1659 57 c0 -5 -7 -10 -16 -10
-8 0 -12 5 -9 10 3 6 10 10 16 10 5 0 9 -4 9 -10z m120 1 c0 -15 -16 -22 -34
-15 -25 9 -19 24 9 24 14 0 25 -4 25 -9z m505 -1 c3 -5 1 -10 -4 -10 -6 0 -11
5 -11 10 0 6 2 10 4 10 3 0 8 -4 11 -10z m615 0 c0 -5 -4 -10 -10 -10 -5 0
-10 5 -10 10 0 6 5 10 10 10 6 0 10 -4 10 -10z m-49 -20 c22 12 24 7 8 -21 -8
-16 -13 -18 -25 -8 -8 7 -14 7 -14 1 0 -5 -8 -13 -17 -16 -16 -6 -16 -6 0 12
9 10 18 27 18 38 1 17 2 17 6 2 4 -14 8 -16 24 -8z m-1021 0 c0 -5 -4 -10 -10
-10 -5 0 -10 5 -10 10 0 6 5 10 10 10 6 0 10 -4 10 -10z m-74 -21 c3 -6 2 -15
-3 -20 -13 -13 -43 -1 -43 17 0 16 36 19 46 3z m-156 -14 c7 -9 11 -18 8 -20
-6 -6 -58 18 -58 28 0 13 37 7 50 -8z m54 -9 c3 -13 9 -31 12 -40 5 -12 2 -15
-10 -10 -11 4 -16 1 -16 -12 0 -17 -1 -18 -17 -1 -17 17 -17 19 0 29 13 7 17
17 13 34 -4 13 -2 24 3 24 5 0 12 -11 15 -24z m166 0 c0 -8 -4 -17 -9 -20 -5
-3 -7 -15 -4 -27 7 -25 -15 -43 -34 -27 -10 8 -10 15 0 32 6 11 13 26 13 31 1
6 2 13 3 18 2 14 31 7 31 -7z m71 -2 c11 -14 11 -18 -1 -28 -9 -6 -14 -21 -12
-33 3 -19 -1 -23 -22 -23 -19 0 -26 5 -26 20 0 11 7 20 15 20 18 0 20 17 3 22
-16 6 -2 38 15 38 8 0 21 -7 28 -16z m-981 -4 c0 -5 -2 -10 -4 -10 -3 0 -8 5
-11 10 -3 6 -1 10 4 10 6 0 11 -4 11 -10z m50 0 c0 -5 -4 -10 -10 -10 -5 0
-10 5 -10 10 0 6 5 10 10 10 6 0 10 -4 10 -10z m1194 -5 c11 -8 18 -17 15 -19
-2 -2 -15 4 -28 15 -27 22 -15 26 13 4z m-86 -7 c19 -19 14 -28 -12 -28 -27 0
-41 14 -31 30 8 14 28 13 43 -2z m167 2 c-3 -5 -10 -10 -16 -10 -5 0 -9 5 -9
10 0 6 7 10 16 10 8 0 12 -4 9 -10z m991 -3 c4 -4 -37 -6 -92 -5 -87 1 -91 2
-39 7 79 8 122 7 131 -2z m-364 -9 c-9 -9 -15 -9 -24 0 -9 9 -7 12 12 12 19 0
21 -3 12 -12z m-1876 -45 c-11 -11 -19 6 -11 24 8 17 8 17 12 0 3 -10 2 -21
-1 -24z m-766 -173 c7 -52 28 -146 46 -209 19 -62 32 -116 29 -119 -13 -14
-49 -11 -60 5 -11 15 -15 15 -46 -4 -25 -15 -40 -19 -57 -12 -25 9 -25 25 -2
124 12 52 43 264 43 290 -1 11 4 45 10 75 l12 55 7 -55 c3 -30 12 -98 18 -150z
m1718 173 c-5 -26 -38 -29 -38 -4 0 15 6 21 21 21 14 0 19 -5 17 -17z m1292 5
c0 -4 -91 -7 -202 -6 -112 0 -180 4 -153 7 74 9 355 8 355 -1z m-1853 -13 c0
-8 -4 -15 -9 -15 -4 0 -8 7 -8 15 0 8 4 15 8 15 5 0 9 -7 9 -15z m738 5 c-3
-5 -12 -10 -18 -10 -7 0 -6 4 3 10 19 12 23 12 15 0z m-436 -16 c13 -12 -81
-6 -94 7 -5 5 10 7 40 3 28 -3 52 -7 54 -10z m399 2 c3 -3 -6 -6 -21 -6 -14 0
-28 4 -31 9 -6 9 42 6 52 -3z m-1248 -6 c0 -5 -19 -9 -42 -9 l-43 2 40 7 c22
4 41 8 43 9 1 0 2 -3 2 -9z m110 -10 c12 -8 11 -10 -7 -10 -13 0 -23 5 -23 10
0 13 11 13 30 0z m70 0 c0 -5 -2 -10 -4 -10 -3 0 -8 5 -11 10 -3 6 -1 10 4 10
6 0 11 -4 11 -10z m-537 -7 c-24 -2 -62 -2 -85 0 -24 2 -5 4 42 4 47 0 66 -2
43 -4z m150 0 c-7 -2 -19 -2 -25 0 -7 3 -2 5 12 5 14 0 19 -2 13 -5z m1239
-18 c-5 -30 -42 -36 -42 -7 0 23 8 32 30 32 13 0 16 -6 12 -25z m66 12 c7 -8
7 -18 2 -27 -6 -8 -10 -25 -10 -37 0 -25 -1 -26 -24 -17 -17 7 -22 34 -6 34 5
0 7 7 4 15 -7 18 2 45 14 45 5 0 14 -6 20 -13z m58 -8 c10 -17 -13 -36 -27
-22 -12 12 -4 33 11 33 5 0 12 -5 16 -11z m-855 -23 c67 -22 130 -46 167 -63
25 -12 36 -13 45 -4 16 16 54 13 61 -5 4 -9 3 -78 0 -153 -8 -145 -13 -160
-61 -161 -16 0 -25 8 -29 25 -6 24 -8 25 -98 25 -51 0 -96 4 -101 9 -6 5 -26
11 -45 13 -32 3 -35 6 -51 58 -17 56 -16 76 3 64 6 -4 1 7 -12 24 -27 36 -22
81 13 144 25 42 40 46 108 24z m914 -26 c7 0 15 -6 18 -14 8 -19 -40 -27 -58
-10 -9 9 -16 10 -20 4 -8 -13 -45 -13 -45 -1 0 22 83 54 88 34 2 -7 9 -13 17
-13z m-245 16 c0 -11 -19 -15 -25 -6 -3 5 1 10 9 10 9 0 16 -2 16 -4z m372
-81 c11 -14 23 -25 28 -25 23 0 124 -71 141 -99 28 -46 24 -53 -23 -34 -31 12
-43 14 -46 5 -5 -17 -42 -15 -42 3 0 8 7 15 16 15 21 0 -20 34 -54 44 -12 4
-20 12 -16 17 10 16 -17 39 -45 39 -19 0 -22 3 -12 9 7 5 10 14 7 20 -8 13 1
31 16 31 5 0 19 -11 30 -25z m1393 -68 c3 -34 18 -109 31 -166 32 -132 30
-153 -16 -163 -25 -5 -42 -2 -59 9 -12 8 -32 13 -42 10 -25 -7 -24 0 6 125 14
57 30 143 37 191 10 74 14 86 24 72 7 -9 15 -44 19 -78z m-1465 58 c0 -18 -5
-25 -19 -25 -28 0 -37 21 -16 37 27 19 35 16 35 -12z m-122 -2 c-2 -10 -12
-18 -23 -18 -11 0 -21 8 -23 18 -3 13 3 17 23 17 20 0 26 -4 23 -17z m52 3 c0
-8 -5 -18 -11 -22 -14 -8 -33 11 -25 25 10 16 36 13 36 -3z m-2 -69 c2 -10 -3
-17 -11 -17 -18 0 -39 24 -30 34 12 12 38 2 41 -17z m120 14 c29 -2 3 -26 -29
-27 -19 -1 -44 -5 -57 -9 -20 -6 -23 -5 -20 11 4 27 17 33 57 29 20 -1 42 -3
49 -4z m402 -16 c0 -8 -9 -20 -20 -27 -11 -7 -20 -21 -20 -32 0 -15 -5 -17
-32 -12 -57 11 -80 46 -30 46 16 0 37 9 47 20 21 23 55 27 55 5z m-460 -55 c0
-5 -7 -10 -15 -10 -8 0 -15 5 -15 10 0 6 7 10 15 10 8 0 15 -4 15 -10z m66 -2
c8 -13 -33 -51 -47 -42 -7 4 -7 28 0 52 3 8 41 0 47 -10z m64 8 c0 -18 -15
-36 -31 -36 -18 0 -26 20 -12 33 7 8 43 10 43 3z m-1515 -16 c4 -6 -5 -10 -20
-10 -15 0 -24 4 -20 10 3 6 12 10 20 10 8 0 17 -4 20 -10z m1471 -105 c34 -22
97 -103 89 -115 -8 -13 -25 -13 -55 3 -42 22 -229 82 -319 103 -84 20 -117 39
-100 60 7 9 33 26 57 38 l45 23 131 -49 c72 -27 140 -55 152 -63z m154 50 l23
-25 -36 0 c-29 0 -37 4 -37 18 0 39 18 41 50 7z m-1405 0 c0 -5 -21 -11 -47
-13 -45 -3 -64 9 -35 22 20 8 82 2 82 -9z m1276 2 c-1 -4 -1 -14 -1 -22 0 -8
-7 -15 -15 -15 -15 0 -21 31 -8 44 8 8 25 3 24 -7z m67 -4 c-4 -22 -48 -31
-48 -10 0 19 10 27 32 27 13 0 18 -6 16 -17z m-2228 -23 c0 -5 -7 -10 -16 -10
-8 0 -12 5 -9 10 3 6 10 10 16 10 5 0 9 -4 9 -10z m2502 -12 c-12 -12 -54 -7
-59 8 -2 6 10 8 33 6 23 -3 32 -8 26 -14z m-634 -53 c397 -123 413 -131 355
-167 -16 -10 -35 -23 -44 -29 -12 -9 -37 -3 -120 29 -116 46 -198 72 -309 97
-101 23 -140 37 -140 50 1 15 72 64 93 65 11 0 85 -20 165 -45z m350 16 c3 -8
-1 -12 -9 -9 -7 2 -15 10 -17 17 -3 8 1 12 9 9 7 -2 15 -10 17 -17z m75 6 c8
-21 -8 -39 -29 -35 -11 2 -20 13 -22 26 -3 18 1 22 21 22 14 0 27 -6 30 -13z
m65 -4 c-2 -10 -13 -19 -26 -21 -24 -4 -25 -2 -16 22 9 23 46 21 42 -1z
m-2358 -36 c0 -21 -12 -28 -27 -16 -19 16 -16 29 7 29 11 0 20 -6 20 -13z
m2440 -11 c0 -22 -16 -28 -29 -12 -9 11 -9 15 1 19 22 9 28 8 28 -7z m-78 -11
c0 -5 -7 -14 -16 -20 -12 -7 -19 -6 -26 5 -5 8 -10 19 -10 23 0 12 50 4 52 -8z
m-79 -9 c3 -8 3 -17 0 -20 -7 -7 -33 13 -33 25 0 15 27 10 33 -5z m197 -11 c0
-9 -6 -12 -15 -9 -8 4 -15 10 -15 15 0 5 7 9 15 9 8 0 15 -7 15 -15z m-2280
-5 c0 -5 13 -10 29 -10 31 0 45 -12 56 -50 4 -14 14 -33 22 -42 13 -15 12 -18
-8 -29 -13 -6 -32 -20 -43 -30 -19 -19 -20 -19 -46 6 -14 14 -33 25 -41 25
-18 0 -59 -52 -59 -75 0 -22 -22 -18 -48 10 -21 22 -23 31 -17 76 9 64 29 90
65 83 21 -5 30 0 43 20 17 26 47 36 47 16z m2350 -39 c0 -5 -9 -7 -20 -4 -11
3 -20 12 -20 20 0 11 4 11 20 3 11 -6 20 -15 20 -19z m-212 10 c18 -11 11 -46
-8 -46 -9 0 -16 11 -18 28 -3 28 3 33 26 18z m1135 -41 c27 -22 47 -26 47 -10
0 16 28 12 50 -7 36 -31 16 -93 -30 -93 -10 0 -20 -5 -22 -12 -3 -7 -12 -9
-22 -5 -13 5 -16 14 -11 41 4 19 2 36 -3 40 -11 7 -78 -19 -87 -34 -8 -13 -25
-13 -25 1 0 23 33 79 46 79 8 0 14 5 14 10 0 15 15 12 43 -10z m-730 -5 c-3
-13 -30 -18 -51 -10 -14 5 -14 7 -2 16 19 11 56 8 53 -6z m-323 -29 c0 -7 -12
-16 -27 -19 -33 -6 -38 -3 -30 18 8 19 57 20 57 1z m61 -19 c-5 -5 -17 -7 -26
-3 -14 5 -15 9 -5 21 10 12 16 13 27 4 9 -8 10 -16 4 -22z m-64 -32 c3 -9 3
-19 -1 -22 -7 -7 -36 16 -36 28 0 15 30 10 37 -6z m-862 -87 c33 -11 83 -29
110 -40 28 -11 65 -26 83 -32 17 -6 32 -14 32 -17 0 -22 -294 -125 -465 -164
-66 -15 -153 -36 -194 -46 -101 -26 -172 -25 -196 1 -14 16 -16 25 -8 43 15
32 146 217 154 217 11 0 19 -58 12 -91 -8 -42 8 -50 80 -43 56 6 57 6 57 -18
0 -46 20 -51 112 -33 107 21 119 25 113 34 -2 5 -27 11 -55 15 -65 9 -76 26
-91 142 -18 132 -19 131 98 87 54 -19 125 -44 158 -55z m933 75 c5 -17 -26
-29 -40 -15 -6 6 -7 15 -3 22 9 14 37 9 43 -7z m62 -4 c0 -15 -5 -20 -22 -17
-34 5 -37 38 -4 38 20 0 26 -5 26 -21z m160 5 c0 -9 -7 -14 -17 -12 -25 5 -28
28 -4 28 12 0 21 -6 21 -16z m751 -65 c23 -20 50 -15 75 12 9 10 22 19 29 19
27 0 88 -191 65 -205 -5 -3 -11 -1 -15 5 -3 5 -10 10 -16 10 -15 0 -10 -22 9
-39 35 -31 50 -67 62 -151 13 -97 31 -134 61 -125 11 4 19 2 19 -4 0 -6 -4
-11 -10 -11 -5 0 -10 -9 -10 -20 0 -11 -4 -20 -10 -20 -5 0 -10 -6 -10 -12 -1
-7 -10 -24 -21 -37 -19 -23 -23 -24 -52 -12 -98 40 -171 39 -221 -4 -27 -23
-54 -26 -40 -4 10 16 -7 69 -22 69 -17 0 -18 14 -1 32 7 7 25 30 41 51 16 20
31 37 35 37 3 0 14 -14 24 -31 13 -24 22 -30 39 -26 14 4 31 -2 50 -19 37 -30
49 -30 78 1 19 20 21 28 11 38 -10 9 -15 8 -25 -5 -18 -25 -33 -22 -52 8 -13
19 -23 24 -39 20 -14 -4 -28 0 -35 9 -10 12 -8 17 13 26 28 13 61 53 69 86 4
16 -2 30 -23 50 -35 34 -35 40 -6 63 24 20 18 26 -33 32 -23 3 -25 7 -22 44 4
43 -11 65 -30 46 -14 -14 -14 -90 1 -105 27 -27 9 -33 -36 -11 -27 13 -62 24
-79 24 -20 0 -34 6 -38 16 -4 9 -13 14 -21 10 -42 -16 26 96 70 116 14 6 25
16 25 22 0 7 15 27 33 46 l32 35 3 -35 c2 -18 12 -42 23 -51z m-3224 11 c6 0
25 12 42 26 30 25 70 27 55 2 -5 -8 -2 -9 9 -5 10 4 18 -1 22 -14 4 -10 10
-19 14 -19 3 0 15 -15 25 -32 11 -18 32 -49 47 -69 15 -19 30 -46 34 -60 6
-24 5 -24 -37 -21 -49 5 -84 31 -104 79 -15 35 -57 54 -76 35 -8 -8 -4 -14 13
-22 13 -7 39 -36 56 -67 l33 -55 -28 7 c-15 5 -45 11 -67 14 -31 5 -40 10 -40
25 0 27 -18 30 -45 6 -25 -21 -50 -27 -50 -10 0 6 5 10 10 10 6 0 10 7 10 15
0 21 -7 19 -38 -10 -28 -27 -47 -31 -57 -15 -11 18 -23 11 -55 -32 -31 -41
-32 -42 -26 -13 4 17 11 53 17 80 5 28 14 59 18 70 5 11 12 28 15 38 7 21 25
22 32 2 9 -23 42 -18 59 10 8 14 22 37 31 51 l16 26 27 -26 c15 -14 32 -26 38
-26z m2768 30 c3 -5 2 -10 -3 -10 -5 0 -24 -3 -41 -6 -19 -4 -31 -2 -31 4 0 9
19 16 57 21 6 0 15 -3 18 -9z m-305 -25 c0 -8 -4 -15 -10 -15 -5 0 -10 7 -10
15 0 8 5 15 10 15 6 0 10 -7 10 -15z m45 5 c3 -5 -1 -10 -9 -10 -9 0 -16 5
-16 10 0 6 4 10 9 10 6 0 13 -4 16 -10z m-815 -10 c0 -5 -10 -10 -22 -10 -19
0 -20 2 -8 10 19 13 30 13 30 0z m548 -18 c4 -24 -7 -29 -26 -10 -18 18 -15
40 6 36 9 -2 18 -13 20 -26z m69 12 c8 -21 -8 -34 -34 -28 -14 4 -19 11 -16
25 6 23 41 25 50 3z m47 0 c9 -23 8 -24 -14 -24 -11 0 -20 2 -20 4 0 12 13 36
20 36 4 0 11 -7 14 -16z m-1380 -51 c20 -58 20 -83 1 -83 -22 0 -57 39 -51 57
3 8 6 28 6 44 0 46 26 35 44 -18z m1601 21 c0 -10 -8 -20 -17 -22 -18 -3 -26
27 -11 42 12 11 28 0 28 -20z m-425 0 c0 -11 -5 -14 -16 -10 -9 3 -18 6 -20 6
-3 0 -2 5 1 10 10 16 35 12 35 -6z m365 -12 c0 -18 -20 -15 -23 4 -3 10 1 15
10 12 7 -3 13 -10 13 -16z m-158 -19 c2 -6 -4 -18 -13 -27 -23 -23 -40 -6 -24
24 11 21 31 23 37 3z m-797 -14 c0 -5 -7 -9 -15 -9 -9 0 -12 6 -9 15 6 15 24
11 24 -6z m724 15 c9 -3 16 -13 16 -21 0 -20 -34 -12 -38 10 -4 19 -1 20 22
11z m116 -9 c0 -8 -7 -15 -15 -15 -8 0 -15 7 -15 15 0 8 7 15 15 15 8 0 15 -7
15 -15z m238 -7 c-4 -29 -38 -38 -38 -10 0 22 8 32 27 32 9 0 13 -8 11 -22z
m-68 -18 c0 -11 -7 -20 -15 -20 -8 0 -15 9 -15 20 0 11 7 20 15 20 8 0 15 -9
15 -20z m110 10 c0 -5 -7 -10 -15 -10 -8 0 -15 5 -15 10 0 6 7 10 15 10 8 0
15 -4 15 -10z m-168 -15 c0 -14 -29 -31 -38 -22 -9 8 16 39 28 35 5 -2 10 -8
10 -13z m-2862 -5 c0 -5 -7 -10 -15 -10 -8 0 -15 5 -15 10 0 6 7 10 15 10 8 0
15 -4 15 -10z m2520 0 c0 -5 -4 -10 -9 -10 -6 0 -13 5 -16 10 -3 6 1 10 9 10
9 0 16 -4 16 -10z m237 -34 c-4 -9 -16 -16 -27 -16 -25 0 -28 37 -2 43 23 5
36 -8 29 -27z m293 26 c0 -5 -6 -17 -14 -28 -12 -16 -17 -17 -28 -6 -11 11
-10 16 6 28 22 16 36 18 36 6z m35 -12 c3 -5 -1 -10 -9 -10 -9 0 -16 5 -16 10
0 6 4 10 9 10 6 0 13 -4 16 -10z m-393 -21 c-11 -28 -26 -29 -30 -1 -3 17 2
22 17 22 16 0 19 -4 13 -21z m296 -2 c2 -11 -3 -17 -16 -17 -24 0 -32 8 -25
26 7 20 37 13 41 -9z m-68 -19 c0 -30 -1 -31 -16 -16 -9 9 -14 24 -11 32 11
27 27 17 27 -16z m-345 13 c7 -12 -12 -24 -25 -16 -11 7 -4 25 10 25 5 0 11
-4 15 -9z m525 -21 c0 -11 -7 -20 -15 -20 -15 0 -21 21 -8 33 12 13 23 7 23
-13z m58 2 c2 -7 -3 -12 -12 -12 -9 0 -16 7 -16 16 0 17 22 14 28 -4z m-343
-17 c0 -11 -8 -21 -17 -23 -14 -3 -18 3 -18 23 0 20 4 26 18 23 9 -2 17 -12
17 -23z m235 0 c0 -18 -5 -25 -20 -25 -20 0 -28 28 -13 43 15 16 33 6 33 -18z
m331 -14 c-10 -14 -24 -54 -31 -89 -9 -44 -20 -68 -36 -81 -13 -11 -24 -23
-24 -28 0 -5 -11 -19 -23 -32 -26 -24 -38 -18 -52 29 -4 14 -14 29 -21 35 -20
15 159 205 186 198 19 -5 19 -6 1 -32z m-631 4 c0 -8 -9 -19 -19 -24 -15 -8
-20 -7 -25 5 -3 9 -4 20 0 25 9 15 44 10 44 -6z m140 0 c0 -8 -4 -15 -10 -15
-5 0 -10 7 -10 15 0 8 5 15 10 15 6 0 10 -7 10 -15z m103 0 c4 -8 2 -17 -4
-21 -15 -9 -39 3 -39 21 0 19 36 20 43 0z m172 -15 c-3 -5 -10 -10 -16 -10 -5
0 -9 5 -9 10 0 6 7 10 16 10 8 0 12 -4 9 -10z m-50 -20 c8 -24 -1 -40 -21 -40
-20 0 -29 27 -14 45 17 20 27 19 35 -5z m-2657 -13 c17 -10 33 -23 33 -30 5
-47 -20 -87 -53 -87 -15 0 -18 5 -13 20 3 11 5 20 3 21 -70 11 -165 15 -180 6
-14 -9 -21 -8 -34 5 -18 17 -13 48 12 73 22 21 186 15 232 -8z m136 7 c19 -4
31 -2 36 7 11 17 122 -95 114 -115 -3 -7 14 -32 38 -55 36 -34 40 -43 28 -51
-23 -15 -50 -12 -57 8 -21 58 -65 67 -113 22 -18 -16 -35 -30 -39 -30 -3 0
-16 16 -29 36 -12 19 -27 32 -31 29 -5 -2 -14 1 -20 8 -8 10 -7 19 4 33 20 27
18 71 -4 93 -33 33 -15 37 73 15z m1626 6 c0 -5 -4 -10 -10 -10 -5 0 -10 5
-10 10 0 6 5 10 10 10 6 0 10 -4 10 -10z m649 -9 c11 -20 5 -31 -16 -31 -7 0
-13 11 -13 25 0 29 15 33 29 6z m677 -2 c26 -12 55 -29 64 -37 13 -14 13 -15
-10 -8 -80 26 -133 15 -123 -24 6 -23 25 -25 53 -8 22 14 27 11 32 -17 2 -16
-6 -22 -49 -33 -62 -15 -116 -5 -121 22 -2 10 3 35 11 55 9 20 18 44 21 54 8
24 62 22 122 -4z m-741 -16 c-6 -26 -21 -43 -37 -43 -14 0 -8 29 9 50 24 28
36 25 28 -7z m-195 7 c0 -5 -4 -10 -10 -10 -5 0 -10 5 -10 10 0 6 5 10 10 10
6 0 10 -4 10 -10z m440 -6 c0 -17 -22 -14 -28 4 -2 7 3 12 12 12 9 0 16 -7 16
-16z m-2950 -2 c0 -13 -12 -22 -22 -16 -10 6 -1 24 13 24 5 0 9 -4 9 -8z m816
-148 c125 -102 227 -170 333 -223 134 -68 310 -125 431 -140 49 -6 55 -9 25
-9 -159 -4 -434 99 -650 243 -88 59 -245 189 -278 232 l-22 28 31 -25 c17 -14
76 -61 130 -106z m1109 117 c6 -11 -26 -31 -49 -31 -24 0 -19 19 7 30 29 12
35 12 42 1z m900 -11 c0 -7 -6 -15 -12 -17 -8 -3 -13 4 -13 17 0 13 5 20 13
18 6 -3 12 -11 12 -18z m-52 -19 c-7 -26 -32 -35 -40 -14 -4 9 1 21 12 29 22
17 35 10 28 -15z m-73 -11 c0 -5 -4 -10 -10 -10 -5 0 -10 5 -10 10 0 6 5 10
10 10 6 0 10 -4 10 -10z m203 -17 c8 -7 -21 -43 -35 -43 -4 0 -8 11 -8 25 0
18 5 25 18 25 10 0 22 -3 25 -7z m-78 -24 c-4 -5 -13 -9 -22 -9 -13 0 -13 3
-3 15 13 15 35 11 25 -6z m-981 -10 c16 -5 40 -9 53 -9 29 0 40 -24 22 -47 -8
-9 -13 -24 -11 -34 2 -14 -9 -21 -49 -33 -29 -9 -64 -16 -78 -16 -61 -1 -66
-41 -8 -65 23 -9 59 -12 118 -9 78 4 123 -5 106 -22 -4 -4 -59 -9 -123 -11
-85 -3 -122 0 -138 10 -35 22 -99 36 -141 30 -73 -9 -98 -8 -102 5 -3 7 4 12
15 12 11 0 25 7 32 15 10 12 9 20 -4 40 -9 14 -23 25 -31 25 -23 0 -18 17 8
23 12 3 64 6 115 6 51 0 97 3 102 6 20 12 9 32 -25 48 -63 30 -36 47 60 39 28
-2 63 -8 79 -13z m926 6 c0 -8 -9 -19 -19 -25 -27 -14 -40 9 -16 27 24 17 35
17 35 -2z m-3569 -20 c102 -36 164 -109 139 -163 -10 -24 -64 -52 -100 -52
-24 0 -24 4 -3 -70 17 -61 14 -81 -9 -63 -7 5 -29 16 -48 23 -95 36 -221 103
-236 125 -9 13 -18 42 -21 64 -15 111 137 185 278 136z m1199 7 c0 -5 -9 -17
-21 -28 -12 -10 -27 -31 -35 -46 -17 -33 -39 -36 -54 -7 -14 25 -2 42 49 69
39 21 61 25 61 12z m2143 -17 c1 -6 -10 -11 -25 -13 -26 -3 -38 14 -22 31 8 8
45 -7 47 -18z m-2303 5 c0 -5 -5 -10 -11 -10 -5 0 -7 5 -4 10 3 6 8 10 11 10
2 0 4 -4 4 -10z m850 1 c0 -5 -7 -14 -16 -22 -13 -10 -17 -10 -24 1 -5 8 -6
18 -4 22 7 11 44 10 44 -1z m537 -7 c5 -14 -35 -26 -43 -13 -8 14 6 30 24 27
8 -2 17 -8 19 -14z m1633 1 c0 -23 51 -116 67 -122 11 -4 11 -8 1 -20 -10 -12
-9 -17 5 -24 9 -6 17 -20 17 -32 1 -12 7 -33 15 -47 9 -16 12 -40 8 -68 -5
-35 -2 -47 16 -66 13 -13 37 -27 55 -30 30 -6 34 -11 49 -66 10 -33 17 -63 17
-67 -1 -11 -124 -5 -182 8 -52 12 -57 22 -33 69 19 36 2 41 -26 8 -16 -19 -20
-21 -28 -8 -5 8 -7 26 -5 40 4 18 -1 31 -15 44 -27 24 -26 32 4 68 30 35 69
108 62 115 -3 2 -14 -1 -26 -9 -18 -11 -26 -10 -58 7 -20 11 -54 36 -75 56
-28 26 -47 36 -66 34 -43 -3 -70 -22 -83 -60 -12 -32 -17 -35 -44 -32 -22 2
-31 9 -33 25 -2 12 -13 28 -24 36 -20 14 -19 15 9 32 15 11 34 24 41 31 7 7
20 13 29 13 8 0 34 16 57 35 48 39 66 44 66 18 1 -25 21 -49 49 -56 19 -5 33
3 70 38 50 48 61 53 61 30z m1486 -4 c65 -30 89 -72 89 -158 0 -51 -4 -77 -15
-87 -19 -19 -207 -116 -225 -116 -10 0 -9 13 6 61 11 34 17 64 14 67 -3 3 -21
-2 -40 -11 -47 -22 -100 -21 -154 3 -40 19 -82 54 -81 69 1 9 22 43 50 80 27
35 115 90 164 102 60 14 149 9 192 -10z m-1916 -9 c0 -11 -48 -37 -55 -30 -8
8 24 38 41 38 8 0 14 -4 14 -8z m526 -37 c-32 -26 -46 -24 -46 4 0 20 50 42
65 29 6 -6 0 -18 -19 -33z m-736 25 c0 -5 -2 -10 -4 -10 -3 0 -8 5 -11 10 -3
6 -1 10 4 10 6 0 11 -4 11 -10z m20 -50 c0 -5 -9 -10 -20 -10 -11 0 -20 5 -20
10 0 6 9 10 20 10 11 0 20 -4 20 -10z m1161 -32 c1 -7 0 -22 0 -34 -1 -12 9
-35 23 -51 39 -47 48 -79 35 -124 -9 -29 -9 -42 0 -53 7 -8 13 -38 13 -68 1
-29 8 -63 15 -75 8 -11 10 -23 6 -26 -4 -2 -77 -8 -160 -12 l-153 -7 0 25 c0
13 7 30 15 37 8 7 15 20 15 30 0 10 7 23 15 30 8 7 15 24 15 37 0 21 -3 23
-14 14 -19 -16 -59 -92 -52 -99 7 -6 -13 -32 -25 -32 -5 0 -9 9 -9 19 0 11 -4
23 -10 26 -5 3 -10 19 -10 35 0 34 26 55 81 65 20 4 51 20 68 35 26 24 31 36
31 74 0 25 5 46 10 46 6 0 10 9 10 19 0 11 5 23 10 26 6 3 10 15 10 26 0 10 7
19 15 19 8 0 15 7 15 15 0 18 30 20 31 3z m-2859 -57 c24 -16 66 -43 95 -61
l52 -33 -39 -37 c-27 -25 -40 -46 -40 -64 0 -14 4 -26 9 -26 10 0 41 45 41 60
0 19 29 42 47 38 13 -2 21 -18 27 -53 5 -28 15 -54 22 -58 68 -40 -106 -111
-322 -132 -49 -5 -74 -4 -78 4 -5 7 -22 9 -47 5 -38 -6 -39 -6 -39 25 0 34
-19 42 -27 11 -7 -25 -38 -26 -47 -2 -3 9 -9 23 -12 30 -4 8 4 12 25 12 17 0
31 5 31 10 0 6 -9 10 -21 10 -27 0 -19 24 9 28 17 3 22 -2 22 -18 0 -20 4 -22
36 -15 40 7 74 -14 74 -46 0 -10 7 -25 16 -33 14 -14 18 -14 44 -1 19 10 27
20 24 30 -7 18 -16 19 -33 3 -10 -11 -16 -8 -31 12 -24 31 -25 56 -2 63 9 2
25 8 34 12 15 6 17 3 12 -23 -10 -48 12 -46 47 4 24 35 34 43 40 33 8 -12 11
-11 19 1 13 21 -24 60 -42 42 -19 -19 -23 -14 -23 29 0 31 -6 45 -25 59 l-24
18 32 19 c17 10 32 26 32 36 0 11 4 15 12 11 8 -5 9 -2 5 9 -9 23 -4 22 45
-12z m-207 3 c14 -9 25 -22 25 -30 0 -15 -80 -30 -106 -20 -15 6 -13 11 11 36
33 35 37 35 70 14z m-988 -15 c15 -6 38 -12 51 -14 53 -6 50 -35 -11 -102 -33
-36 -62 -41 -128 -22 -30 10 -42 9 -54 -1 -14 -12 -15 -10 -9 16 4 16 13 36
20 45 8 8 14 22 14 30 0 8 7 25 16 37 17 25 55 29 101 11z m3107 5 c9 -3 16
-14 16 -23 0 -9 10 -21 23 -26 17 -8 23 -20 25 -55 2 -28 11 -53 24 -67 l20
-22 -28 -25 c-35 -31 -41 -32 -63 -5 l-17 21 -32 -27 c-17 -14 -36 -24 -42
-20 -5 3 -10 26 -10 50 0 46 -19 75 -48 75 -22 0 -62 -40 -62 -63 0 -19 -45
-62 -65 -62 -5 0 -12 18 -15 40 -3 25 -11 41 -20 43 -18 3 -80 -49 -80 -66 0
-20 -17 -13 -34 13 -9 14 -21 25 -26 25 -16 0 -12 -30 5 -36 31 -12 16 -40
-27 -50 -65 -14 -84 -50 -108 -204 -5 -30 -13 -79 -19 -109 -6 -29 -11 -55
-11 -57 0 -9 -89 -24 -198 -32 -133 -11 -410 1 -442 18 -10 5 -32 10 -49 10
-36 0 -39 10 -11 35 19 18 22 18 56 2 49 -24 110 -22 124 2 5 11 7 27 4 36 -4
9 1 24 11 35 11 12 15 26 10 37 -6 16 -8 16 -26 -6 -26 -31 -45 -15 -40 35 2
32 0 35 -21 32 -12 -2 -27 -13 -33 -25 -5 -13 -16 -23 -23 -23 -23 0 -5 98 26
144 14 21 31 48 37 60 15 31 38 26 46 -10 3 -18 16 -46 29 -64 19 -26 21 -36
11 -56 -14 -32 -14 -34 4 -34 8 0 19 9 25 20 20 37 27 20 25 -61 -2 -76 -3
-82 -33 -109 -38 -34 -42 -56 -9 -45 12 4 34 9 48 12 17 3 29 15 38 36 11 29
13 31 25 14 16 -21 45 -22 53 -1 8 22 -8 34 -48 37 -19 1 -37 6 -41 12 -7 10
0 61 13 87 6 10 3 30 -6 51 -13 32 -13 39 3 66 9 17 20 31 25 31 4 0 7 6 7 14
0 8 7 17 16 20 24 9 54 -3 54 -20 0 -8 5 -12 10 -9 6 4 9 14 8 23 -2 13 6 18
41 20 24 2 50 10 58 18 21 21 52 17 89 -11 41 -32 44 -31 44 4 0 25 4 29 38
35 46 7 92 8 92 1 0 -3 -7 -17 -16 -30 -21 -32 -15 -50 10 -32 10 7 20 28 22
46 5 41 13 54 30 47 7 -3 16 -1 19 4 3 5 22 14 43 20 48 16 91 34 181 76 68
32 75 34 91 19 22 -20 46 -8 76 36 20 31 24 32 48 23z m265 -26 c22 -18 50
-40 62 -49 27 -19 19 -34 -28 -54 -33 -14 -37 -13 -66 8 -18 12 -41 27 -52 33
-14 8 -20 21 -18 44 3 59 42 65 102 18z m-3692 -97 c24 -57 42 -106 39 -108
-2 -3 -40 6 -83 19 l-78 24 -17 49 c-23 68 -22 69 16 83 19 7 40 19 47 28 6 8
16 13 22 11 5 -1 29 -49 54 -106z m758 89 c22 -11 52 -19 68 -20 24 0 67 -30
67 -47 0 -17 -53 -73 -71 -73 -10 0 -19 -4 -19 -9 0 -14 -58 -31 -106 -31 -45
0 -74 24 -74 62 0 24 13 23 36 -3 16 -17 25 -19 69 -14 59 8 75 19 75 51 0 30
-26 43 -90 47 -27 2 -50 6 -50 10 0 4 0 12 0 17 0 9 33 28 50 29 3 0 23 -8 45
-19z m365 -5 c0 -8 -9 -19 -20 -25 -23 -12 -28 -67 -9 -102 10 -18 8 -24 -12
-39 -28 -22 -39 -24 -39 -7 0 14 -40 58 -52 58 -18 0 -58 -46 -69 -79 -14 -43
-46 -81 -69 -81 -19 0 -56 72 -46 88 3 5 17 13 31 16 14 4 43 25 65 47 23 23
46 39 54 36 17 -7 76 28 76 45 0 6 10 22 22 35 24 26 68 31 68 8z m3018 0 c29
-9 52 -19 52 -23 0 -15 -24 -32 -46 -32 -28 0 -39 -17 -35 -52 3 -33 -21 -48
-78 -48 -44 0 -61 23 -42 59 6 11 11 29 11 41 0 28 39 70 66 70 11 0 44 -7 72
-15z m-4007 -11 c10 -12 10 -20 1 -35 -7 -10 -12 -38 -12 -62 0 -46 18 -72 55
-79 14 -3 19 -11 18 -26 -3 -24 24 -31 44 -11 9 9 20 5 43 -15 17 -14 40 -26
50 -26 21 0 44 33 37 53 -2 7 -9 2 -16 -11 -14 -27 -27 -28 -41 -3 -13 25 -4
48 21 54 10 3 23 16 28 30 11 28 53 40 76 23 8 -6 20 -38 26 -71 6 -33 19 -72
30 -86 10 -15 19 -30 19 -34 0 -20 -324 41 -382 71 -19 10 -34 34 -54 85 l-28
71 21 16 c11 10 23 29 27 45 7 31 18 34 37 11z m4469 -4 c22 -11 46 -20 53
-20 18 0 42 -28 33 -38 -4 -4 -30 -7 -58 -8 -56 -1 -80 -22 -57 -51 11 -13 10
-17 -6 -29 -24 -18 -55 -17 -79 1 -18 13 -19 19 -8 48 7 19 12 45 12 59 0 44
10 58 41 58 17 0 47 -9 69 -20z m321 -26 c27 -25 89 -43 146 -44 28 0 54 -4
57 -9 3 -5 -1 -29 -10 -54 -15 -44 -16 -45 -92 -70 -99 -32 -181 -51 -189 -43
-5 5 43 208 54 229 6 11 15 9 34 -9z m-3541 -14 c14 -26 12 -76 -2 -88 -7 -5
-24 -13 -37 -17 -21 -7 -23 -5 -18 17 11 44 -20 61 -116 63 -63 2 -81 6 -79
16 6 25 25 29 135 28 93 -1 109 -3 117 -19z m870 10 c0 -5 -7 -10 -16 -10 -8
0 -12 5 -9 10 3 6 10 10 16 10 5 0 9 -4 9 -10z m-2589 -64 c287 -133 599 -221
932 -263 161 -20 504 -22 667 -5 145 16 366 56 492 88 94 24 99 25 133 8 35
-16 50 -45 43 -80 -2 -10 -36 -39 -76 -64 -41 -25 -77 -52 -82 -60 -5 -8 -4
-51 1 -95 5 -44 5 -83 1 -86 -7 -7 -189 -36 -402 -64 -403 -53 -796 -44 -1110
25 -208 45 -466 148 -517 205 -52 59 -203 381 -203 433 0 8 49 -8 121 -42z
m2172 -19 c31 -11 57 -23 57 -27 0 -6 -19 -24 -63 -59 -15 -12 -22 -10 -52 10
-31 21 -35 29 -35 68 0 37 2 42 18 36 9 -4 43 -17 75 -28z m3527 13 c0 -15
-92 -195 -151 -296 -85 -145 -117 -190 -146 -204 -66 -30 -270 -90 -389 -115
-306 -62 -617 -68 -1044 -19 -118 14 -266 30 -329 35 -63 6 -133 14 -155 18
-47 8 -47 11 -21 105 12 43 14 66 7 82 -6 12 -47 44 -93 70 -94 57 -117 83
-103 122 16 45 46 48 226 24 508 -69 734 -86 1080 -79 266 5 386 15 533 46 81
17 350 94 355 102 3 3 49 28 103 54 54 27 100 52 103 57 7 11 24 10 24 -2z
m-2055 -37 c4 -21 10 -57 14 -80 l8 -42 -51 6 c-60 7 -70 14 -63 45 7 27 65
108 77 108 5 0 12 -17 15 -37z m-657 0 c-10 -2 -28 -2 -40 0 -13 2 -5 4 17 4
22 1 32 -1 23 -4z m1052 -6 c0 -7 -15 -36 -33 -64 -24 -37 -37 -49 -47 -43 -7
4 -10 15 -7 23 3 8 -1 25 -10 36 -8 12 -13 24 -12 26 2 1 27 10 54 18 28 8 51
15 53 16 1 1 2 -5 2 -12z m-1215 -7 c-55 -4 -138 -7 -185 -7 l-85 1 100 6 c55
3 138 6 185 6 l85 1 -100 -7z m-1328 -6 c-3 -3 -12 -4 -19 -1 -8 3 -5 6 6 6
11 1 17 -2 13 -5z m886 -23 c4 -4 -4 -18 -17 -30 -28 -26 -56 -22 -56 8 0 11
-5 23 -10 26 -6 4 -8 10 -5 15 5 9 74 -6 88 -19z m1717 -18 c0 -20 7 -44 16
-54 26 -29 8 -42 -52 -37 -30 3 -57 7 -60 11 -4 3 8 23 25 44 17 21 31 45 31
54 0 17 19 30 33 22 4 -2 7 -20 7 -40z m-640 1 c0 -26 -17 -33 -26 -9 -8 20 3
48 16 40 5 -3 10 -17 10 -31z m-1184 -7 c9 -31 44 -67 65 -67 10 0 30 16 45
35 32 43 43 44 51 5 3 -17 10 -33 14 -36 17 -10 9 -51 -21 -106 -49 -89 -83
-102 -79 -29 3 48 -52 143 -98 168 -37 20 -36 18 -23 43 13 23 37 16 46 -13z
m1627 1 c8 -18 17 -41 20 -50 3 -9 16 -18 29 -20 33 -4 19 -23 -17 -22 -16 1
-76 7 -131 13 l-102 13 22 34 c25 40 43 43 52 9 7 -30 51 -35 61 -7 5 15 42
62 49 62 2 0 10 -15 17 -32z m-1329 -8 c6 -6 6 -10 0 -10 -5 0 -18 -16 -29
-35 -23 -43 -47 -42 -56 2 -3 18 -13 40 -20 50 -13 15 -10 16 40 10 30 -4 59
-11 65 -17z m2391 -23 c19 -40 22 -42 60 -40 l40 3 -50 -14 c-66 -18 -165 -30
-165 -19 0 4 7 17 15 27 8 11 15 30 15 42 0 24 23 43 50 43 8 0 24 -19 35 -42z
m-2175 22 c0 -11 -48 -79 -65 -91 -20 -15 -65 67 -50 91 8 14 115 14 115 0z
m2074 2 c3 -4 -6 -19 -19 -31 l-25 -23 0 25 c0 13 3 28 7 31 9 10 31 9 37 -2z
m-2382 -214 c-7 -36 -6 -47 4 -51 29 -11 14 -41 -28 -61 -24 -11 -42 -26 -40
-32 3 -19 -35 -16 -42 3 -11 28 -7 42 22 72 43 47 52 60 52 77 0 8 6 24 12 35
20 31 31 7 20 -43z m-164 -66 l20 -83 -40 6 c-52 8 -153 57 -153 73 0 15 137
103 146 94 3 -3 15 -44 27 -90z m1037 40 c87 -52 106 -82 63 -101 -29 -12
-201 -50 -206 -45 -2 2 1 19 6 37 6 18 16 61 23 96 6 34 17 62 23 62 6 -1 47
-22 91 -49z m-759 -46 l20 -43 -34 -7 c-19 -3 -35 -5 -37 -3 -5 5 19 98 25 98
3 -1 14 -21 26 -45z m-374 -86 c306 -103 675 -116 1063 -38 139 28 131 29 127
-6 -4 -33 -49 -167 -81 -237 -25 -55 -29 -57 -221 -90 -106 -19 -163 -22 -380
-22 -224 0 -268 2 -359 22 -57 12 -110 27 -117 33 -21 17 -60 107 -79 178 -18
69 -31 181 -21 181 4 0 34 -9 68 -21z"/>
<path d="M3267 5072 c-19 -20 -23 -42 -7 -42 12 0 32 38 28 51 -2 6 -11 2 -21
-9z"/>
<path d="M3342 5008 c5 -15 28 -18 29 -3 0 6 -7 12 -17 13 -10 3 -15 -1 -12
-10z"/>
<path d="M3660 4519 c-19 -10 -42 -19 -51 -19 -24 0 -49 -33 -49 -64 0 -36 16
-66 53 -96 17 -14 39 -33 48 -42 47 -45 98 -50 134 -13 21 20 25 34 25 82 0
147 -62 207 -160 152z m95 -43 c12 -17 15 -43 13 -91 -5 -105 -27 -107 -130
-13 -23 22 -29 35 -26 60 5 55 33 48 62 -17 24 -50 49 -76 62 -62 3 2 -6 29
-19 58 -12 30 -21 62 -19 72 5 25 39 21 57 -7z"/>
<path d="M4001 4501 c-17 -16 -31 -38 -31 -48 0 -10 -4 -23 -9 -28 -4 -6 -14
-31 -21 -58 -11 -43 -11 -49 5 -68 38 -41 201 3 248 67 25 33 11 69 -49 124
-55 51 -97 54 -143 11z m96 -25 c4 -7 18 -18 30 -25 53 -28 35 -89 -33 -111
-60 -20 -60 -1 3 88 29 41 -15 26 -57 -19 -42 -46 -58 -40 -40 16 18 54 77 85
97 51z"/>
<path d="M3468 4263 c-33 -21 -45 -49 -54 -125 -6 -52 -4 -59 19 -82 31 -30
65 -33 134 -10 130 43 163 76 129 129 -20 30 -80 70 -138 90 -53 18 -57 18
-90 -2z m101 -45 c24 -13 44 -27 44 -33 3 -16 -115 -18 -137 -2 -19 14 -19 14
2 35 28 28 39 27 91 0z m86 -74 c0 -22 -79 -64 -135 -71 -46 -6 -75 15 -65 46
6 21 11 22 69 16 53 -6 65 -4 86 14 29 24 45 22 45 -5z"/>
<path d="M4165 4229 c-128 -30 -172 -90 -102 -142 100 -76 190 -87 247 -32 32
31 36 49 19 108 -20 74 -60 90 -164 66z m105 -43 c0 -17 -16 -23 -80 -32 -40
-5 -50 -10 -48 -23 3 -12 14 -15 48 -13 25 1 55 5 68 8 34 7 41 -24 11 -48
-18 -15 -32 -18 -62 -14 -79 13 -143 63 -122 96 3 5 22 12 43 16 20 4 44 10
52 15 25 14 90 11 90 -5z"/>
<path d="M3676 4009 c-107 -62 -125 -92 -86 -142 11 -14 20 -28 20 -32 0 -14
57 -54 78 -55 24 0 75 32 103 64 9 11 22 49 28 85 l12 66 -30 27 c-17 16 -37
28 -44 27 -6 0 -43 -18 -81 -40z m111 -20 c15 -15 -16 -111 -47 -144 -27 -29
-52 -32 -71 -9 -12 14 -9 20 17 43 28 23 54 60 54 75 0 16 -30 1 -69 -34 -43
-39 -61 -43 -61 -15 0 15 60 65 77 65 6 0 16 7 23 15 14 17 61 20 77 4z"/>
<path d="M3958 4021 c-32 -26 -51 -110 -38 -166 10 -47 61 -95 100 -95 38 0
98 24 120 48 23 25 26 72 6 110 -15 28 -78 82 -95 82 -6 0 -11 4 -11 8 0 7
-42 32 -54 32 -2 0 -14 -9 -28 -19z m80 -55 c50 -31 71 -56 77 -92 11 -58 -35
-74 -49 -18 -8 32 -43 84 -57 84 -16 0 -10 -44 11 -83 25 -46 25 -47 -2 -47
-59 1 -84 69 -53 144 8 20 20 36 25 36 6 0 27 -11 48 -24z"/>
<path d="M2217 4240 c-78 -24 -136 -111 -124 -186 8 -49 49 -110 89 -131 45
-23 133 -23 181 1 90 44 120 162 63 245 -47 67 -129 95 -209 71z m107 -112
c71 -64 -9 -163 -95 -117 -30 16 -42 57 -28 92 21 49 82 61 123 25z"/>
<path d="M830 1495 c-10 -12 -7 -20 20 -45 18 -16 38 -30 46 -30 23 0 54 33
54 57 0 26 -12 30 -30 8 -17 -21 -37 -19 -50 5 -13 24 -23 25 -40 5z"/>
<path d="M751 1449 c-13 -11 -31 -24 -39 -28 -9 -5 -12 -15 -9 -25 9 -24 52
-1 68 36 15 37 10 41 -20 17z"/>
<path d="M4950 2430 c0 -5 5 -10 10 -10 6 0 10 5 10 10 0 6 -4 10 -10 10 -5 0
-10 -4 -10 -10z"/>
<path d="M5120 1770 c0 -5 5 -10 11 -10 5 0 7 5 4 10 -3 6 -8 10 -11 10 -2 0
-4 -4 -4 -10z"/>
<path d="M5205 1522 c-41 -5 -56 -21 -26 -29 15 -4 19 -8 10 -13 -22 -14 -2
-42 28 -38 33 4 43 27 14 35 -21 5 -21 7 -5 24 21 23 18 25 -21 21z"/>
<path d="M5444 1338 c4 -13 10 -40 13 -61 9 -59 73 -99 73 -46 0 11 -4 18 -9
14 -15 -9 -42 25 -36 45 8 25 -12 70 -31 70 -12 0 -15 -6 -10 -22z"/>
<path d="M2326 2371 c9 -35 18 -43 43 -39 19 3 18 6 -14 34 l-35 31 6 -26z"/>
<path d="M4624 1083 c4 -16 9 -45 12 -65 7 -41 30 -56 52 -34 18 17 8 36 -20
36 -17 0 -19 4 -14 26 9 34 -1 64 -21 64 -12 0 -14 -7 -9 -27z"/>
<path d="M4960 1125 c0 -7 6 -18 13 -22 8 -4 17 -25 20 -47 6 -40 31 -76 53
-76 13 0 44 37 44 53 0 5 -12 7 -27 5 -25 -3 -28 1 -34 34 -3 20 -11 44 -19
52 -16 20 -50 21 -50 1z"/>
<path d="M2261 1053 c-8 -15 -13 -16 -30 -5 -24 14 -27 5 -6 -21 21 -28 59
-19 63 16 4 30 -12 36 -27 10z"/>
<path d="M3380 1028 c-11 -18 -20 -41 -20 -50 0 -10 -6 -18 -14 -18 -15 0 -29
-27 -18 -34 10 -6 27 5 35 24 4 8 20 33 36 55 16 22 27 43 25 47 -10 16 -25 7
-44 -24z"/>
<path d="M3568 994 c-12 -12 -20 -14 -36 -5 -27 15 -32 14 -32 -4 0 -19 44
-37 67 -27 10 4 18 17 19 30 1 26 2 26 -18 6z"/>
<path d="M3259 962 c10 -7 12 -20 7 -45 -5 -26 -2 -39 10 -52 26 -25 34 -5 20
50 -9 35 -19 51 -32 53 -15 2 -16 1 -5 -6z"/>
<path d="M3182 849 c5 -17 48 -25 48 -10 0 6 -4 11 -9 11 -5 0 -17 3 -27 7
-12 4 -15 2 -12 -8z"/>
<path d="M3291 827 c-9 -12 -10 -21 -2 -36 6 -11 11 -30 11 -42 0 -25 49 -72
67 -64 7 2 29 -3 48 -11 30 -12 42 -13 71 -2 31 11 48 38 24 38 -5 0 -10 11
-10 24 0 14 5 28 10 31 15 10 12 35 -5 35 -8 0 -15 -6 -15 -13 0 -8 -9 -22
-21 -33 -17 -16 -22 -16 -31 -4 -8 12 -8 10 -3 -5 18 -51 19 -60 4 -48 -8 6
-29 13 -48 15 -38 3 -38 4 -78 107 -8 20 -10 21 -22 8z"/>
<path d="M3251 705 c-37 -32 -39 -45 -7 -45 17 0 27 9 36 30 17 42 8 46 -29
15z"/>
<path d="M776 924 c-9 -22 -8 -24 9 -24 8 0 15 -6 15 -12 0 -19 -23 -90 -36
-112 -14 -24 -44 -15 -44 14 0 13 -7 20 -20 20 -15 0 -20 -7 -20 -28 0 -41 30
-64 77 -60 38 3 38 4 70 83 41 100 41 110 2 124 -42 14 -46 14 -53 -5z"/>
<path d="M913 847 c-31 -137 -27 -158 34 -183 40 -17 83 -11 106 14 14 15 34
78 51 155 6 24 3 27 -17 27 -22 0 -26 -7 -37 -62 -18 -89 -25 -100 -62 -96
-48 5 -54 25 -34 108 9 40 16 73 14 75 -2 1 -12 5 -23 9 -18 5 -22 -1 -32 -47z"/>
<path d="M2040 843 c-25 -3 -49 -8 -53 -12 -9 -9 21 -201 33 -214 11 -12 142
10 151 25 14 22 -5 29 -52 20 -56 -11 -69 -6 -69 23 0 20 6 24 51 30 39 6 49
11 47 24 -3 13 -14 15 -56 13 -50 -2 -52 -1 -52 23 0 21 5 25 28 25 47 0 72
11 72 31 0 20 -1 20 -100 12z"/>
<path d="M1181 816 c-34 -37 -19 -74 45 -107 57 -29 64 -53 17 -57 -23 -2 -37
3 -50 17 -21 25 -53 28 -53 6 0 -31 50 -65 94 -65 54 0 86 22 86 60 0 35 -20
56 -72 77 -26 10 -38 21 -36 32 5 24 44 25 65 2 22 -27 53 -28 53 -2 0 55
-107 82 -149 37z"/>
<path d="M1377 801 c-4 -18 -1 -21 23 -21 16 0 32 -6 36 -12 5 -7 7 -50 5 -96
-3 -83 -2 -84 21 -80 21 3 23 8 26 78 4 96 5 100 42 100 27 0 51 22 38 35 -2
2 -44 7 -94 11 -87 6 -91 6 -97 -15z"/>
<path d="M1785 808 c-30 -17 -43 -39 -50 -79 -7 -41 14 -104 43 -125 36 -28
120 -13 149 25 32 41 -7 65 -43 26 -46 -49 -109 -18 -107 53 2 61 64 94 99 53
17 -20 54 -17 54 4 0 38 -102 69 -145 43z"/>
<path d="M1620 695 c0 -108 1 -115 20 -115 19 0 20 7 20 115 0 108 -1 115 -20
115 -19 0 -20 -7 -20 -115z"/>
<path d="M5590 871 c-26 -14 -36 -26 -38 -48 -4 -43 19 -61 88 -69 60 -7 72
-18 48 -42 -14 -14 -78 -16 -78 -2 0 16 -37 12 -43 -5 -10 -24 45 -56 84 -48
53 10 89 40 89 74 0 45 -31 69 -89 69 -35 0 -51 4 -55 15 -8 21 39 44 56 27
17 -17 58 -15 58 2 0 19 -38 46 -65 46 -11 0 -36 -8 -55 -19z"/>
<path d="M3971 803 c-34 -128 -35 -139 -16 -147 21 -8 20 -9 32 29 9 28 13 30
66 33 45 2 60 8 72 25 20 29 19 70 -2 89 -20 17 -96 48 -117 48 -9 0 -22 -29
-35 -77z m114 -13 c0 -19 -6 -26 -25 -28 -36 -3 -54 11 -45 37 5 18 13 22 38
19 27 -2 32 -7 32 -28z"/>
<path d="M5383 835 c-83 -36 -53 -125 41 -125 28 0 58 -22 48 -36 -13 -20 -59
-25 -76 -9 -17 18 -42 19 -52 3 -9 -15 44 -58 73 -58 56 0 103 36 103 80 0 37
-27 55 -93 65 -38 5 -48 10 -45 23 4 20 55 29 71 13 15 -15 47 -14 47 2 0 20
-14 35 -43 46 -35 13 -35 13 -74 -4z"/>
<path d="M4185 828 c-6 -18 -25 -165 -25 -194 0 -17 6 -24 19 -24 15 0 21 10
26 40 9 53 30 51 57 -5 21 -42 51 -65 66 -50 4 3 -1 20 -11 36 -22 40 -22 61
3 77 24 14 27 67 6 95 -11 14 -92 36 -134 37 -1 0 -5 -6 -7 -12z m96 -48 c25
-14 24 -37 -1 -45 -29 -9 -60 3 -60 24 0 32 24 40 61 21z"/>
<path d="M5161 813 l-44 -4 7 -77 c4 -42 10 -94 13 -114 l6 -38 56 6 c89 9
101 13 101 34 0 18 -5 19 -59 14 -54 -6 -58 -5 -64 15 -6 25 -3 27 66 36 48 6
53 10 38 34 -6 9 -24 12 -57 10 -44 -4 -49 -2 -52 17 -3 19 3 22 49 28 63 9
70 12 62 31 -5 15 -25 16 -122 8z"/>
<path d="M4433 800 c-27 -11 -40 -36 -49 -89 -12 -76 34 -131 109 -131 91 0
139 124 76 199 -22 27 -96 38 -136 21z m105 -52 c17 -15 15 -79 -4 -106 -22
-31 -70 -26 -96 9 -16 21 -18 32 -11 60 14 52 68 70 111 37z"/>
<path d="M4683 785 c-34 -24 -48 -78 -33 -130 16 -58 39 -77 97 -82 66 -5 95
18 97 78 l1 44 -53 2 c-50 2 -53 1 -50 -20 2 -16 9 -21 26 -20 26 3 42 -25 21
-38 -46 -29 -99 9 -99 69 0 65 64 97 104 53 19 -21 46 -18 46 5 0 7 -10 22
-22 34 -27 24 -103 27 -135 5z"/>
<path d="M4906 698 c7 -123 9 -130 31 -126 14 3 17 11 15 40 -2 20 1 39 7 42
14 9 51 -11 51 -28 0 -19 34 -46 58 -46 28 0 28 4 -3 44 -29 38 -31 49 -10 66
21 17 19 73 -3 93 -13 12 -37 17 -85 17 l-67 0 6 -102z m115 46 c11 -14 10
-18 -6 -30 -38 -28 -76 -8 -61 31 7 20 50 19 67 -1z"/>
<path d="M2832 534 c-15 -25 -44 -71 -64 -102 -34 -53 -35 -57 -17 -60 12 -2
30 7 44 22 20 21 30 25 52 20 39 -9 40 -10 46 -42 5 -26 37 -48 50 -35 5 5
-39 218 -48 233 -13 21 -37 8 -63 -36z m39 -77 c-15 -15 -30 1 -24 24 6 21 7
21 20 4 8 -12 9 -23 4 -28z"/>
<path d="M3311 563 c-33 -4 -33 -5 -27 -44 3 -22 9 -73 13 -115 6 -74 6 -75
32 -70 14 3 45 8 68 11 64 10 97 53 90 118 -8 85 -62 116 -176 100z m107 -50
c47 -40 32 -110 -27 -126 -18 -4 -37 -5 -41 0 -5 4 -11 36 -15 70 -6 54 -5 62
12 66 35 9 51 7 71 -10z"/>
<path d="M3028 553 c-16 -4 -18 -18 -18 -114 0 -102 1 -109 20 -109 18 0 20 7
20 65 0 36 4 65 9 65 5 0 31 -29 57 -65 40 -55 53 -65 74 -63 14 2 24 6 23 11
-2 4 -3 54 -3 111 0 99 -1 104 -20 99 -17 -5 -20 -14 -20 -64 0 -32 -4 -61
-10 -64 -5 -3 -20 11 -34 32 -42 63 -80 100 -98 96z"/>
<path d="M6221 5683 c0 -493 4 -709 11 -690 7 20 17 27 39 28 16 1 41 2 57 3
15 0 37 11 50 24 l22 22 0 665 0 665 -90 0 -90 0 1 -717z"/>
<path d="M5600 6150 c0 -122 -1 -121 67 -92 50 20 52 30 23 112 -11 30 -19 63
-20 73 0 13 -8 17 -35 17 l-35 0 0 -110z"/>
<path d="M4812 6098 c5 -15 28 -23 28 -10 0 5 -7 13 -16 16 -10 4 -14 1 -12
-6z"/>
<path d="M5772 1604 c3 -44 6 -49 28 -52 20 -3 23 -1 13 9 -7 7 -13 25 -13 40
0 15 -7 32 -16 40 -13 11 -15 7 -12 -37z"/>
<path d="M2385 20 l-180 -5 109 -7 c139 -10 1753 -8 1786 1 57 17 -1219 25
-1715 11z"/>
</g>
</svg>
